<?xml version="1.0"?>

<!DOCTYPE svg PUBLIC '-//W3C//DTD SVG 1.0//EN' 'http://www.w3.org/TR/2001/REC-SVG-20010904/DTD/svg10.dtd'>
<svg fill-opacity="1" xmlns:xlink="http://www.w3.org/1999/xlink" color-rendering="auto" color-interpolation="auto" stroke="black" text-rendering="auto" stroke-linecap="square" width="200" stroke-miterlimit="10" stroke-opacity="1" shape-rendering="auto" fill="black" stroke-dasharray="none" font-weight="normal" stroke-width="1" height="200" xmlns="http://www.w3.org/2000/svg" font-family="&apos;Dialog&apos;" font-style="normal" stroke-linejoin="miter" font-size="12" stroke-dashoffset="0" image-rendering="auto">
  <!--Generated by Marvin with Batik SVG Generator-->
  <defs id="genericDefs" />
  <g>
    <defs id="defs1">
      <clipPath clipPathUnits="userSpaceOnUse" id="clipPath1">
        <path d="M0 0 L200 0 L200 200 L0 200 L0 0 Z" />
      </clipPath>
      <clipPath clipPathUnits="userSpaceOnUse" id="clipPath2">
        <path d="M36.560001373291016 38.20000076293945 Q37.20000076293945 38.20000076293945 38 39 L47 86 Q46 87 45 87 Q44 87 43 86 L35 40 Q35.599998474121094 38.20000076293945 36.560001373291016 38.20000076293945 ZM0 0 L0 200 L200 200 L200 0 Z" />
      </clipPath>
    </defs>
    <g font-size="6" text-rendering="optimizeLegibility" font-family="sans-serif" stroke-linejoin="bevel" shape-rendering="geometricPrecision" stroke-width="0.9515237212181091">
      <line clip-path="url(#clipPath1)" fill="none" x1="44.846623287486715" x2="24.48428420540668" y1="85.88606704406519" y2="98.4829362127659" />
      <line clip-path="url(#clipPath1)" fill="none" x1="24.48428420540668" x2="30.682655006964787" y1="98.4829362127659" y2="75.35031593176728" />
      <line clip-path="url(#clipPath2)" fill="none" x1="30.682655006964787" x2="50.56849617299324" y1="75.35031593176728" y2="62.02336168047628" />
      <line clip-path="url(#clipPath1)" fill="none" x1="44.846623287486715" x2="41.06304615995242" y1="85.88606704406519" y2="65.06238778537355" />
      <line clip-path="url(#clipPath1)" fill="none" x1="41.06304615995242" x2="37.27946903241813" y1="65.06238778537355" y2="44.238708526681904" stroke="rgb(51,51,153)" />
      <line clip-path="url(#clipPath1)" fill="none" x1="50.56849617299324" x2="44.79421274581267" y1="62.02336168047628" y2="52.794104623658285" />
      <line clip-path="url(#clipPath1)" fill="none" x1="44.79421274581267" x2="39.0199293186321" y1="52.794104623658285" y2="43.56484756684029" stroke="rgb(51,51,153)" />
      <line clip-path="url(#clipPath1)" fill="none" x1="50.56849617299324" x2="73.89789183169299" y1="62.02336168047628" y2="67.41230578971584" />
      <line clip-path="url(#clipPath1)" fill="none" x1="44.846623287486715" x2="68.38418591585176" y1="85.88606704406519" y2="90.29160201194567" />
      <line clip-path="url(#clipPath1)" fill="none" x1="73.89789183169299" x2="93.58874090601643" y1="67.41230578971584" y2="103.6352197553314" />
      <line clip-path="url(#clipPath1)" fill="none" x1="68.38418591585176" x2="93.58874090601643" y1="90.29160201194567" y2="103.6352197553314" />
      <line clip-path="url(#clipPath1)" fill="none" x1="24.48428420540668" x2="15.932785270873362" y1="98.4829362127659" y2="94.34632923524246" />
      <line clip-path="url(#clipPath1)" fill="none" x1="15.932785270873362" x2="7.381286336340043" y1="94.34632923524246" y2="90.20972225771902" stroke="red" />
      <line clip-path="url(#clipPath1)" fill="none" x1="30.682655006964787" x2="19.054440291961765" y1="75.35031593176728" y2="80.67235812816412" />
      <line clip-path="url(#clipPath1)" fill="none" x1="19.054440291961765" x2="7.426225576958743" y1="80.67235812816412" y2="85.99440032456096" stroke="red" />
      <line clip-path="url(#clipPath1)" fill="none" x1="93.58874090601643" x2="93.50405557258004" y1="103.6352197553314" y2="112.83541963595067" />
      <line clip-path="url(#clipPath1)" fill="none" x1="93.50405557258004" x2="93.41937023914366" y1="112.83541963595067" y2="122.03561951656994" stroke="red" />
      <line clip-path="url(#clipPath1)" fill="none" x1="97.66041812577765" x2="105.88718578409242" y1="129.46003107190668" y2="134.20975766616834" stroke="red" />
      <line clip-path="url(#clipPath1)" fill="none" x1="105.88718578409242" x2="114.1139534424072" y1="134.20975766616834" y2="138.95948426043" />
      <line clip-path="url(#clipPath1)" fill="none" x1="115.55009677389198" x2="115.55009677389198" y1="138.95948426042997" y2="148.45893747715792" />
      <line clip-path="url(#clipPath1)" fill="none" x1="112.67781011092241" x2="112.67781011092241" y1="138.95948426042997" y2="148.45893747715792" />
      <line clip-path="url(#clipPath1)" fill="none" x1="115.55009677389198" x2="115.55009677389198" y1="148.45893747715792" y2="157.95839069388586" stroke="red" />
      <line clip-path="url(#clipPath1)" fill="none" x1="112.67781011092241" x2="112.67781011092241" y1="148.45893747715792" y2="157.95839069388586" stroke="red" />
      <line clip-path="url(#clipPath1)" fill="none" x1="114.1139534424072" x2="134.85409579262333" y1="138.95948426042997" y2="126.9851573095491" />
      <line clip-path="url(#clipPath1)" fill="none" x1="134.85409579262333" x2="134.85409579262333" y1="126.9851573095491" y2="103.03650340778736" />
      <line clip-path="url(#clipPath1)" fill="none" x1="134.85409579262333" x2="155.5942381428395" y1="126.9851573095491" y2="138.95948426042997" />
      <line clip-path="url(#clipPath1)" fill="none" x1="134.85409579262333" x2="143.08086345093812" y1="103.03650340778736" y2="98.28677681352572" />
      <line clip-path="url(#clipPath1)" fill="none" x1="143.08086345093812" x2="151.30763110925292" y1="98.28677681352572" y2="93.53705021926407" stroke="red" />
      <line clip-path="url(#clipPath1)" fill="none" x1="155.5942381428395" x2="155.5942381428395" y1="138.95948426042997" y2="162.9081381621917" />
      <line clip-path="url(#clipPath1)" fill="none" x1="158.46652480580906" x2="158.46652480580906" y1="140.617799725886" y2="161.2498226967357" />
      <line clip-path="url(#clipPath1)" fill="none" x1="155.5942381428395" x2="176.33438049305562" y1="162.9081381621917" y2="174.88246511307256" />
      <line clip-path="url(#clipPath1)" fill="none" x1="176.33438049305562" x2="197.07452284327175" y1="174.88246511307256" y2="162.9081381621917" />
      <line clip-path="url(#clipPath1)" fill="none" x1="176.33438049305562" x2="194.20223618030218" y1="171.56583414436284" y2="161.2498226967357" />
      <line clip-path="url(#clipPath1)" fill="none" x1="197.07452284327175" x2="197.07452284327175" y1="162.9081381621917" y2="138.95948426042997" />
      <line clip-path="url(#clipPath1)" fill="none" x1="197.07452284327175" x2="176.33438049305562" y1="138.95948426042997" y2="126.9851573095491" />
      <line clip-path="url(#clipPath1)" fill="none" x1="194.20223618030218" x2="176.33438049305562" y1="140.617799725886" y2="130.30178827825884" />
      <line clip-path="url(#clipPath1)" fill="none" x1="176.33438049305562" x2="155.5942381428395" y1="126.9851573095491" y2="138.95948426042997" />
      <line clip-path="url(#clipPath1)" fill="none" x1="31.4448602867664" x2="24.420280804191364" y1="39.36869615299599" y2="39.36869615299599" stroke="rgb(51,51,153)" />
      <line clip-path="url(#clipPath1)" fill="none" x1="24.420280804191364" x2="17.39570132161633" y1="39.36869615299599" y2="39.36869615299599" />
      <line clip-path="url(#clipPath1)" fill="none" x1="39.83199003323823" x2="44.42690305370997" y1="35.80717919055564" y2="31.04632941039107" stroke="rgb(51,51,153)" />
      <line clip-path="url(#clipPath1)" fill="none" x1="44.42690305370997" x2="49.021816074181714" y1="31.04632941039107" y2="26.285479630226504" />
      <text font-size="5" x="48" y="83" clip-path="url(#clipPath1)" stroke-linejoin="miter" stroke="none" stroke-width="1" xml:space="preserve">
      </text>
      <text font-size="5" x="27" y="96" clip-path="url(#clipPath1)" stroke-linejoin="miter" stroke="none" stroke-width="1" xml:space="preserve">
      </text>
      <text font-size="5" x="33" y="73" clip-path="url(#clipPath1)" stroke-linejoin="miter" stroke="none" stroke-width="1" xml:space="preserve">
      </text>
      <text font-size="5" x="52" y="58" clip-path="url(#clipPath1)" stroke-linejoin="miter" stroke="none" stroke-width="1" xml:space="preserve">
      </text>
    </g>
    <g font-size="6" fill="white" text-rendering="optimizeLegibility" font-family="sans-serif" shape-rendering="geometricPrecision" stroke="white">
      <rect x="34" y="35" clip-path="url(#clipPath1)" width="4" rx="1.5" ry="2.5" height="9" stroke="none" />
      <rect x="38" y="35" clip-path="url(#clipPath1)" width="3" rx="1" ry="1.5" height="6" stroke="none" />
      <text x="34" y="42" clip-path="url(#clipPath1)" fill="rgb(51,51,153)" stroke="none" xml:space="preserve">N
      </text>
      <text font-size="5" x="38" y="40" clip-path="url(#clipPath1)" fill="rgb(51,51,153)" stroke="none" xml:space="preserve">+
      </text>
      <text font-size="5" x="78" y="67" clip-path="url(#clipPath1)" fill="rgb(51,51,153)" stroke="none" xml:space="preserve">
      </text>
      <text font-size="5" x="69" y="86" clip-path="url(#clipPath1)" fill="rgb(51,51,153)" stroke="none" xml:space="preserve">
      </text>
      <text font-size="5" x="96" y="101" clip-path="url(#clipPath1)" fill="rgb(51,51,153)" stroke="none" xml:space="preserve">
      </text>
      <rect font-size="5" x="0" y="84" clip-path="url(#clipPath1)" width="5" rx="1.5" ry="2.5" height="9" stroke="none" />
      <text x="0" y="91" clip-path="url(#clipPath1)" fill="red" stroke="none" xml:space="preserve">O
      </text>
      <rect x="91" y="123" clip-path="url(#clipPath1)" width="5" rx="1.5" ry="2.5" height="9" stroke="none" />
      <text x="91" y="130" clip-path="url(#clipPath1)" fill="red" stroke="none" xml:space="preserve">O
      </text>
      <text font-size="5" x="117" y="136" clip-path="url(#clipPath1)" fill="red" stroke="none" xml:space="preserve">
      </text>
      <rect x="112" y="159" clip-path="url(#clipPath1)" width="5" rx="1.5" ry="2.5" height="9" stroke="none" />
      <text x="112" y="166" clip-path="url(#clipPath1)" fill="red" stroke="none" xml:space="preserve">O
      </text>
      <text font-size="5" x="135" y="123" clip-path="url(#clipPath1)" fill="red" stroke="none" xml:space="preserve">
      </text>
      <text font-size="5" x="138" y="100" clip-path="url(#clipPath1)" fill="red" stroke="none" xml:space="preserve">
      </text>
      <text font-size="5" x="158" y="136" clip-path="url(#clipPath1)" fill="red" stroke="none" xml:space="preserve">
      </text>
      <rect x="153" y="87" clip-path="url(#clipPath1)" width="9" rx="3" ry="2.5" height="9" stroke="none" />
      <text x="153" y="94" clip-path="url(#clipPath1)" fill="red" stroke="none" xml:space="preserve">OH
      </text>
      <text font-size="5" x="156" y="159" clip-path="url(#clipPath1)" fill="red" stroke="none" xml:space="preserve">
      </text>
      <text font-size="5" x="179" y="172" clip-path="url(#clipPath1)" fill="red" stroke="none" xml:space="preserve">
      </text>
      <text font-size="5" x="200" y="160" clip-path="url(#clipPath1)" fill="red" stroke="none" xml:space="preserve">
      </text>
      <text font-size="5" x="200" y="136" clip-path="url(#clipPath1)" fill="red" stroke="none" xml:space="preserve">
      </text>
      <text font-size="5" x="177" y="123" clip-path="url(#clipPath1)" fill="red" stroke="none" xml:space="preserve">
      </text>
      <rect x="3" y="35" clip-path="url(#clipPath1)" width="4" rx="1.5" ry="2.5" height="9" stroke="none" />
      <rect x="7" y="39" clip-path="url(#clipPath1)" width="3" rx="1" ry="1.5" height="6" stroke="none" />
      <rect x="10" y="35" clip-path="url(#clipPath1)" width="4" rx="1.5" ry="2.5" height="9" stroke="none" />
      <text x="3" y="42" clip-path="url(#clipPath1)" fill="black" stroke="none" xml:space="preserve">H
      </text>
      <text font-size="5" x="7" y="44" clip-path="url(#clipPath1)" fill="black" stroke="none" xml:space="preserve">3
      </text>
      <text x="10" y="42" clip-path="url(#clipPath1)" fill="black" stroke="none" xml:space="preserve">C
      </text>
      <rect x="45" y="18" clip-path="url(#clipPath1)" width="4" rx="1.5" ry="2.5" height="9" stroke="none" />
      <rect x="49" y="22" clip-path="url(#clipPath1)" width="3" rx="1" ry="1.5" height="6" stroke="none" />
      <rect x="52" y="18" clip-path="url(#clipPath1)" width="4" rx="1.5" ry="2.5" height="9" stroke="none" />
      <rect x="56" y="22" clip-path="url(#clipPath1)" width="3" rx="1" ry="1.5" height="6" stroke="none" />
      <text x="45" y="25" clip-path="url(#clipPath1)" fill="black" stroke="none" xml:space="preserve">C
      </text>
      <text font-size="5" x="49" y="27" clip-path="url(#clipPath1)" fill="black" stroke="none" xml:space="preserve">4
      </text>
      <text x="52" y="25" clip-path="url(#clipPath1)" fill="black" stroke="none" xml:space="preserve">H
      </text>
      <text font-size="5" x="56" y="27" clip-path="url(#clipPath1)" fill="black" stroke="none" xml:space="preserve">9
      </text>
    </g>
  </g>
</svg>
