<?xml version="1.0"?>

<!DOCTYPE svg PUBLIC '-//W3C//DTD SVG 1.0//EN' 'http://www.w3.org/TR/2001/REC-SVG-20010904/DTD/svg10.dtd'>
<svg fill-opacity="1" xmlns:xlink="http://www.w3.org/1999/xlink" color-rendering="auto" color-interpolation="auto" stroke="black" text-rendering="auto" stroke-linecap="square" width="200" stroke-miterlimit="10" stroke-opacity="1" shape-rendering="auto" fill="black" stroke-dasharray="none" font-weight="normal" stroke-width="1" height="200" xmlns="http://www.w3.org/2000/svg" font-family="&apos;Dialog&apos;" font-style="normal" stroke-linejoin="miter" font-size="12" stroke-dashoffset="0" image-rendering="auto">
  <!--Generated by Marvin with Batik SVG Generator-->
  <defs id="genericDefs" />
  <g>
    <defs id="defs1">
      <clipPath clipPathUnits="userSpaceOnUse" id="clipPath1">
        <path d="M0 0 L200 0 L200 200 L0 200 L0 0 Z" />
      </clipPath>
      <clipPath clipPathUnits="userSpaceOnUse" id="clipPath2">
        <path d="M165 69 Q166 69 167 70 L167 92 Q166 93 165 93 Q164 93 163 92 L163 70 Q164 69 165 69 ZM0 0 L0 200 L200 200 L200 0 Z" />
      </clipPath>
    </defs>
    <g font-size="6" text-rendering="optimizeLegibility" font-family="sans-serif" stroke-linejoin="bevel" shape-rendering="geometricPrecision" stroke-width="0.911353349685669">
      <line clip-path="url(#clipPath1)" fill="none" x1="143.5363064516439" x2="152.16455431410193" y1="97.98589374148051" y2="95.67395758723679" />
      <line clip-path="url(#clipPath1)" fill="none" x1="152.16455431410193" x2="160.79280217655997" y1="95.67395758723679" y2="93.36202143299306" stroke="rgb(51,51,153)" />
      <line clip-path="url(#clipPath1)" fill="none" x1="168.9889536238391" x2="177.61720148629718" y1="93.36202143299306" y2="95.67395758723679" stroke="rgb(51,51,153)" />
      <line clip-path="url(#clipPath1)" fill="none" x1="177.61720148629718" x2="186.24544934875524" y1="95.67395758723679" y2="97.98589374148051" />
      <line clip-path="url(#clipPath1)" fill="none" x1="143.5363064516439" x2="154.59024282362253" y1="97.98589374148051" y2="78.8399056167907" />
      <line clip-path="url(#clipPath1)" fill="none" x1="186.24544934875522" x2="197.2993857207338" y1="97.98589374148051" y2="78.8399056167907" />
      <line clip-path="url(#clipPath2)" fill="none" x1="154.59024282362253" x2="175.94481427217818" y1="78.8399056167907" y2="73.1179642724955" />
      <line clip-path="url(#clipPath1)" fill="none" x1="175.94481427217818" x2="197.2993857207338" y1="73.1179642724955" y2="78.8399056167907" />
      <line clip-path="url(#clipPath1)" fill="none" x1="164.89087790019954" x2="164.89087790019954" y1="88.02130271434957" y2="79.0886866859306" stroke="rgb(51,51,153)" />
      <line clip-path="url(#clipPath1)" fill="none" x1="164.89087790019954" x2="164.89087790019954" y1="79.0886866859306" y2="70.15607065751162" />
      <line clip-path="url(#clipPath1)" fill="none" x1="175.94481427217818" x2="175.94481427217818" y1="73.1179642724955" y2="51.010091528538254" />
      <line clip-path="url(#clipPath1)" fill="none" x1="175.94481427217818" x2="164.89087790019954" y1="51.010091528538254" y2="70.15607065751162" />
      <line clip-path="url(#clipPath1)" fill="none" x1="175.94481427217818" x2="156.7988351432048" y1="51.010091528538254" y2="39.95615515655963" />
      <line clip-path="url(#clipPath1)" fill="none" x1="156.7988351432048" x2="141.3270906144485" y1="39.95615515655963" y2="48.88877116080318" />
      <line clip-path="url(#clipPath1)" fill="none" x1="156.7988351432048" x2="142.65284673028805" y1="43.017857734737035" y2="51.18504807699003" />
      <line clip-path="url(#clipPath1)" fill="none" x1="143.5363064516439" x2="121.42843370768668" y1="97.98589374148051" y2="97.98589374148051" />
      <line clip-path="url(#clipPath1)" fill="none" x1="121.42843370768668" x2="105.79582159485909" y1="97.98589374148051" y2="113.61851485002451" />
      <line clip-path="url(#clipPath1)" fill="none" x1="121.42843370768668" x2="112.80019494109439" y1="97.98589374148051" y2="95.67396171133319" />
      <line clip-path="url(#clipPath1)" fill="none" x1="112.80019494109439" x2="104.1719561745021" y1="95.67396171133319" y2="93.36202968118587" stroke="red" />
      <line clip-path="url(#clipPath1)" fill="none" x1="121.42843370768668" x2="121.42843370768668" y1="97.98589374148051" y2="89.05327771306153" />
      <line clip-path="url(#clipPath1)" fill="none" x1="121.42843370768668" x2="121.42843370768668" y1="89.05327771306153" y2="80.12066168464256" stroke="rgb(51,51,51)" />
      <line clip-path="url(#clipPath1)" fill="none" x1="105.79582159485909" x2="86.64984246588574" y1="113.61851485002451" y2="124.67245122200313" />
      <line clip-path="url(#clipPath1)" fill="none" x1="86.64984246588574" x2="94.38571473026389" y1="146.78031497024392" y2="151.24662297236569" />
      <line clip-path="url(#clipPath1)" fill="none" x1="94.38571473026389" x2="102.12158699464203" y1="151.24662297236569" y2="155.71293097448745" stroke="rgb(51,51,153)" />
      <line clip-path="url(#clipPath1)" fill="none" x1="109.47005619507617" x2="117.20592845945433" y1="155.71293097448748" y2="151.24662297236569" stroke="rgb(51,51,153)" />
      <line clip-path="url(#clipPath1)" fill="none" x1="108.14430007923663" x2="115.21729430080387" y1="153.41665405830062" y2="149.33305887845103" stroke="rgb(51,51,153)" />
      <line clip-path="url(#clipPath1)" fill="none" x1="117.20592845945433" x2="124.94180072383247" y1="151.24662297236569" y2="146.78031497024392" />
      <line clip-path="url(#clipPath1)" fill="none" x1="115.21729430080387" x2="122.2902885223711" y1="149.33305887845103" y2="145.24946369860143" />
      <line clip-path="url(#clipPath1)" fill="none" x1="124.94180072383247" x2="124.94180072383247" y1="146.78031497024392" y2="124.67245122200313" />
      <line clip-path="url(#clipPath1)" fill="none" x1="124.94180072383247" x2="105.79582159485909" y1="124.67245122200313" y2="113.61851485002451" />
      <line clip-path="url(#clipPath1)" fill="none" x1="122.2902885223711" x2="105.79582159485909" y1="126.20330249364564" y2="116.68021742820193" />
      <line clip-path="url(#clipPath1)" fill="none" x1="86.64984246588574" x2="67.50386333691236" y1="124.67245122200313" y2="113.61851485002451" />
      <line clip-path="url(#clipPath1)" fill="none" x1="83.99833026442437" x2="67.50386333691236" y1="126.20330249364564" y2="116.68021742820193" />
      <line clip-path="url(#clipPath1)" fill="none" x1="48.357884207939" x2="48.357884207939" y1="124.67245122200313" y2="146.78031497024392" />
      <line clip-path="url(#clipPath1)" fill="none" x1="51.00939640940038" x2="51.00939640940038" y1="126.20330249364564" y2="145.24946369860143" />
      <line clip-path="url(#clipPath1)" fill="none" x1="67.50386333691236" x2="86.64984246588574" y1="157.83425134222256" y2="146.78031497024392" />
      <line clip-path="url(#clipPath1)" fill="none" x1="67.50386333691237" x2="83.99833026442437" y1="154.77254876404515" y2="145.24946369860143" />
      <line clip-path="url(#clipPath1)" fill="none" x1="48.357884207939" x2="67.50386333691236" y1="124.67245122200313" y2="113.61851485002451" />
      <line clip-path="url(#clipPath1)" fill="none" x1="86.64984246588574" x2="86.64984246588574" y1="124.67245122200313" y2="146.78031497024392" />
      <line clip-path="url(#clipPath1)" fill="none" x1="67.50386333691236" x2="48.357884207939" y1="157.83425134222256" y2="146.78031497024392" />
      <line clip-path="url(#clipPath1)" fill="none" x1="48.357884207939" x2="40.622011943560864" y1="124.67245122200313" y2="120.20614321988137" />
      <line clip-path="url(#clipPath1)" fill="none" x1="40.622011943560864" x2="32.886139679182726" y1="120.20614321988137" y2="115.7398352177596" stroke="red" />
      <line clip-path="url(#clipPath1)" fill="none" x1="25.53767047874857" x2="19.638915514478963" y1="115.73983521775959" y2="119.14548303601381" stroke="red" />
      <line clip-path="url(#clipPath1)" fill="none" x1="19.638915514478963" x2="13.740160550209357" y1="119.14548303601381" y2="122.55113085426804" />
      <text font-size="5" x="146" y="95" clip-path="url(#clipPath1)" stroke-linejoin="miter" stroke="none" stroke-width="1" xml:space="preserve">
      </text>
    </g>
    <g font-size="6" fill="white" text-rendering="optimizeLegibility" font-family="sans-serif" shape-rendering="geometricPrecision" stroke="white">
      <rect x="163" y="89" clip-path="url(#clipPath1)" width="4" rx="1.5" ry="2" height="7" stroke="none" />
      <text x="163" y="95" clip-path="url(#clipPath1)" fill="rgb(51,51,153)" stroke="none" xml:space="preserve">N
      </text>
      <text font-size="5" x="189" y="95" clip-path="url(#clipPath1)" fill="rgb(51,51,153)" stroke="none" xml:space="preserve">
      </text>
      <text font-size="5" x="157" y="76" clip-path="url(#clipPath1)" fill="rgb(51,51,153)" stroke="none" xml:space="preserve">
      </text>
      <text font-size="5" x="200" y="76" clip-path="url(#clipPath1)" fill="rgb(51,51,153)" stroke="none" xml:space="preserve">
      </text>
      <text font-size="5" x="177" y="70" clip-path="url(#clipPath1)" fill="rgb(51,51,153)" stroke="none" xml:space="preserve">
      </text>
      <text font-size="5" x="167" y="68" clip-path="url(#clipPath1)" fill="rgb(51,51,153)" stroke="none" xml:space="preserve">
      </text>
      <text font-size="5" x="178" y="49" clip-path="url(#clipPath1)" fill="rgb(51,51,153)" stroke="none" xml:space="preserve">
      </text>
      <text font-size="5" x="157" y="36" clip-path="url(#clipPath1)" fill="rgb(51,51,153)" stroke="none" xml:space="preserve">
      </text>
      <rect x="130" y="48" clip-path="url(#clipPath1)" width="4" rx="1.5" ry="2" height="7" stroke="none" />
      <rect x="134" y="51" clip-path="url(#clipPath1)" width="3" rx="1" ry="1.5" height="6" stroke="none" />
      <rect x="137" y="48" clip-path="url(#clipPath1)" width="4" rx="1.5" ry="2" height="7" stroke="none" />
      <text x="130" y="54" clip-path="url(#clipPath1)" fill="black" stroke="none" xml:space="preserve">H
      </text>
      <text font-size="5" x="134" y="56" clip-path="url(#clipPath1)" fill="black" stroke="none" xml:space="preserve">2
      </text>
      <text x="137" y="54" clip-path="url(#clipPath1)" fill="black" stroke="none" xml:space="preserve">C
      </text>
      <text font-size="5" x="124" y="95" clip-path="url(#clipPath1)" fill="black" stroke="none" xml:space="preserve">
      </text>
      <text font-size="5" x="106" y="110" clip-path="url(#clipPath1)" fill="black" stroke="none" xml:space="preserve">
      </text>
      <rect x="94" y="89" clip-path="url(#clipPath1)" width="9" rx="3" ry="2" height="7" stroke="none" />
      <text x="94" y="95" clip-path="url(#clipPath1)" fill="red" stroke="none" xml:space="preserve">HO
      </text>
      <rect x="119" y="72" clip-path="url(#clipPath1)" width="4" rx="1.5" ry="2" height="7" stroke="none" />
      <text x="119" y="78" clip-path="url(#clipPath1)" fill="rgb(51,51,51)" stroke="none" xml:space="preserve">H
      </text>
      <text font-size="5" x="89" y="122" clip-path="url(#clipPath1)" fill="rgb(51,51,51)" stroke="none" xml:space="preserve">
      </text>
      <text font-size="5" x="87" y="143" clip-path="url(#clipPath1)" fill="rgb(51,51,51)" stroke="none" xml:space="preserve">
      </text>
      <rect x="104" y="154" clip-path="url(#clipPath1)" width="4" rx="1.5" ry="2" height="7" stroke="none" />
      <text x="104" y="160" clip-path="url(#clipPath1)" fill="rgb(51,51,153)" stroke="none" xml:space="preserve">N
      </text>
      <text font-size="5" x="127" y="144" clip-path="url(#clipPath1)" fill="rgb(51,51,153)" stroke="none" xml:space="preserve">
      </text>
      <text font-size="5" x="127" y="122" clip-path="url(#clipPath1)" fill="rgb(51,51,153)" stroke="none" xml:space="preserve">
      </text>
      <text font-size="5" x="68" y="110" clip-path="url(#clipPath1)" fill="rgb(51,51,153)" stroke="none" xml:space="preserve">
      </text>
      <text font-size="5" x="51" y="122" clip-path="url(#clipPath1)" fill="rgb(51,51,153)" stroke="none" xml:space="preserve">
      </text>
      <text font-size="5" x="49" y="143" clip-path="url(#clipPath1)" fill="rgb(51,51,153)" stroke="none" xml:space="preserve">
      </text>
      <text font-size="5" x="70" y="155" clip-path="url(#clipPath1)" fill="rgb(51,51,153)" stroke="none" xml:space="preserve">
      </text>
      <rect x="27" y="110" clip-path="url(#clipPath1)" width="5" rx="1.5" ry="2" height="7" stroke="none" />
      <text x="27" y="116" clip-path="url(#clipPath1)" fill="red" stroke="none" xml:space="preserve">O
      </text>
      <rect x="1" y="121" clip-path="url(#clipPath1)" width="4" rx="1.5" ry="2" height="7" stroke="none" />
      <rect x="5" y="124" clip-path="url(#clipPath1)" width="3" rx="1" ry="1.5" height="6" stroke="none" />
      <rect x="8" y="121" clip-path="url(#clipPath1)" width="4" rx="1.5" ry="2" height="7" stroke="none" />
      <text x="1" y="127" clip-path="url(#clipPath1)" fill="black" stroke="none" xml:space="preserve">H
      </text>
      <text font-size="5" x="5" y="129" clip-path="url(#clipPath1)" fill="black" stroke="none" xml:space="preserve">3
      </text>
      <text x="8" y="127" clip-path="url(#clipPath1)" fill="black" stroke="none" xml:space="preserve">C
      </text>
    </g>
  </g>
</svg>
