<?xml version="1.0"?>

<!DOCTYPE svg PUBLIC '-//W3C//DTD SVG 1.0//EN' 'http://www.w3.org/TR/2001/REC-SVG-20010904/DTD/svg10.dtd'>
<svg fill-opacity="1" xmlns:xlink="http://www.w3.org/1999/xlink" color-rendering="auto" color-interpolation="auto" stroke="black" text-rendering="auto" stroke-linecap="square" width="200" stroke-miterlimit="10" stroke-opacity="1" shape-rendering="auto" fill="black" stroke-dasharray="none" font-weight="normal" stroke-width="1" height="200" xmlns="http://www.w3.org/2000/svg" font-family="&apos;Dialog&apos;" font-style="normal" stroke-linejoin="miter" font-size="12" stroke-dashoffset="0" image-rendering="auto">
  <!--Generated by Marvin with Batik SVG Generator-->
  <defs id="genericDefs" />
  <g>
    <defs id="defs1">
      <clipPath clipPathUnits="userSpaceOnUse" id="clipPath1">
        <path d="M0 0 L200 0 L200 200 L0 200 L0 0 Z" />
      </clipPath>
      <clipPath clipPathUnits="userSpaceOnUse" id="clipPath2">
        <path d="M160.75 53 Q161.5 53 162 54 L162 79 Q161.5 79.5 160.75 79.5 Q160 79.5 159 79 L159 54 Q160 53 160.75 53 ZM0 0 L0 200 L200 200 L200 0 Z" />
      </clipPath>
    </defs>
    <g font-size="7" text-rendering="optimizeLegibility" font-family="sans-serif" stroke-linejoin="bevel" shape-rendering="geometricPrecision" stroke-width="0.9798745512962341">
      <line clip-path="url(#clipPath1)" fill="none" x1="136.51919043476516" x2="118.94380479517565" y1="110.47396487822967" y2="128.04936063149592" />
      <line clip-path="url(#clipPath1)" fill="none" x1="136.51919043476516" x2="126.90551849097963" y1="110.47396487822967" y2="107.89798654760861" />
      <line clip-path="url(#clipPath1)" fill="none" x1="126.90551849097963" x2="117.2918465471941" y1="107.89798654760861" y2="105.32200821698756" stroke="red" />
      <line clip-path="url(#clipPath1)" fill="none" x1="118.94380479517565" x2="97.41842156359654" y1="128.04936063149592" y2="140.4770466234993" />
      <line clip-path="url(#clipPath1)" fill="none" x1="97.41842156359654" x2="106.03780966259279" y1="165.3324084938293" y2="170.3088146086522" />
      <line clip-path="url(#clipPath1)" fill="none" x1="106.03780966259279" x2="114.65719776158905" y1="170.3088146086522" y2="175.2852207234751" stroke="rgb(51,51,153)" />
      <line clip-path="url(#clipPath1)" fill="none" x1="123.23041182876224" x2="131.8497999277585" y1="175.28522072347508" y2="170.3088146086522" stroke="rgb(51,51,153)" />
      <line clip-path="url(#clipPath1)" fill="none" x1="121.73989477174369" x2="129.61402435921724" y1="172.70356949039964" y2="168.15743858435837" stroke="rgb(51,51,153)" />
      <line clip-path="url(#clipPath1)" fill="none" x1="131.8497999277585" x2="140.4691880267548" y1="170.3088146086522" y2="165.3324084938293" />
      <line clip-path="url(#clipPath1)" fill="none" x1="129.61402435921724" x2="137.48815394669077" y1="168.15743858435837" y2="163.61130767831713" />
      <line clip-path="url(#clipPath1)" fill="none" x1="140.4691880267548" x2="140.4691880267548" y1="165.3324084938293" y2="140.4770466234993" />
      <line clip-path="url(#clipPath1)" fill="none" x1="140.4691880267548" x2="118.94380479517565" y1="140.4770466234993" y2="128.04936063149592" />
      <line clip-path="url(#clipPath1)" fill="none" x1="137.48815394669077" x2="118.94380479517565" y1="142.19814743901145" y2="131.49156230174898" />
      <line clip-path="url(#clipPath1)" fill="none" x1="97.41842156359654" x2="75.89303833201743" y1="140.4770466234993" y2="128.04936063149592" />
      <line clip-path="url(#clipPath1)" fill="none" x1="94.43738748353252" x2="75.89303833201743" y1="142.19814743901145" y2="131.49156230174898" />
      <line clip-path="url(#clipPath1)" fill="none" x1="54.36765510043831" x2="54.36765510043831" y1="140.4770466234993" y2="165.3324084938293" />
      <line clip-path="url(#clipPath1)" fill="none" x1="57.34868918050234" x2="57.34868918050234" y1="142.19814743901145" y2="163.61130767831713" />
      <line clip-path="url(#clipPath1)" fill="none" x1="75.89303833201743" x2="97.41842156359654" y1="177.76009448583267" y2="165.3324084938293" />
      <line clip-path="url(#clipPath1)" fill="none" x1="75.89303833201743" x2="94.43738748353252" y1="174.3178928155796" y2="163.61130767831713" />
      <line clip-path="url(#clipPath1)" fill="none" x1="54.36765510043831" x2="75.89303833201743" y1="140.4770466234993" y2="128.04936063149592" />
      <line clip-path="url(#clipPath1)" fill="none" x1="97.41842156359654" x2="97.41842156359654" y1="140.4770466234993" y2="165.3324084938293" />
      <line clip-path="url(#clipPath1)" fill="none" x1="75.89303833201743" x2="54.36765510043831" y1="177.76009448583267" y2="165.3324084938293" />
      <line clip-path="url(#clipPath1)" fill="none" x1="54.36765510043831" x2="45.748267001442045" y1="140.4770466234993" y2="135.50064050867638" />
      <line clip-path="url(#clipPath1)" fill="none" x1="45.748267001442045" x2="37.12887890244578" y1="135.50064050867638" y2="130.52423439385348" stroke="red" />
      <line clip-path="url(#clipPath1)" fill="none" x1="28.55566483527261" x2="22.079580253069636" y1="130.5242343938535" y2="134.2632036274976" stroke="red" />
      <line clip-path="url(#clipPath1)" fill="none" x1="22.079580253069636" x2="15.603495670866664" y1="134.2632036274976" y2="138.0021728611417" />
      <line clip-path="url(#clipPath1)" fill="none" x1="136.51919043476516" x2="146.13287260906833" y1="84.99720859462276" y2="82.42122564321878" />
      <line clip-path="url(#clipPath1)" fill="none" x1="146.13287260906833" x2="155.7465547833715" y1="82.42122564321878" y2="79.84524269181479" stroke="rgb(51,51,153)" />
      <line clip-path="url(#clipPath1)" fill="none" x1="165.3087314718638" x2="174.92241364616694" y1="79.84524269181478" y2="82.42122564321878" stroke="rgb(51,51,153)" />
      <line clip-path="url(#clipPath1)" fill="none" x1="174.92241364616694" x2="184.53609582047008" y1="82.42122564321878" y2="84.99720859462278" />
      <line clip-path="url(#clipPath1)" fill="none" x1="136.51919043476516" x2="148.94687642676854" y1="84.99720859462276" y2="63.47181524936689" />
      <line clip-path="url(#clipPath1)" fill="none" x1="184.5360958204701" x2="196.96376158512" y1="84.99720859462276" y2="63.47181524936689" />
      <line clip-path="url(#clipPath2)" fill="none" x1="148.94687642676854" x2="172.955329119621" y1="63.47181524936689" y2="57.03876842345743" />
      <line clip-path="url(#clipPath1)" fill="none" x1="172.955329119621" x2="196.96376158512" y1="57.03876842345743" y2="63.47181524936689" />
      <line clip-path="url(#clipPath1)" fill="none" x1="160.52764312761764" x2="160.52764312761764" y1="73.61440418673071" y2="63.661591928880256" stroke="rgb(51,51,153)" />
      <line clip-path="url(#clipPath1)" fill="none" x1="160.52764312761764" x2="160.52764312761764" y1="63.661591928880256" y2="53.7087796710298" />
      <line clip-path="url(#clipPath1)" fill="none" x1="172.955329119621" x2="172.955329119621" y1="57.03876842345743" y2="32.18339643945068" />
      <line clip-path="url(#clipPath1)" fill="none" x1="172.955329119621" x2="160.52764312761764" y1="32.18339643945068" y2="53.7087796710298" />
      <line clip-path="url(#clipPath1)" fill="none" x1="172.955329119621" x2="151.4299458880419" y1="32.18339643945068" y2="19.75571044744732" />
      <line clip-path="url(#clipPath1)" fill="none" x1="151.4299458880419" x2="134.19116969004935" y1="19.75571044744732" y2="29.7085226770931" />
      <line clip-path="url(#clipPath1)" fill="none" x1="151.4299458880419" x2="135.68168674706791" y1="23.19791211770039" y2="32.29017391016854" />
      <line clip-path="url(#clipPath1)" fill="none" x1="136.51919043476516" x2="136.51919043476516" y1="84.99720859462276" y2="110.47396487822967" />
      <line clip-path="url(#clipPath1)" fill="none" x1="136.51919043476516" x2="145.13857853376143" y1="110.47396487822967" y2="115.45037099305256" />
      <line clip-path="url(#clipPath1)" fill="none" x1="145.13857853376143" x2="153.7579666327577" y1="115.45037099305256" y2="120.42677710787545" stroke="rgb(51,51,51)" />
    </g>
    <g font-size="5" fill="rgb(51,51,51)" text-rendering="optimizeLegibility" font-family="sans-serif" shape-rendering="geometricPrecision" stroke="rgb(51,51,51)">
      <text xml:space="preserve" x="137" y="107" clip-path="url(#clipPath1)" stroke="none">
      </text>
      <text xml:space="preserve" x="119" y="124" clip-path="url(#clipPath1)" stroke="none">
      </text>
      <rect font-size="7" x="105" y="100" clip-path="url(#clipPath1)" fill="white" width="11" rx="3.5" ry="2.5" height="9" stroke="none" />
      <text font-size="7" x="105" y="107" clip-path="url(#clipPath1)" fill="red" stroke="none" xml:space="preserve">HO
      </text>
      <text x="100" y="138" clip-path="url(#clipPath1)" fill="red" stroke="none" xml:space="preserve">
      </text>
      <text x="98" y="161" clip-path="url(#clipPath1)" fill="red" stroke="none" xml:space="preserve">
      </text>
      <rect font-size="7" x="116" y="173" clip-path="url(#clipPath1)" fill="white" width="5" rx="1.5" ry="2.5" height="9" stroke="none" />
      <text font-size="7" x="116" y="180" clip-path="url(#clipPath1)" fill="rgb(51,51,153)" stroke="none" xml:space="preserve">N
      </text>
      <text x="143" y="163" clip-path="url(#clipPath1)" fill="rgb(51,51,153)" stroke="none" xml:space="preserve">
      </text>
      <text x="143" y="138" clip-path="url(#clipPath1)" fill="rgb(51,51,153)" stroke="none" xml:space="preserve">
      </text>
      <text x="76" y="124" clip-path="url(#clipPath1)" fill="rgb(51,51,153)" stroke="none" xml:space="preserve">
      </text>
      <text x="57" y="138" clip-path="url(#clipPath1)" fill="rgb(51,51,153)" stroke="none" xml:space="preserve">
      </text>
      <text x="55" y="161" clip-path="url(#clipPath1)" fill="rgb(51,51,153)" stroke="none" xml:space="preserve">
      </text>
      <text x="79" y="175" clip-path="url(#clipPath1)" fill="rgb(51,51,153)" stroke="none" xml:space="preserve">
      </text>
      <rect font-size="7" x="30" y="124" clip-path="url(#clipPath1)" fill="white" width="5" rx="1.5" ry="2.5" height="9" stroke="none" />
      <text font-size="7" x="30" y="131" clip-path="url(#clipPath1)" fill="red" stroke="none" xml:space="preserve">O
      </text>
      <rect font-size="7" x="1" y="136" clip-path="url(#clipPath1)" fill="white" width="5" rx="1.5" ry="2.5" height="9" stroke="none" />
      <rect font-size="7" x="6" y="140" clip-path="url(#clipPath1)" fill="white" width="3" rx="1" ry="2" height="7" stroke="none" />
      <rect font-size="7" x="9" y="136" clip-path="url(#clipPath1)" fill="white" width="5" rx="1.5" ry="2.5" height="9" stroke="none" />
      <text font-size="7" x="1" y="143" clip-path="url(#clipPath1)" fill="black" stroke="none" xml:space="preserve">H
      </text>
      <text x="6" y="146" clip-path="url(#clipPath1)" fill="black" stroke="none" xml:space="preserve">3
      </text>
      <text font-size="7" x="9" y="143" clip-path="url(#clipPath1)" fill="black" stroke="none" xml:space="preserve">C
      </text>
      <text x="139" y="82" clip-path="url(#clipPath1)" fill="black" stroke="none" xml:space="preserve">
      </text>
      <rect font-size="7" x="158" y="74" clip-path="url(#clipPath1)" fill="white" width="5" rx="1.5" ry="2.5" height="9" stroke="none" />
      <text font-size="7" x="158" y="81" clip-path="url(#clipPath1)" fill="rgb(51,51,153)" stroke="none" xml:space="preserve">N
      </text>
      <text x="187" y="82" clip-path="url(#clipPath1)" fill="rgb(51,51,153)" stroke="none" xml:space="preserve">
      </text>
      <text x="152" y="61" clip-path="url(#clipPath1)" fill="rgb(51,51,153)" stroke="none" xml:space="preserve">
      </text>
      <text x="200" y="61" clip-path="url(#clipPath1)" fill="rgb(51,51,153)" stroke="none" xml:space="preserve">
      </text>
      <text x="174" y="53" clip-path="url(#clipPath1)" fill="rgb(51,51,153)" stroke="none" xml:space="preserve">
      </text>
      <text x="163" y="51" clip-path="url(#clipPath1)" fill="rgb(51,51,153)" stroke="none" xml:space="preserve">
      </text>
      <text x="176" y="29" clip-path="url(#clipPath1)" fill="rgb(51,51,153)" stroke="none" xml:space="preserve">
      </text>
      <text x="152" y="16" clip-path="url(#clipPath1)" fill="rgb(51,51,153)" stroke="none" xml:space="preserve">
      </text>
      <rect font-size="7" x="120" y="29" clip-path="url(#clipPath1)" fill="white" width="5" rx="1.5" ry="2.5" height="9" stroke="none" />
      <rect font-size="7" x="125" y="33" clip-path="url(#clipPath1)" fill="white" width="3" rx="1" ry="2" height="7" stroke="none" />
      <rect font-size="7" x="128" y="29" clip-path="url(#clipPath1)" fill="white" width="5" rx="1.5" ry="2.5" height="9" stroke="none" />
      <text font-size="7" x="120" y="36" clip-path="url(#clipPath1)" fill="black" stroke="none" xml:space="preserve">H
      </text>
      <text x="125" y="39" clip-path="url(#clipPath1)" fill="black" stroke="none" xml:space="preserve">2
      </text>
      <text font-size="7" x="128" y="36" clip-path="url(#clipPath1)" fill="black" stroke="none" xml:space="preserve">C
      </text>
      <rect font-size="7" x="156" y="119" clip-path="url(#clipPath1)" fill="white" width="5" rx="1.5" ry="2.5" height="9" stroke="none" />
      <text font-size="7" x="156" y="126" clip-path="url(#clipPath1)" stroke="none" xml:space="preserve">H
      </text>
    </g>
  </g>
</svg>
