<?xml version="1.0"?>

<!DOCTYPE svg PUBLIC '-//W3C//DTD SVG 1.0//EN' 'http://www.w3.org/TR/2001/REC-SVG-20010904/DTD/svg10.dtd'>
<svg fill-opacity="1" xmlns:xlink="http://www.w3.org/1999/xlink" color-rendering="auto" color-interpolation="auto" stroke="black" text-rendering="auto" stroke-linecap="square" width="200" stroke-miterlimit="10" stroke-opacity="1" shape-rendering="auto" fill="black" stroke-dasharray="none" font-weight="normal" stroke-width="1" height="200" xmlns="http://www.w3.org/2000/svg" font-family="&apos;Dialog&apos;" font-style="normal" stroke-linejoin="miter" font-size="12" stroke-dashoffset="0" image-rendering="auto">
  <!--Generated by Marvin with Batik SVG Generator-->
  <defs id="genericDefs" />
  <g>
    <defs id="defs1">
      <clipPath clipPathUnits="userSpaceOnUse" id="clipPath1">
        <path d="M0 0 L200 0 L200 200 L0 200 L0 0 Z" />
      </clipPath>
      <clipPath clipPathUnits="userSpaceOnUse" id="clipPath2">
        <path d="M41.52000045776367 81.80000305175781 Q44.400001525878906 81.80000305175781 46 85 L34 106 Q33 106.19999694824219 32.15999984741211 106.19999694824219 Q28.799999237060547 106.19999694824219 28 103 L40 82 Q40.79999923706055 81.80000305175781 41.52000045776367 81.80000305175781 ZM0 0 L0 200 L200 200 L200 0 Z" />
      </clipPath>
      <clipPath clipPathUnits="userSpaceOnUse" id="clipPath3">
        <path d="M67.4800033569336 81.80000305175781 Q68.19999694824219 81.80000305175781 69 82 L81 103 Q80.19999694824219 106.19999694824219 76.83999633789062 106.19999694824219 Q76 106.19999694824219 75 106 L63 85 Q64.5999984741211 81.80000305175781 67.4800033569336 81.80000305175781 ZM0 0 L0 200 L200 200 L200 0 Z" />
      </clipPath>
    </defs>
    <g font-size="6" text-rendering="optimizeLegibility" font-family="sans-serif" stroke-linejoin="bevel" shape-rendering="geometricPrecision" stroke-width="0.9462776780128479">
      <line clip-path="url(#clipPath1)" fill="none" x1="74.96019289979483" x2="63.082381375716196" y1="93.31275907728586" y2="72.73977668127745" />
      <line clip-path="url(#clipPath1)" fill="none" x1="71.67029482124875" x2="61.437431872141396" y1="93.31275874262022" y2="75.58891214966948" />
      <line clip-path="url(#clipPath1)" fill="none" x1="63.082381375716196" x2="39.32675832755893" y1="72.73977668127745" y2="72.73977668127745" />
      <line clip-path="url(#clipPath1)" fill="none" x1="39.32675832755893" x2="27.44894680348029" y1="72.73977668127745" y2="93.31275907728586" />
      <line clip-path="url(#clipPath1)" fill="none" x1="40.97170783113373" x2="30.738844882026374" y1="75.58891214966948" y2="93.31275874262022" />
      <line clip-path="url(#clipPath2)" fill="none" x1="27.44894680348029" x2="39.32675832755893" y1="93.31275907728586" y2="113.88573180710651" />
      <line clip-path="url(#clipPath1)" fill="none" x1="39.32675832755893" x2="63.082381375716196" y1="113.88573180710651" y2="113.88573180710651" />
      <line clip-path="url(#clipPath1)" fill="none" x1="40.971707444695106" x2="61.43743225858002" y1="111.03659633871447" y2="111.03659633871447" />
      <line clip-path="url(#clipPath3)" fill="none" x1="63.082381375716196" x2="74.96019289979483" y1="113.88573180710651" y2="93.31275907728586" />
      <line clip-path="url(#clipPath1)" fill="none" x1="27.44894680348029" x2="18.04600901355457" y1="93.31275907728586" y2="93.31275907728586" />
      <line clip-path="url(#clipPath1)" fill="none" x1="18.04600901355457" x2="8.643071223628851" y1="93.31275907728586" y2="93.31275907728586" stroke="rgb(0,153,0)" />
      <line clip-path="url(#clipPath1)" fill="none" x1="74.96019289979483" x2="84.36313552281443" y1="93.31275907728586" y2="93.31275907728586" />
      <line clip-path="url(#clipPath1)" fill="none" x1="84.36313552281443" x2="93.76607814583403" y1="93.31275907728586" y2="93.31275907728586" stroke="rgb(51,51,153)" />
      <line clip-path="url(#clipPath1)" fill="none" x1="103.66557308244569" x2="113.0685108723714" y1="93.31275907728586" y2="93.31275907728586" stroke="rgb(51,51,153)" />
      <line clip-path="url(#clipPath1)" fill="none" x1="113.0685108723714" x2="122.47144866229712" y1="93.31275907728586" y2="93.31275907728586" />
      <line clip-path="url(#clipPath1)" fill="none" x1="121.04688092810112" x2="121.04688092810112" y1="93.31275907728586" y2="83.90982128736015" />
      <line clip-path="url(#clipPath1)" fill="none" x1="123.89601639649315" x2="123.89601639649315" y1="93.31275907728586" y2="83.90982128736015" />
      <line clip-path="url(#clipPath1)" fill="none" x1="121.04688092810112" x2="121.04688092810112" y1="83.90982128736015" y2="74.50688349743443" stroke="rgb(51,51,153)" />
      <line clip-path="url(#clipPath1)" fill="none" x1="123.89601639649315" x2="123.89601639649315" y1="83.90982128736015" y2="74.50688349743443" stroke="rgb(51,51,153)" />
      <line clip-path="url(#clipPath1)" fill="none" x1="122.47144866229714" x2="131.87438645222284" y1="93.31275907728586" y2="93.31275907728586" />
      <line clip-path="url(#clipPath1)" fill="none" x1="131.87438645222284" x2="141.27732424214855" y1="93.31275907728586" y2="93.31275907728586" stroke="rgb(51,51,153)" />
      <line clip-path="url(#clipPath1)" fill="none" x1="151.17681917876024" x2="160.57975696868596" y1="93.31275907728586" y2="93.31275907728586" stroke="rgb(51,51,153)" />
      <line clip-path="url(#clipPath1)" fill="none" x1="160.57975696868596" x2="169.98269475861167" y1="93.31275907728586" y2="93.31275907728586" />
      <line clip-path="url(#clipPath1)" fill="none" x1="168.55812702441565" x2="168.55812702441565" y1="93.31275907728586" y2="83.90982128736015" />
      <line clip-path="url(#clipPath1)" fill="none" x1="171.4072624928077" x2="171.4072624928077" y1="93.31275907728586" y2="83.90982128736015" />
      <line clip-path="url(#clipPath1)" fill="none" x1="168.55812702441565" x2="168.55812702441565" y1="83.90982128736015" y2="74.50688349743443" stroke="rgb(51,51,153)" />
      <line clip-path="url(#clipPath1)" fill="none" x1="171.4072624928077" x2="171.4072624928077" y1="83.90982128736015" y2="74.50688349743443" stroke="rgb(51,51,153)" />
      <line clip-path="url(#clipPath1)" fill="none" x1="169.98269475861167" x2="193.73831780676892" y1="93.31275907728586" y2="93.31275907728586" />
      <line clip-path="url(#clipPath1)" fill="none" x1="193.73831780676892" x2="185.19959362889568" y1="93.31275907728586" y2="100.05353848719153" />
      <line clip-path="url(#clipPath1)" fill="none" x1="186.2502336242269" x2="197.09810276367477" y1="103.49341711906898" y2="104.31296136572075" />
      <line clip-path="url(#clipPath1)" fill="none" x1="197.09810276367477" x2="173.34247971551753" y1="104.31296136572075" y2="104.31296136572075" />
      <line clip-path="url(#clipPath1)" fill="none" x1="174.76704744971354" x2="174.76704744971354" y1="104.31296136572075" y2="113.71589915564647" />
      <line clip-path="url(#clipPath1)" fill="none" x1="171.9179119813215" x2="171.9179119813215" y1="104.31296136572075" y2="113.71589915564647" />
      <line clip-path="url(#clipPath1)" fill="none" x1="174.76704744971354" x2="174.76704744971354" y1="113.71589915564647" y2="123.1188369455722" stroke="rgb(51,51,153)" />
      <line clip-path="url(#clipPath1)" fill="none" x1="171.9179119813215" x2="171.9179119813215" y1="113.71589915564647" y2="123.1188369455722" stroke="rgb(51,51,153)" />
      <line clip-path="url(#clipPath1)" fill="none" x1="173.34247971551753" x2="163.9395419255918" y1="104.31296136572075" y2="104.31296136572075" />
      <line clip-path="url(#clipPath1)" fill="none" x1="163.9395419255918" x2="154.5366041356661" y1="104.31296136572075" y2="104.31296136572075" stroke="rgb(51,51,153)" />
      <line clip-path="url(#clipPath1)" fill="none" x1="144.63710919905438" x2="135.2341714091287" y1="104.31296136572075" y2="104.31296136572075" stroke="rgb(51,51,153)" />
      <line clip-path="url(#clipPath1)" fill="none" x1="135.2341714091287" x2="125.831233619203" y1="104.31296136572075" y2="104.31296136572075" />
      <line clip-path="url(#clipPath1)" fill="none" x1="127.255801353399" x2="127.255801353399" y1="104.31296136572075" y2="113.71589915564647" />
      <line clip-path="url(#clipPath1)" fill="none" x1="124.40666588500696" x2="124.40666588500696" y1="104.31296136572075" y2="113.71589915564647" />
      <line clip-path="url(#clipPath1)" fill="none" x1="127.255801353399" x2="127.255801353399" y1="113.71589915564647" y2="123.1188369455722" stroke="rgb(51,51,153)" />
      <line clip-path="url(#clipPath1)" fill="none" x1="124.40666588500696" x2="124.40666588500696" y1="113.71589915564647" y2="123.1188369455722" stroke="rgb(51,51,153)" />
      <line clip-path="url(#clipPath1)" fill="none" x1="125.83123361920298" x2="116.42829582927726" y1="104.31296136572075" y2="104.31296136572075" />
      <line clip-path="url(#clipPath1)" fill="none" x1="116.42829582927726" x2="107.02535803935154" y1="104.31296136572075" y2="104.31296136572075" stroke="rgb(51,51,153)" />
      <line clip-path="url(#clipPath1)" fill="none" x1="97.12586310273987" x2="87.72292047972027" y1="104.31296136572075" y2="104.31296136572075" stroke="rgb(51,51,153)" />
      <line clip-path="url(#clipPath1)" fill="none" x1="87.72292047972027" x2="78.31997785670067" y1="104.31296136572075" y2="104.31296136572075" />
      <line clip-path="url(#clipPath1)" fill="none" x1="78.31997785670067" x2="66.44216633262204" y1="104.31296136572075" y2="83.7399886359001" />
      <line clip-path="url(#clipPath1)" fill="none" x1="75.0300795849353" x2="64.79721721548586" y1="104.31296136572075" y2="86.58912410429213" />
      <line clip-path="url(#clipPath1)" fill="none" x1="66.44216633262204" x2="42.68654328446477" y1="83.7399886359001" y2="83.7399886359001" />
      <line clip-path="url(#clipPath1)" fill="none" x1="42.68654328446477" x2="30.80873176038613" y1="83.7399886359001" y2="104.31296136572075" />
      <line clip-path="url(#clipPath1)" fill="none" x1="44.33149240160095" x2="34.098630032151505" y1="86.58912410429213" y2="104.31296136572075" />
      <line clip-path="url(#clipPath1)" fill="none" x1="30.80873176038613" x2="42.68654328446477" y1="104.31296136572075" y2="124.88593409554142" />
      <line clip-path="url(#clipPath1)" fill="none" x1="42.68654328446477" x2="66.44216633262204" y1="124.88593409554142" y2="124.88593409554142" />
      <line clip-path="url(#clipPath1)" fill="none" x1="44.33149240160095" x2="64.79721721548586" y1="122.03679862714938" y2="122.03679862714938" />
      <line clip-path="url(#clipPath1)" fill="none" x1="66.44216633262204" x2="78.31997785670067" y1="124.88593409554142" y2="104.31296136572075" />
      <line clip-path="url(#clipPath1)" fill="none" x1="30.80873176038613" x2="21.405793970460422" y1="104.31296136572075" y2="104.31296136572075" />
      <line clip-path="url(#clipPath1)" fill="none" x1="21.405793970460422" x2="12.002856180534714" y1="104.31296136572075" y2="104.31296136572075" stroke="rgb(0,153,0)" />
    </g>
    <g font-size="5" fill="rgb(0,153,0)" text-rendering="optimizeLegibility" font-family="sans-serif" shape-rendering="geometricPrecision" stroke="rgb(0,153,0)">
      <text xml:space="preserve" x="78" y="91" clip-path="url(#clipPath1)" stroke="none">
      </text>
      <text xml:space="preserve" x="67" y="72" clip-path="url(#clipPath1)" stroke="none">
      </text>
      <text xml:space="preserve" x="42" y="70" clip-path="url(#clipPath1)" stroke="none">
      </text>
      <text xml:space="preserve" x="31" y="93" clip-path="url(#clipPath1)" stroke="none">
      </text>
      <text xml:space="preserve" x="42" y="111" clip-path="url(#clipPath1)" stroke="none">
      </text>
      <text xml:space="preserve" x="66" y="111" clip-path="url(#clipPath1)" stroke="none">
      </text>
      <rect font-size="6" x="1" y="89" clip-path="url(#clipPath1)" fill="white" width="5" rx="1.5" ry="2.5" height="9" stroke="none" />
      <text font-size="6" x="1" y="96" clip-path="url(#clipPath1)" stroke="none" xml:space="preserve">Cl
      </text>
      <rect font-size="6" x="97" y="89" clip-path="url(#clipPath1)" fill="white" width="4" rx="1.5" ry="2.5" height="9" stroke="none" />
      <rect font-size="6" x="97" y="96" clip-path="url(#clipPath1)" fill="white" width="4" rx="1.5" ry="2.5" height="9" stroke="none" />
      <text font-size="6" x="97" y="96" clip-path="url(#clipPath1)" fill="rgb(51,51,153)" stroke="none" xml:space="preserve">N
      </text>
      <text font-size="6" x="97" y="103" clip-path="url(#clipPath1)" fill="rgb(51,51,153)" stroke="none" xml:space="preserve">H
      </text>
      <text x="125" y="91" clip-path="url(#clipPath1)" fill="rgb(51,51,153)" stroke="none" xml:space="preserve">
      </text>
      <rect font-size="6" x="120" y="65" clip-path="url(#clipPath1)" fill="white" width="8" rx="3" ry="2.5" height="9" stroke="none" />
      <text font-size="6" x="120" y="72" clip-path="url(#clipPath1)" fill="rgb(51,51,153)" stroke="none" xml:space="preserve">NH
      </text>
      <rect font-size="6" x="144" y="89" clip-path="url(#clipPath1)" fill="white" width="4" rx="1.5" ry="2.5" height="9" stroke="none" />
      <rect font-size="6" x="144" y="96" clip-path="url(#clipPath1)" fill="white" width="4" rx="1.5" ry="2.5" height="9" stroke="none" />
      <text font-size="6" x="144" y="96" clip-path="url(#clipPath1)" fill="rgb(51,51,153)" stroke="none" xml:space="preserve">N
      </text>
      <text font-size="6" x="144" y="103" clip-path="url(#clipPath1)" fill="rgb(51,51,153)" stroke="none" xml:space="preserve">H
      </text>
      <text x="173" y="91" clip-path="url(#clipPath1)" fill="rgb(51,51,153)" stroke="none" xml:space="preserve">
      </text>
      <rect font-size="6" x="168" y="65" clip-path="url(#clipPath1)" fill="white" width="8" rx="3" ry="2.5" height="9" stroke="none" />
      <text font-size="6" x="168" y="72" clip-path="url(#clipPath1)" fill="rgb(51,51,153)" stroke="none" xml:space="preserve">NH
      </text>
      <text x="196" y="91" clip-path="url(#clipPath1)" fill="rgb(51,51,153)" stroke="none" xml:space="preserve">
      </text>
      <rect font-size="6" x="172" y="99" clip-path="url(#clipPath1)" fill="white" width="11" rx="3.5" ry="3" height="11" stroke="none" />
      <rect font-size="6" x="182" y="103" clip-path="url(#clipPath1)" fill="white" width="3" rx="1" ry="1.5" height="6" stroke="none" />
      <rect font-size="6" x="185" y="99" clip-path="url(#clipPath1)" fill="white" width="2" rx="0.5" ry="3" height="11" stroke="none" />
      <rect font-size="6" x="187" y="103" clip-path="url(#clipPath1)" fill="white" width="3" rx="1" ry="1.5" height="6" stroke="none" />
      <text font-size="6" x="172" y="106" clip-path="url(#clipPath1)" fill="black" stroke="none" xml:space="preserve">(CH
      </text>
      <text x="182" y="108" clip-path="url(#clipPath1)" fill="black" stroke="none" xml:space="preserve">2
      </text>
      <text font-size="6" x="185" y="106" clip-path="url(#clipPath1)" fill="black" stroke="none" xml:space="preserve">)
      </text>
      <text x="187" y="108" clip-path="url(#clipPath1)" fill="black" stroke="none" xml:space="preserve">5
      </text>
      <text x="200" y="102" clip-path="url(#clipPath1)" fill="black" stroke="none" xml:space="preserve">
      </text>
      <text x="176" y="102" clip-path="url(#clipPath1)" fill="black" stroke="none" xml:space="preserve">
      </text>
      <rect x="171" y="124" clip-path="url(#clipPath1)" fill="white" width="8" rx="3" ry="2.5" height="9" stroke="none" />
      <text font-size="6" x="171" y="131" clip-path="url(#clipPath1)" fill="rgb(51,51,153)" stroke="none" xml:space="preserve">NH
      </text>
      <rect font-size="6" x="148" y="100" clip-path="url(#clipPath1)" fill="white" width="4" rx="1.5" ry="2.5" height="9" stroke="none" />
      <rect font-size="6" x="148" y="107" clip-path="url(#clipPath1)" fill="white" width="4" rx="1.5" ry="2.5" height="9" stroke="none" />
      <text font-size="6" x="148" y="107" clip-path="url(#clipPath1)" fill="rgb(51,51,153)" stroke="none" xml:space="preserve">N
      </text>
      <text font-size="6" x="148" y="114" clip-path="url(#clipPath1)" fill="rgb(51,51,153)" stroke="none" xml:space="preserve">H
      </text>
      <text x="129" y="102" clip-path="url(#clipPath1)" fill="rgb(51,51,153)" stroke="none" xml:space="preserve">
      </text>
      <rect font-size="6" x="124" y="124" clip-path="url(#clipPath1)" fill="white" width="8" rx="3" ry="2.5" height="9" stroke="none" />
      <text font-size="6" x="124" y="131" clip-path="url(#clipPath1)" fill="rgb(51,51,153)" stroke="none" xml:space="preserve">NH
      </text>
      <rect font-size="6" x="100" y="100" clip-path="url(#clipPath1)" fill="white" width="4" rx="1.5" ry="2.5" height="9" stroke="none" />
      <rect font-size="6" x="100" y="107" clip-path="url(#clipPath1)" fill="white" width="4" rx="1.5" ry="2.5" height="9" stroke="none" />
      <text font-size="6" x="100" y="107" clip-path="url(#clipPath1)" fill="rgb(51,51,153)" stroke="none" xml:space="preserve">N
      </text>
      <text font-size="6" x="100" y="114" clip-path="url(#clipPath1)" fill="rgb(51,51,153)" stroke="none" xml:space="preserve">H
      </text>
      <text x="81" y="102" clip-path="url(#clipPath1)" fill="rgb(51,51,153)" stroke="none" xml:space="preserve">
      </text>
      <text x="70" y="83" clip-path="url(#clipPath1)" fill="rgb(51,51,153)" stroke="none" xml:space="preserve">
      </text>
      <text x="45" y="81" clip-path="url(#clipPath1)" fill="rgb(51,51,153)" stroke="none" xml:space="preserve">
      </text>
      <text x="35" y="104" clip-path="url(#clipPath1)" fill="rgb(51,51,153)" stroke="none" xml:space="preserve">
      </text>
      <text x="45" y="122" clip-path="url(#clipPath1)" fill="rgb(51,51,153)" stroke="none" xml:space="preserve">
      </text>
      <text x="69" y="122" clip-path="url(#clipPath1)" fill="rgb(51,51,153)" stroke="none" xml:space="preserve">
      </text>
      <rect font-size="6" x="5" y="100" clip-path="url(#clipPath1)" fill="white" width="5" rx="1.5" ry="2.5" height="9" stroke="none" />
      <text font-size="6" x="5" y="107" clip-path="url(#clipPath1)" stroke="none" xml:space="preserve">Cl
      </text>
    </g>
  </g>
</svg>
