<?xml version="1.0"?>

<!DOCTYPE svg PUBLIC '-//W3C//DTD SVG 1.0//EN' 'http://www.w3.org/TR/2001/REC-SVG-20010904/DTD/svg10.dtd'>
<svg fill-opacity="1" xmlns:xlink="http://www.w3.org/1999/xlink" color-rendering="auto" color-interpolation="auto" stroke="black" text-rendering="auto" stroke-linecap="square" width="200" stroke-miterlimit="10" stroke-opacity="1" shape-rendering="auto" fill="black" stroke-dasharray="none" font-weight="normal" stroke-width="1" height="200" xmlns="http://www.w3.org/2000/svg" font-family="&apos;Dialog&apos;" font-style="normal" stroke-linejoin="miter" font-size="12" stroke-dashoffset="0" image-rendering="auto">
  <!--Generated by Marvin with Batik SVG Generator-->
  <defs id="genericDefs" />
  <g>
    <defs id="defs1">
      <clipPath clipPathUnits="userSpaceOnUse" id="clipPath1">
        <path d="M0 0 L200 0 L200 200 L0 200 L0 0 Z" />
      </clipPath>
      <clipPath clipPathUnits="userSpaceOnUse" id="clipPath2">
        <path d="M34 49 Q35 49 36 50 L36 101 Q35 101.5 34 101.5 Q33 101.5 32 101 L32 50 Q33 49 34 49 ZM0 0 L0 200 L200 200 L200 0 Z" />
      </clipPath>
    </defs>
    <g font-size="7" text-rendering="optimizeLegibility" font-family="sans-serif" stroke-linejoin="bevel" shape-rendering="geometricPrecision" stroke-width="1.0169196128845215">
      <line clip-path="url(#clipPath1)" fill="none" x1="34.12751219213833" x2="10.092315066092922" y1="100.51675142896005" y2="109.95750819612839" />
      <line clip-path="url(#clipPath1)" fill="none" x1="10.092315066092922" x2="21.129354347499344" y1="109.95750819612839" y2="86.60643515031762" />
      <line clip-path="url(#clipPath2)" fill="none" x1="21.129354347499344" x2="44.799689150889805" y1="86.60643515031762" y2="76.29913102368529" />
      <line clip-path="url(#clipPath1)" fill="none" x1="34.12751219213833" x2="34.12751219213833" y1="100.51675142896005" y2="77.49698662854588" />
      <line clip-path="url(#clipPath1)" fill="none" x1="34.12751219213833" x2="34.12751219213833" y1="77.49698662854588" y2="54.47722182813172" stroke="rgb(51,51,153)" />
      <line clip-path="url(#clipPath1)" fill="none" x1="44.799689150889805" x2="40.38004411111506" y1="76.29913102368529" y2="65.21224406160657" />
      <line clip-path="url(#clipPath1)" fill="none" x1="40.38004411111506" x2="35.96039907134032" y1="65.21224406160657" y2="54.12535709952785" stroke="rgb(51,51,153)" />
      <line clip-path="url(#clipPath1)" fill="none" x1="44.799689150889805" x2="68.51561926462342" y1="76.29913102368529" y2="86.51521300123878" />
      <line clip-path="url(#clipPath1)" fill="none" x1="34.12751219213833" x2="58.253915703066326" y1="100.51675142896005" y2="109.72946333289545" />
      <line clip-path="url(#clipPath1)" fill="none" x1="68.51561926462342" x2="82.42593554326584" y1="86.51521300123878" y2="128.7478311097788" />
      <line clip-path="url(#clipPath1)" fill="none" x1="58.253915703066326" x2="82.42593554326584" y1="109.72946333289545" y2="128.7478311097788" />
      <line clip-path="url(#clipPath1)" fill="none" x1="29.840905410308995" x2="22.94363730458071" y1="47.052600161412016" y2="43.07045956788521" stroke="rgb(51,51,153)" />
      <line clip-path="url(#clipPath1)" fill="none" x1="22.94363730458071" x2="16.046369198852428" y1="43.07045956788521" y2="39.0883189743584" />
      <line clip-path="url(#clipPath1)" fill="none" x1="68.51561926462342" x2="86.77881898341806" y1="86.51521300123878" y2="68.25203430137249" />
      <line clip-path="url(#clipPath1)" fill="none" x1="86.77881898341806" x2="97.21797483314651" y1="68.25203430137249" y2="68.25203430137249" />
      <line clip-path="url(#clipPath1)" fill="none" x1="97.21797483314651" x2="107.65713068287496" y1="68.25203430137249" y2="68.25203430137249" stroke="red" />
      <line clip-path="url(#clipPath1)" fill="none" x1="115.08175060537029" x2="119.06389294312149" y1="63.96542651251495" y2="57.06814890435069" stroke="red" />
      <line clip-path="url(#clipPath1)" fill="none" x1="119.06389294312149" x2="123.04603528087269" y1="57.06814890435069" y2="50.170871296186434" />
      <line clip-path="url(#clipPath1)" fill="none" x1="85.28274774134192" x2="82.58089805015966" y1="68.65290474980915" y2="58.56944851312755" />
      <line clip-path="url(#clipPath1)" fill="none" x1="88.2748902254942" x2="85.57304053431194" y1="67.85116385293583" y2="57.76770761625422" />
      <line clip-path="url(#clipPath1)" fill="none" x1="82.58089805015966" x2="79.8790483589774" y1="58.56944851312755" y2="48.48599227644594" stroke="red" />
      <line clip-path="url(#clipPath1)" fill="none" x1="85.57304053431194" x2="82.87119084312968" y1="57.76770761625422" y2="47.684251379572615" stroke="red" />
      <line clip-path="url(#clipPath1)" fill="none" x1="89.51561926462342" x2="89.51561926462342" y1="84.54623318412202" y2="88.48419281835554" />
      <line clip-path="url(#clipPath1)" fill="none" x1="86.51561926462342" x2="86.51561926462342" y1="84.8275160151387" y2="88.20290998733886" />
      <line clip-path="url(#clipPath1)" fill="none" x1="83.51561926462342" x2="83.51561926462342" y1="85.10879884615538" y2="87.92162715632217" />
      <line clip-path="url(#clipPath1)" fill="none" x1="80.51561926462342" x2="80.51561926462342" y1="85.39008167717206" y2="87.64034432530549" />
      <line clip-path="url(#clipPath1)" fill="none" x1="77.51561926462342" x2="77.51561926462342" y1="85.67136450818873" y2="87.35906149428882" />
      <line clip-path="url(#clipPath1)" fill="none" x1="74.51561926462342" x2="74.51561926462342" y1="85.95264733920541" y2="87.07777866327214" />
      <line clip-path="url(#clipPath1)" fill="none" x1="71.51561926462342" x2="71.51561926462342" y1="86.2339301702221" y2="86.79649583225546" />
      <line clip-path="url(#clipPath1)" fill="none" x1="68.51561926462342" x2="68.51561926462342" y1="86.51521300123878" y2="86.51521300123878" />
      <line clip-path="url(#clipPath1)" fill="none" x1="84.3949153603826" x2="80.45695572614908" y1="149.7478311097788" y2="149.7478311097788" />
      <line clip-path="url(#clipPath1)" fill="none" x1="84.11363252936592" x2="80.73823855716576" y1="146.7478311097788" y2="146.7478311097788" />
      <line clip-path="url(#clipPath1)" fill="none" x1="83.83234969834923" x2="81.01952138818244" y1="143.7478311097788" y2="143.7478311097788" />
      <line clip-path="url(#clipPath1)" fill="none" x1="83.55106686733257" x2="81.30080421919911" y1="140.7478311097788" y2="140.7478311097788" />
      <line clip-path="url(#clipPath1)" fill="none" x1="83.26978403631588" x2="81.58208705021579" y1="137.7478311097788" y2="137.7478311097788" />
      <line clip-path="url(#clipPath1)" fill="none" x1="82.9885012052992" x2="81.86336988123247" y1="134.7478311097788" y2="134.7478311097788" />
      <line clip-path="url(#clipPath1)" fill="none" x1="82.70721837428252" x2="82.14465271224915" y1="131.7478311097788" y2="131.7478311097788" />
      <line clip-path="url(#clipPath1)" fill="none" x1="82.42593554326584" x2="82.42593554326584" y1="128.7478311097788" y2="128.7478311097788" />
      <line clip-path="url(#clipPath1)" fill="none" x1="82.42593554326584" x2="92.50938399903626" y1="128.7478311097788" y2="126.04598179623183" />
      <line clip-path="url(#clipPath1)" fill="none" x1="92.50938399903626" x2="102.59283245480668" y1="126.04598179623183" y2="123.34413248268487" stroke="red" />
      <line clip-path="url(#clipPath1)" fill="none" x1="111.66052870475202" x2="120.7011027028824" y1="124.53791846303142" y2="129.7574963737933" stroke="red" />
      <line clip-path="url(#clipPath1)" fill="none" x1="120.7011027028824" x2="129.74167670101275" y1="129.7574963737933" y2="134.97707428455516" />
      <line clip-path="url(#clipPath1)" fill="none" x1="129.74167670101278" x2="152.10943173086008" y1="134.9770742845552" y2="122.06304470067383" />
      <line clip-path="url(#clipPath1)" fill="none" x1="131.2905234583768" x2="131.2905234583768" y1="134.9770742845552" y2="145.41623538901572" />
      <line clip-path="url(#clipPath1)" fill="none" x1="128.19282994364875" x2="128.19282994364875" y1="134.9770742845552" y2="145.41623538901572" />
      <line clip-path="url(#clipPath1)" fill="none" x1="131.2905234583768" x2="131.2905234583768" y1="145.41623538901572" y2="155.85539649347626" stroke="red" />
      <line clip-path="url(#clipPath1)" fill="none" x1="128.19282994364875" x2="128.19282994364875" y1="145.41623538901572" y2="155.85539649347626" stroke="red" />
      <line clip-path="url(#clipPath1)" fill="none" x1="152.10943173086008" x2="174.47718676070744" y1="122.06304470067383" y2="134.9770742845552" />
      <line clip-path="url(#clipPath1)" fill="none" x1="155.20712524558812" x2="174.47718676070744" y1="120.2745905296666" y2="131.40016590177683" />
      <line clip-path="url(#clipPath1)" fill="none" x1="174.47718676070744" x2="196.84494179055477" y1="134.9770742845552" y2="122.06304470067383" />
      <line clip-path="url(#clipPath1)" fill="none" x1="196.84494179055477" x2="196.84494179055477" y1="122.06304470067383" y2="96.2349855329111" />
      <line clip-path="url(#clipPath1)" fill="none" x1="193.74724827582673" x2="193.74724827582673" y1="120.2745905296666" y2="98.02343970391831" />
      <line clip-path="url(#clipPath1)" fill="none" x1="196.84494179055477" x2="174.47718676070744" y1="96.2349855329111" y2="83.32095594902972" />
      <line clip-path="url(#clipPath1)" fill="none" x1="174.47718676070744" x2="152.10943173086008" y1="83.32095594902972" y2="96.2349855329111" />
      <line clip-path="url(#clipPath1)" fill="none" x1="174.47718676070744" x2="155.20712524558812" y1="86.89786433180808" y2="98.02343970391833" />
      <line clip-path="url(#clipPath1)" fill="none" x1="152.10943173086008" x2="152.10943173086008" y1="96.2349855329111" y2="122.06304470067383" />
      <text font-size="5" x="35" y="97" clip-path="url(#clipPath1)" stroke-linejoin="miter" stroke="none" stroke-width="1" xml:space="preserve">
      </text>
      <text font-size="5" x="13" y="107" clip-path="url(#clipPath1)" stroke-linejoin="miter" stroke="none" stroke-width="1" xml:space="preserve">
      </text>
      <text font-size="5" x="24" y="84" clip-path="url(#clipPath1)" stroke-linejoin="miter" stroke="none" stroke-width="1" xml:space="preserve">
      </text>
      <text font-size="5" x="46" y="72" clip-path="url(#clipPath1)" stroke-linejoin="miter" stroke="none" stroke-width="1" xml:space="preserve">
      </text>
    </g>
    <g font-size="7" fill="white" text-rendering="optimizeLegibility" font-family="sans-serif" shape-rendering="geometricPrecision" stroke="white">
      <rect x="32" y="45" clip-path="url(#clipPath1)" width="5" rx="1.5" ry="2.5" height="9" stroke="none" />
      <text x="32" y="52" clip-path="url(#clipPath1)" fill="rgb(51,51,153)" stroke="none" xml:space="preserve">N
      </text>
      <text font-size="5" x="72" y="85" clip-path="url(#clipPath1)" fill="rgb(51,51,153)" stroke="none" xml:space="preserve">
      </text>
      <text font-size="5" x="58" y="106" clip-path="url(#clipPath1)" fill="rgb(51,51,153)" stroke="none" xml:space="preserve">
      </text>
      <text font-size="5" x="85" y="126" clip-path="url(#clipPath1)" fill="rgb(51,51,153)" stroke="none" xml:space="preserve">
      </text>
      <rect x="1" y="32" clip-path="url(#clipPath1)" width="5" rx="1.5" ry="2.5" height="9" stroke="none" />
      <rect x="6" y="36" clip-path="url(#clipPath1)" width="3" rx="1" ry="2" height="7" stroke="none" />
      <rect x="9" y="32" clip-path="url(#clipPath1)" width="5" rx="1.5" ry="2.5" height="9" stroke="none" />
      <text x="1" y="39" clip-path="url(#clipPath1)" fill="black" stroke="none" xml:space="preserve">H
      </text>
      <text font-size="5" x="6" y="42" clip-path="url(#clipPath1)" fill="black" stroke="none" xml:space="preserve">3
      </text>
      <text x="9" y="39" clip-path="url(#clipPath1)" fill="black" stroke="none" xml:space="preserve">C
      </text>
      <text font-size="5" x="90" y="65" clip-path="url(#clipPath1)" fill="black" stroke="none" xml:space="preserve">
      </text>
      <rect x="110" y="64" clip-path="url(#clipPath1)" width="5" rx="1.5" ry="2.5" height="9" stroke="none" />
      <text x="110" y="71" clip-path="url(#clipPath1)" fill="red" stroke="none" xml:space="preserve">O
      </text>
      <rect x="123" y="42" clip-path="url(#clipPath1)" width="11" rx="3.5" ry="2.5" height="9" stroke="none" />
      <rect x="133" y="46" clip-path="url(#clipPath1)" width="3" rx="1" ry="2" height="7" stroke="none" />
      <text x="123" y="49" clip-path="url(#clipPath1)" fill="black" stroke="none" xml:space="preserve">CH
      </text>
      <text font-size="5" x="133" y="52" clip-path="url(#clipPath1)" fill="black" stroke="none" xml:space="preserve">3
      </text>
      <rect font-size="5" x="78" y="39" clip-path="url(#clipPath1)" width="5" rx="1.5" ry="2.5" height="9" stroke="none" />
      <text x="78" y="46" clip-path="url(#clipPath1)" fill="red" stroke="none" xml:space="preserve">O
      </text>
      <rect x="92" y="82" clip-path="url(#clipPath1)" width="5" rx="1.5" ry="2.5" height="9" stroke="none" />
      <text x="92" y="89" clip-path="url(#clipPath1)" fill="rgb(51,51,51)" stroke="none" xml:space="preserve">H
      </text>
      <rect x="80" y="150" clip-path="url(#clipPath1)" width="5" rx="1.5" ry="2.5" height="9" stroke="none" />
      <text x="80" y="157" clip-path="url(#clipPath1)" fill="rgb(51,51,51)" stroke="none" xml:space="preserve">H
      </text>
      <rect x="105" y="118" clip-path="url(#clipPath1)" width="5" rx="1.5" ry="2.5" height="9" stroke="none" />
      <text x="105" y="125" clip-path="url(#clipPath1)" fill="red" stroke="none" xml:space="preserve">O
      </text>
      <text font-size="5" x="133" y="132" clip-path="url(#clipPath1)" fill="red" stroke="none" xml:space="preserve">
      </text>
      <text font-size="5" x="152" y="118" clip-path="url(#clipPath1)" fill="red" stroke="none" xml:space="preserve">
      </text>
      <rect x="127" y="157" clip-path="url(#clipPath1)" width="5" rx="1.5" ry="2.5" height="9" stroke="none" />
      <text x="127" y="164" clip-path="url(#clipPath1)" fill="red" stroke="none" xml:space="preserve">O
      </text>
      <text font-size="5" x="177" y="132" clip-path="url(#clipPath1)" fill="red" stroke="none" xml:space="preserve">
      </text>
      <text font-size="5" x="200" y="119" clip-path="url(#clipPath1)" fill="red" stroke="none" xml:space="preserve">
      </text>
      <text font-size="5" x="200" y="93" clip-path="url(#clipPath1)" fill="red" stroke="none" xml:space="preserve">
      </text>
      <text font-size="5" x="175" y="79" clip-path="url(#clipPath1)" fill="red" stroke="none" xml:space="preserve">
      </text>
      <text font-size="5" x="155" y="93" clip-path="url(#clipPath1)" fill="red" stroke="none" xml:space="preserve">
      </text>
    </g>
  </g>
</svg>
