<?xml version="1.0"?>

<!DOCTYPE svg PUBLIC '-//W3C//DTD SVG 1.0//EN' 'http://www.w3.org/TR/2001/REC-SVG-20010904/DTD/svg10.dtd'>
<svg fill-opacity="1" xmlns:xlink="http://www.w3.org/1999/xlink" color-rendering="auto" color-interpolation="auto" stroke="black" text-rendering="auto" stroke-linecap="square" width="200" stroke-miterlimit="10" stroke-opacity="1" shape-rendering="auto" fill="black" stroke-dasharray="none" font-weight="normal" stroke-width="1" height="200" xmlns="http://www.w3.org/2000/svg" font-family="&apos;Dialog&apos;" font-style="normal" stroke-linejoin="miter" font-size="12" stroke-dashoffset="0" image-rendering="auto">
  <!--Generated by Marvin with Batik SVG Generator-->
  <defs id="genericDefs" />
  <g>
    <defs id="defs1">
      <clipPath clipPathUnits="userSpaceOnUse" id="clipPath1">
        <path d="M0 0 L200 0 L200 200 L0 200 L0 0 Z" />
      </clipPath>
      <clipPath clipPathUnits="userSpaceOnUse" id="clipPath2">
        <path d="M34.25 29 Q35 29 36 30 L45 77 Q44 78 43 78 Q42 78 41 77 L33 30 Q33.5 29 34.25 29 ZM0 0 L0 200 L200 200 L200 0 Z" />
      </clipPath>
    </defs>
    <g font-size="6" text-rendering="optimizeLegibility" font-family="sans-serif" stroke-linejoin="bevel" shape-rendering="geometricPrecision" stroke-width="0.9589966535568237">
      <line clip-path="url(#clipPath1)" fill="none" x1="42.94890718016346" x2="22.3660331895767" y1="77.01808945972554" y2="89.75140533210502" />
      <line clip-path="url(#clipPath1)" fill="none" x1="22.3660331895767" x2="28.631518925150665" y1="89.75140533210502" y2="66.3682353407143" />
      <line clip-path="url(#clipPath2)" fill="none" x1="28.631518925150665" x2="48.73272419429735" y1="66.3682353407143" y2="52.89694652529775" />
      <line clip-path="url(#clipPath1)" fill="none" x1="42.94890718016346" x2="39.11955372120326" y1="77.01808945972554" y2="55.942497441906475" />
      <line clip-path="url(#clipPath1)" fill="none" x1="39.11955372120326" x2="35.29020026224306" y1="55.942497441906475" y2="34.866905424087406" stroke="rgb(51,51,153)" />
      <line clip-path="url(#clipPath1)" fill="none" x1="48.73272419429735" x2="42.88168992685618" y1="52.89694652529775" y2="43.54499678504553" />
      <line clip-path="url(#clipPath1)" fill="none" x1="42.88168992685618" x2="37.03065565941502" y1="43.54499678504553" y2="34.1930470447933" stroke="rgb(51,51,153)" />
      <line clip-path="url(#clipPath1)" fill="none" x1="48.73272419429735" x2="72.31484024116826" y1="52.89694652529775" y2="58.34425835810205" />
      <line clip-path="url(#clipPath1)" fill="none" x1="42.94890718016346" x2="66.74139560446122" y1="77.01808945972554" y2="81.47134083400168" />
      <line clip-path="url(#clipPath1)" fill="none" x1="72.31484024116826" x2="92.21894145673478" y1="58.34425835810205" y2="94.95948347428957" />
      <line clip-path="url(#clipPath1)" fill="none" x1="66.74139560446122" x2="92.21894145673478" y1="81.47134083400168" y2="94.95948347428957" />
      <line clip-path="url(#clipPath1)" fill="none" x1="29.624248488848558" x2="22.7137455241777" y1="31.277980272885944" y2="33.129641039071274" stroke="rgb(51,51,153)" />
      <line clip-path="url(#clipPath1)" fill="none" x1="22.7137455241777" x2="15.803242559506842" y1="33.129641039071274" y2="34.98130180525661" />
      <line clip-path="url(#clipPath1)" fill="none" x1="92.21894145673478" x2="92.21894145673478" y1="94.95948347428957" y2="104.58863078158053" />
      <line clip-path="url(#clipPath1)" fill="none" x1="92.21894145673478" x2="92.21894145673478" y1="104.58863078158053" y2="114.2177780888715" stroke="red" />
      <line clip-path="url(#clipPath1)" fill="none" x1="96.50554849032137" x2="104.84463452407772" y1="121.64239931953492" y2="126.45697295907806" stroke="red" />
      <line clip-path="url(#clipPath1)" fill="none" x1="104.84463452407772" x2="113.18372055783406" y1="126.45697295907806" y2="131.2715465986212" />
      <line clip-path="url(#clipPath1)" fill="none" x1="114.63541877637508" x2="114.63541877637508" y1="131.2715465986212" y2="140.90069390591214" />
      <line clip-path="url(#clipPath1)" fill="none" x1="111.73202233929308" x2="111.73202233929308" y1="131.2715465986212" y2="140.90069390591214" />
      <line clip-path="url(#clipPath1)" fill="none" x1="114.63541877637508" x2="114.63541877637508" y1="140.90069390591214" y2="150.5298412132031" stroke="red" />
      <line clip-path="url(#clipPath1)" fill="none" x1="111.73202233929308" x2="111.73202233929308" y1="140.90069390591214" y2="150.5298412132031" stroke="red" />
      <line clip-path="url(#clipPath1)" fill="none" x1="113.18372055783408" x2="134.1484996589334" y1="131.2715465986212" y2="119.16752555717733" />
      <line clip-path="url(#clipPath1)" fill="none" x1="134.1484996589334" x2="134.1484996589334" y1="119.16752555717733" y2="109.53837824988636" />
      <line clip-path="url(#clipPath1)" fill="none" x1="134.1484996589334" x2="134.1484996589334" y1="109.53837824988636" y2="99.9092309425954" stroke="red" />
      <line clip-path="url(#clipPath1)" fill="none" x1="134.1484996589334" x2="155.1132787600327" y1="119.16752555717733" y2="131.2715465986212" />
      <line clip-path="url(#clipPath1)" fill="none" x1="155.1132787600327" x2="155.1132787600327" y1="131.2715465986212" y2="155.47958868150894" />
      <line clip-path="url(#clipPath1)" fill="none" x1="158.0166751971147" x2="158.0166751971147" y1="132.947823300399" y2="153.80331197973115" />
      <line clip-path="url(#clipPath1)" fill="none" x1="155.1132787600327" x2="176.078057861132" y1="155.47958868150894" y2="167.58360972295281" />
      <line clip-path="url(#clipPath1)" fill="none" x1="176.078057861132" x2="197.04283696223132" y1="167.58360972295281" y2="155.47958868150894" />
      <line clip-path="url(#clipPath1)" fill="none" x1="176.078057861132" x2="194.13944052514935" y1="164.23105628119015" y2="153.80331197973115" />
      <line clip-path="url(#clipPath1)" fill="none" x1="197.04283696223132" x2="197.04283696223132" y1="155.47958868150894" y2="131.2715465986212" />
      <line clip-path="url(#clipPath1)" fill="none" x1="197.04283696223132" x2="176.078057861132" y1="131.2715465986212" y2="119.16752555717733" />
      <line clip-path="url(#clipPath1)" fill="none" x1="194.13944052514935" x2="176.078057861132" y1="132.947823300399" y2="122.52007899893998" />
      <line clip-path="url(#clipPath1)" fill="none" x1="176.078057861132" x2="155.1132787600327" y1="119.16752555717733" y2="131.2715465986212" />
      <text font-size="5" x="46" y="74" clip-path="url(#clipPath1)" stroke-linejoin="miter" stroke="none" stroke-width="1" xml:space="preserve">
      </text>
      <text font-size="5" x="25" y="87" clip-path="url(#clipPath1)" stroke-linejoin="miter" stroke="none" stroke-width="1" xml:space="preserve">
      </text>
      <text font-size="5" x="31" y="64" clip-path="url(#clipPath1)" stroke-linejoin="miter" stroke="none" stroke-width="1" xml:space="preserve">
      </text>
      <text font-size="5" x="50" y="49" clip-path="url(#clipPath1)" stroke-linejoin="miter" stroke="none" stroke-width="1" xml:space="preserve">
      </text>
    </g>
    <g font-size="6" fill="white" text-rendering="optimizeLegibility" font-family="sans-serif" shape-rendering="geometricPrecision" stroke="white">
      <rect x="32" y="26" clip-path="url(#clipPath1)" width="4" rx="1.5" ry="2.5" height="9" stroke="none" />
      <text x="32" y="33" clip-path="url(#clipPath1)" fill="rgb(51,51,153)" stroke="none" xml:space="preserve">N
      </text>
      <text font-size="5" x="76" y="58" clip-path="url(#clipPath1)" fill="rgb(51,51,153)" stroke="none" xml:space="preserve">
      </text>
      <text font-size="5" x="67" y="78" clip-path="url(#clipPath1)" fill="rgb(51,51,153)" stroke="none" xml:space="preserve">
      </text>
      <text font-size="5" x="95" y="92" clip-path="url(#clipPath1)" fill="rgb(51,51,153)" stroke="none" xml:space="preserve">
      </text>
      <rect x="2" y="32" clip-path="url(#clipPath1)" width="4" rx="1.5" ry="2.5" height="9" stroke="none" />
      <rect x="6" y="36" clip-path="url(#clipPath1)" width="3" rx="1" ry="1.5" height="6" stroke="none" />
      <rect x="9" y="32" clip-path="url(#clipPath1)" width="4" rx="1.5" ry="2.5" height="9" stroke="none" />
      <text x="2" y="39" clip-path="url(#clipPath1)" fill="black" stroke="none" xml:space="preserve">H
      </text>
      <text font-size="5" x="6" y="41" clip-path="url(#clipPath1)" fill="black" stroke="none" xml:space="preserve">3
      </text>
      <text x="9" y="39" clip-path="url(#clipPath1)" fill="black" stroke="none" xml:space="preserve">C
      </text>
      <rect x="90" y="115" clip-path="url(#clipPath1)" width="5" rx="1.5" ry="2.5" height="9" stroke="none" />
      <text x="90" y="122" clip-path="url(#clipPath1)" fill="red" stroke="none" xml:space="preserve">O
      </text>
      <text font-size="5" x="116" y="129" clip-path="url(#clipPath1)" fill="red" stroke="none" xml:space="preserve">
      </text>
      <rect x="111" y="151" clip-path="url(#clipPath1)" width="5" rx="1.5" ry="2.5" height="9" stroke="none" />
      <text x="111" y="158" clip-path="url(#clipPath1)" fill="red" stroke="none" xml:space="preserve">O
      </text>
      <text font-size="5" x="134" y="115" clip-path="url(#clipPath1)" fill="red" stroke="none" xml:space="preserve">
      </text>
      <rect x="132" y="91" clip-path="url(#clipPath1)" width="9" rx="3" ry="2.5" height="9" stroke="none" />
      <text x="132" y="98" clip-path="url(#clipPath1)" fill="red" stroke="none" xml:space="preserve">OH
      </text>
      <text font-size="5" x="158" y="129" clip-path="url(#clipPath1)" fill="red" stroke="none" xml:space="preserve">
      </text>
      <text font-size="5" x="155" y="152" clip-path="url(#clipPath1)" fill="red" stroke="none" xml:space="preserve">
      </text>
      <text font-size="5" x="179" y="165" clip-path="url(#clipPath1)" fill="red" stroke="none" xml:space="preserve">
      </text>
      <text font-size="5" x="200" y="153" clip-path="url(#clipPath1)" fill="red" stroke="none" xml:space="preserve">
      </text>
      <text font-size="5" x="200" y="129" clip-path="url(#clipPath1)" fill="red" stroke="none" xml:space="preserve">
      </text>
      <text font-size="5" x="176" y="115" clip-path="url(#clipPath1)" fill="red" stroke="none" xml:space="preserve">
      </text>
    </g>
  </g>
</svg>
