<?xml version="1.0"?>

<!DOCTYPE svg PUBLIC '-//W3C//DTD SVG 1.0//EN' 'http://www.w3.org/TR/2001/REC-SVG-20010904/DTD/svg10.dtd'>
<svg fill-opacity="1" xmlns:xlink="http://www.w3.org/1999/xlink" color-rendering="auto" color-interpolation="auto" stroke="black" text-rendering="auto" stroke-linecap="square" width="200" stroke-miterlimit="10" stroke-opacity="1" shape-rendering="auto" fill="black" stroke-dasharray="none" font-weight="normal" stroke-width="1" height="200" xmlns="http://www.w3.org/2000/svg" font-family="&apos;Dialog&apos;" font-style="normal" stroke-linejoin="miter" font-size="12" stroke-dashoffset="0" image-rendering="auto">
  <!--Generated by Marvin with Batik SVG Generator-->
  <defs id="genericDefs" />
  <g>
    <defs id="defs1">
      <clipPath clipPathUnits="userSpaceOnUse" id="clipPath1">
        <path d="M0 0 L200 0 L200 200 L0 200 L0 0 Z" />
      </clipPath>
    </defs>
    <g font-size="10" text-rendering="optimizeLegibility" font-family="sans-serif" stroke-linejoin="bevel" shape-rendering="geometricPrecision" stroke-width="1.5025595426559448">
      <line clip-path="url(#clipPath1)" fill="none" x1="24.111849130128057" x2="33.900600337614534" y1="92.44136699789534" y2="98.09290522844427" />
      <line clip-path="url(#clipPath1)" fill="none" x1="33.900600337614534" x2="43.68935154510101" y1="98.09290522844427" y2="103.74444345899319" stroke="rgb(51,51,153)" />
      <line clip-path="url(#clipPath1)" fill="none" x1="50.425448312165656" x2="50.425448312165656" y1="115.41170539289283" y2="126.71478194263389" stroke="rgb(51,51,153)" />
      <line clip-path="url(#clipPath1)" fill="none" x1="50.425448312165656" x2="50.425448312165656" y1="126.71478194263389" y2="138.01785849237496" />
      <line clip-path="url(#clipPath1)" fill="none" x1="57.16154587046674" x2="70.31835283004828" y1="103.7444448294552" y2="96.14836224325146" stroke="rgb(51,51,153)" />
      <line clip-path="url(#clipPath1)" fill="none" x1="70.31835283004828" x2="83.47515978962983" y1="96.14836224325146" y2="88.5522796570477" />
      <line clip-path="url(#clipPath1)" fill="none" x1="81.18664606376294" x2="81.18664606376294" y1="88.5522796570477" y2="73.36011581078061" />
      <line clip-path="url(#clipPath1)" fill="none" x1="85.76367351549672" x2="85.76367351549672" y1="88.5522796570477" y2="73.36011581078061" />
      <line clip-path="url(#clipPath1)" fill="none" x1="81.18664606376294" x2="81.18664606376294" y1="73.36011581078061" y2="58.16795196451353" stroke="rgb(51,51,153)" />
      <line clip-path="url(#clipPath1)" fill="none" x1="85.76367351549672" x2="85.76367351549672" y1="73.36011581078061" y2="58.16795196451353" stroke="rgb(51,51,153)" />
      <line clip-path="url(#clipPath1)" fill="none" x1="83.47515978962983" x2="96.63195938064862" y1="88.5522796570477" y2="96.14836155802044" />
      <line clip-path="url(#clipPath1)" fill="none" x1="96.63195938064862" x2="109.78875897166742" y1="96.14836155802044" y2="103.74444345899317" stroke="rgb(51,51,153)" />
      <line clip-path="url(#clipPath1)" fill="none" x1="123.26095250579671" x2="136.41775209681552" y1="103.74444345899317" y2="96.14836155802044" stroke="rgb(51,51,153)" />
      <line clip-path="url(#clipPath1)" fill="none" x1="136.41775209681552" x2="149.57455168783434" y1="96.14836155802044" y2="88.5522796570477" />
      <line clip-path="url(#clipPath1)" fill="none" x1="147.28603796196742" x2="147.28603796196742" y1="88.5522796570477" y2="73.36011581078061" />
      <line clip-path="url(#clipPath1)" fill="none" x1="151.8630654137012" x2="151.8630654137012" y1="88.5522796570477" y2="73.36011581078061" />
      <line clip-path="url(#clipPath1)" fill="none" x1="147.28603796196742" x2="147.28603796196742" y1="73.36011581078061" y2="58.16795196451353" stroke="rgb(51,51,153)" />
      <line clip-path="url(#clipPath1)" fill="none" x1="151.8630654137012" x2="151.8630654137012" y1="73.36011581078061" y2="58.16795196451353" stroke="rgb(51,51,153)" />
      <line clip-path="url(#clipPath1)" fill="none" x1="149.57455168783432" x2="162.73135127885314" y1="88.5522796570477" y2="96.14836155802044" />
      <line clip-path="url(#clipPath1)" fill="none" x1="162.73135127885314" x2="175.88815086987196" y1="96.14836155802044" y2="103.74444345899317" stroke="rgb(51,51,153)" />
    </g>
    <g font-size="10" fill="white" text-rendering="optimizeLegibility" font-family="sans-serif" shape-rendering="geometricPrecision" stroke="white">
      <rect x="3" y="82" clip-path="url(#clipPath1)" width="7" rx="2.5" ry="4" height="14" stroke="none" />
      <rect x="10" y="89" clip-path="url(#clipPath1)" width="4" rx="1.5" ry="3" height="10" stroke="none" />
      <rect x="14" y="82" clip-path="url(#clipPath1)" width="7" rx="2.5" ry="4" height="14" stroke="none" />
      <text x="3" y="93" clip-path="url(#clipPath1)" fill="black" stroke="none" xml:space="preserve">H
      </text>
      <text font-size="8" x="10" y="97" clip-path="url(#clipPath1)" fill="black" stroke="none" xml:space="preserve">3
      </text>
      <text x="14" y="93" clip-path="url(#clipPath1)" fill="black" stroke="none" xml:space="preserve">C
      </text>
      <rect x="47" y="101" clip-path="url(#clipPath1)" width="7" rx="2.5" ry="4" height="14" stroke="none" />
      <text x="47" y="112" clip-path="url(#clipPath1)" fill="rgb(51,51,153)" stroke="none" xml:space="preserve">N
      </text>
      <rect x="47" y="139" clip-path="url(#clipPath1)" width="15" rx="5" ry="4" height="14" stroke="none" />
      <rect x="61" y="146" clip-path="url(#clipPath1)" width="4" rx="1.5" ry="3" height="10" stroke="none" />
      <text x="47" y="150" clip-path="url(#clipPath1)" fill="black" stroke="none" xml:space="preserve">CH
      </text>
      <text font-size="8" x="61" y="154" clip-path="url(#clipPath1)" fill="black" stroke="none" xml:space="preserve">3
      </text>
      <text font-size="8" x="84" y="82" clip-path="url(#clipPath1)" fill="black" stroke="none" xml:space="preserve">
      </text>
      <rect font-size="8" x="80" y="44" clip-path="url(#clipPath1)" width="15" rx="5" ry="4" height="14" stroke="none" />
      <text x="80" y="55" clip-path="url(#clipPath1)" fill="rgb(51,51,153)" stroke="none" xml:space="preserve">NH
      </text>
      <rect x="113" y="101" clip-path="url(#clipPath1)" width="7" rx="2.5" ry="4" height="14" stroke="none" />
      <rect x="113" y="112" clip-path="url(#clipPath1)" width="7" rx="2.5" ry="4" height="14" stroke="none" />
      <text x="113" y="112" clip-path="url(#clipPath1)" fill="rgb(51,51,153)" stroke="none" xml:space="preserve">N
      </text>
      <text x="113" y="123" clip-path="url(#clipPath1)" fill="rgb(51,51,153)" stroke="none" xml:space="preserve">H
      </text>
      <text font-size="8" x="150" y="82" clip-path="url(#clipPath1)" fill="rgb(51,51,153)" stroke="none" xml:space="preserve">
      </text>
      <rect x="146" y="44" clip-path="url(#clipPath1)" width="15" rx="5" ry="4" height="14" stroke="none" />
      <text x="146" y="55" clip-path="url(#clipPath1)" fill="rgb(51,51,153)" stroke="none" xml:space="preserve">NH
      </text>
      <rect x="179" y="101" clip-path="url(#clipPath1)" width="15" rx="5" ry="4" height="14" stroke="none" />
      <rect x="193" y="108" clip-path="url(#clipPath1)" width="4" rx="1.5" ry="3" height="10" stroke="none" />
      <text x="179" y="112" clip-path="url(#clipPath1)" fill="rgb(51,51,153)" stroke="none" xml:space="preserve">NH
      </text>
      <text font-size="8" x="193" y="116" clip-path="url(#clipPath1)" fill="rgb(51,51,153)" stroke="none" xml:space="preserve">2
      </text>
    </g>
  </g>
</svg>
