<?xml version="1.0"?>

<!DOCTYPE svg PUBLIC '-//W3C//DTD SVG 1.0//EN' 'http://www.w3.org/TR/2001/REC-SVG-20010904/DTD/svg10.dtd'>
<svg fill-opacity="1" xmlns:xlink="http://www.w3.org/1999/xlink" color-rendering="auto" color-interpolation="auto" stroke="black" text-rendering="auto" stroke-linecap="square" width="200" stroke-miterlimit="10" stroke-opacity="1" shape-rendering="auto" fill="black" stroke-dasharray="none" font-weight="normal" stroke-width="1" height="200" xmlns="http://www.w3.org/2000/svg" font-family="&apos;Dialog&apos;" font-style="normal" stroke-linejoin="miter" font-size="12" stroke-dashoffset="0" image-rendering="auto">
  <!--Generated by Marvin with Batik SVG Generator-->
  <defs id="genericDefs" />
  <g>
    <defs id="defs1">
      <clipPath clipPathUnits="userSpaceOnUse" id="clipPath1">
        <path d="M0 0 L200 0 L200 200 L0 200 L0 0 Z" />
      </clipPath>
    </defs>
    <g font-size="5" text-rendering="optimizeLegibility" font-family="sans-serif" stroke-linejoin="bevel" shape-rendering="geometricPrecision" stroke-width="0.8739839792251587">
      <line clip-path="url(#clipPath1)" fill="none" x1="10.755633766635057" x2="15.01077309594556" y1="116.6892792561563" y2="119.14598513070325" />
      <line clip-path="url(#clipPath1)" fill="none" x1="15.01077309594556" x2="19.26591242525606" y1="119.14598513070325" y2="121.60269100525021" stroke="red" />
      <line clip-path="url(#clipPath1)" fill="none" x1="25.389637118604114" x2="31.17571078939674" y1="121.60269162818749" y2="118.2621019556156" stroke="red" />
      <line clip-path="url(#clipPath1)" fill="none" x1="31.17571078939674" x2="36.961784460189364" y1="118.2621019556156" y2="114.92151228304373" />
      <line clip-path="url(#clipPath1)" fill="none" x1="36.961784460189364" x2="51.59578745250549" y1="114.92151228304374" y2="123.37045797836277" />
      <line clip-path="url(#clipPath1)" fill="none" x1="51.59578745250549" x2="66.22979044482162" y1="123.37045797836277" y2="114.92151228304374" />
      <line clip-path="url(#clipPath1)" fill="none" x1="66.22979044482162" x2="80.86378656136814" y1="114.92151228304374" y2="123.37045797836277" />
      <line clip-path="url(#clipPath1)" fill="none" x1="68.25644247598515" x2="80.86378703747822" y1="113.75142447107" y2="121.03028177798092" />
      <line clip-path="url(#clipPath1)" fill="none" x1="80.86378656136814" x2="95.49779642945389" y1="123.37045797836277" y2="114.92151228304374" />
      <line clip-path="url(#clipPath1)" fill="none" x1="95.49779642945389" x2="95.49779642945389" y1="114.92151228304374" y2="98.02362089240572" />
      <line clip-path="url(#clipPath1)" fill="none" x1="93.47114439829035" x2="93.47114439829035" y1="113.75142392130545" y2="99.19370925414401" />
      <line clip-path="url(#clipPath1)" fill="none" x1="95.49779642945389" x2="80.86378656136814" y1="98.02362089240572" y2="89.57467519708669" />
      <line clip-path="url(#clipPath1)" fill="none" x1="80.86378656136814" x2="66.22979044482162" y1="89.57467519708669" y2="98.02362089240572" />
      <line clip-path="url(#clipPath1)" fill="none" x1="80.86378703747822" x2="68.25644247598515" y1="91.91485139746854" y2="99.19370870437946" />
      <line clip-path="url(#clipPath1)" fill="none" x1="66.22979044482162" x2="66.22979044482162" y1="98.02362089240572" y2="114.92151228304374" />
      <line clip-path="url(#clipPath1)" fill="none" x1="95.49779642945389" x2="101.28386684218816" y1="98.02362089240572" y2="94.68303153130248" />
      <line clip-path="url(#clipPath1)" fill="none" x1="101.28386684218816" x2="107.06993725492244" y1="94.68303153130248" y2="91.34244217019923" stroke="red" />
      <line clip-path="url(#clipPath1)" fill="none" x1="113.19366158861757" x2="118.97973200135186" y1="91.34244217019925" y2="94.68303153130248" stroke="red" />
      <line clip-path="url(#clipPath1)" fill="none" x1="118.97973200135186" x2="124.76580241408615" y1="94.68303153130248" y2="98.0236208924057" />
      <line clip-path="url(#clipPath1)" fill="none" x1="124.76580241408614" x2="139.39980540640227" y1="98.02362089240572" y2="89.57467519708669" />
      <line clip-path="url(#clipPath1)" fill="none" x1="139.39980540640227" x2="154.0338083987184" y1="89.57467519708669" y2="98.02362089240572" />
      <line clip-path="url(#clipPath1)" fill="none" x1="139.39980540640227" x2="136.0592157338304" y1="89.57467519708669" y2="83.78860152629406" />
      <line clip-path="url(#clipPath1)" fill="none" x1="136.0592157338304" x2="132.71862606125853" y1="83.78860152629406" y2="78.00252785550143" stroke="rgb(51,51,51)" />
      <line clip-path="url(#clipPath1)" fill="none" x1="139.39980540640227" x2="142.74039507897413" y1="89.57467519708669" y2="83.78860152629406" />
      <line clip-path="url(#clipPath1)" fill="none" x1="142.74039507897413" x2="146.080984751546" y1="83.78860152629406" y2="78.00252785550143" stroke="red" />
      <line clip-path="url(#clipPath1)" fill="none" x1="154.0338083987184" x2="159.8198788114527" y1="98.02362089240572" y2="94.68303153130248" />
      <line clip-path="url(#clipPath1)" fill="none" x1="159.8198788114527" x2="165.605949224187" y1="94.68303153130248" y2="91.34244217019923" stroke="rgb(51,51,153)" />
      <line clip-path="url(#clipPath1)" fill="none" x1="171.7296735578821" x2="177.51574397061637" y1="91.34244217019926" y2="94.68303153130249" stroke="rgb(51,51,153)" />
      <line clip-path="url(#clipPath1)" fill="none" x1="177.51574397061637" x2="183.30181438335063" y1="94.68303153130249" y2="98.02362089240572" />
      <line clip-path="url(#clipPath1)" fill="none" x1="183.30181438335066" x2="189.08788479608495" y1="98.02362089240572" y2="94.68303153130248" />
      <line clip-path="url(#clipPath1)" fill="none" x1="189.08788479608495" x2="194.87395520881924" y1="94.68303153130248" y2="91.34244217019923" stroke="rgb(51,51,51)" />
      <line clip-path="url(#clipPath1)" fill="none" x1="183.30181438335066" x2="176.62063566114423" y1="98.02362089240572" y2="109.59576171787428" />
      <line clip-path="url(#clipPath1)" fill="none" x1="183.30181438335066" x2="189.9829931055571" y1="98.02362089240572" y2="109.59576171787428" />
    </g>
    <g font-size="5" fill="white" text-rendering="optimizeLegibility" font-family="sans-serif" shape-rendering="geometricPrecision" stroke="white">
      <rect x="0" y="112" clip-path="url(#clipPath1)" width="4" rx="1.5" ry="1.5" height="6" stroke="none" />
      <rect x="4" y="115" clip-path="url(#clipPath1)" width="2" rx="0.5" ry="1.5" height="5" stroke="none" />
      <rect x="6" y="112" clip-path="url(#clipPath1)" width="4" rx="1.5" ry="1.5" height="6" stroke="none" />
      <text x="0" y="117" clip-path="url(#clipPath1)" fill="black" stroke="none" xml:space="preserve">H
      </text>
      <text font-size="3" x="4" y="119" clip-path="url(#clipPath1)" fill="black" stroke="none" xml:space="preserve">3
      </text>
      <text x="6" y="117" clip-path="url(#clipPath1)" fill="black" stroke="none" xml:space="preserve">C
      </text>
      <rect x="20" y="120" clip-path="url(#clipPath1)" width="4" rx="1.5" ry="1.5" height="6" stroke="none" />
      <text x="20" y="125" clip-path="url(#clipPath1)" fill="red" stroke="none" xml:space="preserve">O
      </text>
      <text font-size="3" x="37" y="112" clip-path="url(#clipPath1)" fill="red" stroke="none" xml:space="preserve">
      </text>
      <text font-size="3" x="54" y="121" clip-path="url(#clipPath1)" fill="red" stroke="none" xml:space="preserve">
      </text>
      <text font-size="3" x="66" y="112" clip-path="url(#clipPath1)" fill="red" stroke="none" xml:space="preserve">
      </text>
      <text font-size="3" x="83" y="121" clip-path="url(#clipPath1)" fill="red" stroke="none" xml:space="preserve">
      </text>
      <text font-size="3" x="97" y="113" clip-path="url(#clipPath1)" fill="red" stroke="none" xml:space="preserve">
      </text>
      <text font-size="3" x="97" y="96" clip-path="url(#clipPath1)" fill="red" stroke="none" xml:space="preserve">
      </text>
      <text font-size="3" x="81" y="87" clip-path="url(#clipPath1)" fill="red" stroke="none" xml:space="preserve">
      </text>
      <text font-size="3" x="68" y="96" clip-path="url(#clipPath1)" fill="red" stroke="none" xml:space="preserve">
      </text>
      <rect x="108" y="87" clip-path="url(#clipPath1)" width="4" rx="1.5" ry="1.5" height="6" stroke="none" />
      <text x="108" y="92" clip-path="url(#clipPath1)" fill="red" stroke="none" xml:space="preserve">O
      </text>
      <text font-size="3" x="127" y="96" clip-path="url(#clipPath1)" fill="red" stroke="none" xml:space="preserve">
      </text>
      <text font-size="3" x="140" y="87" clip-path="url(#clipPath1)" fill="red" stroke="none" xml:space="preserve">
      </text>
      <text font-size="3" x="156" y="96" clip-path="url(#clipPath1)" fill="red" stroke="none" xml:space="preserve">
      </text>
      <rect x="129" y="72" clip-path="url(#clipPath1)" width="4" rx="1.5" ry="1.5" height="6" stroke="none" />
      <text x="129" y="77" clip-path="url(#clipPath1)" fill="rgb(51,51,51)" stroke="none" xml:space="preserve">H
      </text>
      <rect x="146" y="72" clip-path="url(#clipPath1)" width="8" rx="3" ry="1.5" height="6" stroke="none" />
      <text x="146" y="77" clip-path="url(#clipPath1)" fill="red" stroke="none" xml:space="preserve">OH
      </text>
      <rect x="167" y="82" clip-path="url(#clipPath1)" width="4" rx="1.5" ry="1.5" height="6" stroke="none" />
      <rect x="167" y="87" clip-path="url(#clipPath1)" width="4" rx="1.5" ry="1.5" height="6" stroke="none" />
      <text x="167" y="87" clip-path="url(#clipPath1)" fill="rgb(51,51,153)" stroke="none" xml:space="preserve">H
      </text>
      <text x="167" y="92" clip-path="url(#clipPath1)" fill="rgb(51,51,153)" stroke="none" xml:space="preserve">N
      </text>
      <text font-size="3" x="186" y="98" clip-path="url(#clipPath1)" fill="rgb(51,51,153)" stroke="none" xml:space="preserve">
      </text>
      <rect x="196" y="87" clip-path="url(#clipPath1)" width="4" rx="1.5" ry="1.5" height="6" stroke="none" />
      <text x="196" y="92" clip-path="url(#clipPath1)" fill="rgb(51,51,51)" stroke="none" xml:space="preserve">H
      </text>
      <rect x="167" y="110" clip-path="url(#clipPath1)" width="4" rx="1.5" ry="1.5" height="6" stroke="none" />
      <rect x="171" y="113" clip-path="url(#clipPath1)" width="2" rx="0.5" ry="1.5" height="5" stroke="none" />
      <rect x="173" y="110" clip-path="url(#clipPath1)" width="4" rx="1.5" ry="1.5" height="6" stroke="none" />
      <text x="167" y="115" clip-path="url(#clipPath1)" fill="black" stroke="none" xml:space="preserve">H
      </text>
      <text font-size="3" x="171" y="117" clip-path="url(#clipPath1)" fill="black" stroke="none" xml:space="preserve">3
      </text>
      <text x="173" y="115" clip-path="url(#clipPath1)" fill="black" stroke="none" xml:space="preserve">C
      </text>
      <rect x="190" y="110" clip-path="url(#clipPath1)" width="8" rx="3" ry="1.5" height="6" stroke="none" />
      <rect x="198" y="113" clip-path="url(#clipPath1)" width="2" rx="0.5" ry="1.5" height="5" stroke="none" />
      <text x="190" y="115" clip-path="url(#clipPath1)" fill="black" stroke="none" xml:space="preserve">CH
      </text>
      <text font-size="3" x="198" y="117" clip-path="url(#clipPath1)" fill="black" stroke="none" xml:space="preserve">3
      </text>
    </g>
  </g>
</svg>
