<?xml version="1.0"?>

<!DOCTYPE svg PUBLIC '-//W3C//DTD SVG 1.0//EN' 'http://www.w3.org/TR/2001/REC-SVG-20010904/DTD/svg10.dtd'>
<svg fill-opacity="1" xmlns:xlink="http://www.w3.org/1999/xlink" color-rendering="auto" color-interpolation="auto" stroke="black" text-rendering="auto" stroke-linecap="square" width="200" stroke-miterlimit="10" stroke-opacity="1" shape-rendering="auto" fill="black" stroke-dasharray="none" font-weight="normal" stroke-width="1" height="200" xmlns="http://www.w3.org/2000/svg" font-family="&apos;Dialog&apos;" font-style="normal" stroke-linejoin="miter" font-size="12" stroke-dashoffset="0" image-rendering="auto">
  <!--Generated by Marvin with Batik SVG Generator-->
  <defs id="genericDefs" />
  <g>
    <defs id="defs1">
      <clipPath clipPathUnits="userSpaceOnUse" id="clipPath1">
        <path d="M0 0 L200 0 L200 200 L0 200 L0 0 Z" />
      </clipPath>
    </defs>
    <g font-size="8" text-rendering="optimizeLegibility" font-family="sans-serif" stroke-linejoin="bevel" shape-rendering="geometricPrecision" stroke-width="1.187441110610962">
      <line clip-path="url(#clipPath1)" fill="none" x1="118.20561558336153" x2="118.20561558336153" y1="68.84767804308532" y2="99.00669923997829" />
      <line clip-path="url(#clipPath1)" fill="none" x1="121.82274390745827" x2="121.82274390745827" y1="70.93602803882953" y2="96.91834924423408" />
      <line clip-path="url(#clipPath1)" fill="none" x1="118.20561558336153" x2="144.32409369626842" y1="99.00669923997829" y2="114.08620983842476" />
      <line clip-path="url(#clipPath1)" fill="none" x1="144.32409369626842" x2="170.4425718091753" y1="114.08620983842476" y2="99.00669923997829" />
      <line clip-path="url(#clipPath1)" fill="none" x1="144.32409369626842" x2="166.82544348507855" y1="109.90950979933697" y2="96.91834924423408" />
      <line clip-path="url(#clipPath1)" fill="none" x1="170.4425718091753" x2="170.4425718091753" y1="99.00669923997829" y2="68.84767804308532" />
      <line clip-path="url(#clipPath1)" fill="none" x1="170.4425718091753" x2="144.32409369626842" y1="68.84767804308532" y2="53.76816744463885" />
      <line clip-path="url(#clipPath1)" fill="none" x1="166.82544348507855" x2="144.32409369626842" y1="70.93602803882953" y2="57.94486748372665" />
      <line clip-path="url(#clipPath1)" fill="none" x1="144.32409369626842" x2="118.20561558336153" y1="53.76816744463885" y2="68.84767804308532" />
      <line clip-path="url(#clipPath1)" fill="none" x1="118.20561558336153" x2="107.9020524770709" y1="68.84767804308532" y2="62.8989130196634" />
      <line clip-path="url(#clipPath1)" fill="none" x1="107.9020524770709" x2="97.59848937078026" y1="62.8989130196634" y2="56.95014799624147" stroke="red" />
      <line clip-path="url(#clipPath1)" fill="none" x1="86.57578492275378" x2="76.2722160042822" y1="56.95014687495435" y2="62.89891245901984" stroke="red" />
      <line clip-path="url(#clipPath1)" fill="none" x1="76.2722160042822" x2="65.96864708581062" y1="62.89891245901984" y2="68.84767804308532" />
      <line clip-path="url(#clipPath1)" fill="none" x1="67.777211247859" x2="67.777211247859" y1="68.84767804308532" y2="80.74520812619235" />
      <line clip-path="url(#clipPath1)" fill="none" x1="64.16008292376226" x2="64.16008292376226" y1="68.84767804308532" y2="80.74520812619235" />
      <line clip-path="url(#clipPath1)" fill="none" x1="67.777211247859" x2="67.777211247859" y1="80.74520812619235" y2="92.64273820929937" stroke="red" />
      <line clip-path="url(#clipPath1)" fill="none" x1="64.16008292376226" x2="64.16008292376226" y1="80.74520812619235" y2="92.64273820929937" stroke="red" />
      <line clip-path="url(#clipPath1)" fill="none" x1="65.96864708581063" x2="55.66508397952" y1="68.84767804308532" y2="62.8989130196634" />
      <line clip-path="url(#clipPath1)" fill="none" x1="55.66508397952" x2="45.36152087322937" y1="62.8989130196634" y2="56.95014799624147" stroke="rgb(51,51,153)" />
      <line clip-path="url(#clipPath1)" fill="none" x1="34.33881707257814" x2="26.79092991645031" y1="56.95014799624146" y2="61.30792274386209" stroke="rgb(51,51,153)" />
      <line clip-path="url(#clipPath1)" fill="none" x1="26.79092991645031" x2="19.24304276032248" y1="61.30792274386209" y2="65.66569749148272" />
      <line clip-path="url(#clipPath1)" fill="none" x1="39.85016897290375" x2="39.85016897290375" y1="47.40420641395992" y2="38.6886507103238" stroke="rgb(51,51,153)" />
      <line clip-path="url(#clipPath1)" fill="none" x1="39.85016897290375" x2="39.85016897290375" y1="38.6886507103238" y2="29.97309500668768" />
      <line clip-path="url(#clipPath1)" fill="none" x1="144.32409369626842" x2="144.32409369626842" y1="114.08620983842476" y2="125.98373992153178" />
      <line clip-path="url(#clipPath1)" fill="none" x1="144.32409369626842" x2="144.32409369626842" y1="125.98373992153178" y2="137.8812700046388" stroke="rgb(51,51,153)" />
      <line clip-path="url(#clipPath1)" fill="none" x1="149.83544559659404" x2="157.38333275272186" y1="147.42721158692032" y2="151.78498633454097" stroke="rgb(51,51,153)" />
      <line clip-path="url(#clipPath1)" fill="none" x1="157.38333275272186" x2="164.93121990884967" y1="151.78498633454097" y2="156.14276108216163" />
      <line clip-path="url(#clipPath1)" fill="none" x1="138.8127417959428" x2="131.26485463981498" y1="147.42721158692032" y2="151.78498633454097" stroke="rgb(51,51,153)" />
      <line clip-path="url(#clipPath1)" fill="none" x1="131.26485463981498" x2="123.71696748368717" y1="151.78498633454097" y2="156.14276108216163" />
      <line clip-path="url(#clipPath1)" fill="none" x1="142.67697777026754" x2="140.42122723126343" y1="150.392344921225" y2="158.8109117279475" stroke="rgb(51,51,153)" />
      <line clip-path="url(#clipPath1)" fill="none" x1="140.42122723126343" x2="138.16547669225932" y1="158.8109117279475" y2="167.22947853467002" />
      <text font-size="6" x="122" y="65" clip-path="url(#clipPath1)" stroke-linejoin="miter" stroke="none" stroke-width="1" xml:space="preserve">
      </text>
      <text font-size="6" x="119" y="94" clip-path="url(#clipPath1)" stroke-linejoin="miter" stroke="none" stroke-width="1" xml:space="preserve">
      </text>
      <text font-size="6" x="148" y="111" clip-path="url(#clipPath1)" stroke-linejoin="miter" stroke="none" stroke-width="1" xml:space="preserve">
      </text>
      <text font-size="6" x="174" y="96" clip-path="url(#clipPath1)" stroke-linejoin="miter" stroke="none" stroke-width="1" xml:space="preserve">
      </text>
      <text font-size="6" x="174" y="65" clip-path="url(#clipPath1)" stroke-linejoin="miter" stroke="none" stroke-width="1" xml:space="preserve">
      </text>
      <text font-size="6" x="145" y="49" clip-path="url(#clipPath1)" stroke-linejoin="miter" stroke="none" stroke-width="1" xml:space="preserve">
      </text>
    </g>
    <g font-size="8" fill="white" text-rendering="optimizeLegibility" font-family="sans-serif" shape-rendering="geometricPrecision" stroke="white">
      <rect x="89" y="48" clip-path="url(#clipPath1)" width="6" rx="2" ry="3" height="11" stroke="none" />
      <text x="89" y="57" clip-path="url(#clipPath1)" fill="red" stroke="none" xml:space="preserve">O
      </text>
      <text font-size="6" x="69" y="65" clip-path="url(#clipPath1)" fill="red" stroke="none" xml:space="preserve">
      </text>
      <rect x="63" y="93" clip-path="url(#clipPath1)" width="6" rx="2" ry="3" height="11" stroke="none" />
      <text x="63" y="102" clip-path="url(#clipPath1)" fill="red" stroke="none" xml:space="preserve">O
      </text>
      <rect x="37" y="48" clip-path="url(#clipPath1)" width="6" rx="2" ry="3" height="11" stroke="none" />
      <text x="37" y="57" clip-path="url(#clipPath1)" fill="rgb(51,51,153)" stroke="none" xml:space="preserve">N
      </text>
      <rect x="2" y="63" clip-path="url(#clipPath1)" width="6" rx="2" ry="3" height="11" stroke="none" />
      <rect x="8" y="68" clip-path="url(#clipPath1)" width="3" rx="1" ry="2.5" height="9" stroke="none" />
      <rect x="11" y="63" clip-path="url(#clipPath1)" width="6" rx="2" ry="3" height="11" stroke="none" />
      <text x="2" y="72" clip-path="url(#clipPath1)" fill="black" stroke="none" xml:space="preserve">H
      </text>
      <text font-size="6" x="8" y="75" clip-path="url(#clipPath1)" fill="black" stroke="none" xml:space="preserve">3
      </text>
      <text x="11" y="72" clip-path="url(#clipPath1)" fill="black" stroke="none" xml:space="preserve">C
      </text>
      <rect x="37" y="18" clip-path="url(#clipPath1)" width="13" rx="4.5" ry="3" height="11" stroke="none" />
      <rect x="49" y="23" clip-path="url(#clipPath1)" width="3" rx="1" ry="2.5" height="9" stroke="none" />
      <text x="37" y="27" clip-path="url(#clipPath1)" fill="black" stroke="none" xml:space="preserve">CH
      </text>
      <text font-size="6" x="49" y="30" clip-path="url(#clipPath1)" fill="black" stroke="none" xml:space="preserve">3
      </text>
      <rect font-size="6" x="141" y="139" clip-path="url(#clipPath1)" width="6" rx="2" ry="3" height="11" stroke="none" />
      <rect font-size="6" x="147" y="138" clip-path="url(#clipPath1)" width="4" rx="1.5" ry="2.5" height="9" stroke="none" />
      <text x="141" y="148" clip-path="url(#clipPath1)" fill="rgb(51,51,153)" stroke="none" xml:space="preserve">N
      </text>
      <text font-size="6" x="147" y="145" clip-path="url(#clipPath1)" fill="rgb(51,51,153)" stroke="none" xml:space="preserve">+
      </text>
      <rect font-size="6" x="167" y="154" clip-path="url(#clipPath1)" width="13" rx="4.5" ry="3" height="11" stroke="none" />
      <rect font-size="6" x="179" y="159" clip-path="url(#clipPath1)" width="3" rx="1" ry="2.5" height="9" stroke="none" />
      <text x="167" y="163" clip-path="url(#clipPath1)" fill="black" stroke="none" xml:space="preserve">CH
      </text>
      <text font-size="6" x="179" y="166" clip-path="url(#clipPath1)" fill="black" stroke="none" xml:space="preserve">3
      </text>
      <rect font-size="6" x="106" y="154" clip-path="url(#clipPath1)" width="6" rx="2" ry="3" height="11" stroke="none" />
      <rect font-size="6" x="112" y="159" clip-path="url(#clipPath1)" width="3" rx="1" ry="2.5" height="9" stroke="none" />
      <rect font-size="6" x="115" y="154" clip-path="url(#clipPath1)" width="6" rx="2" ry="3" height="11" stroke="none" />
      <text x="106" y="163" clip-path="url(#clipPath1)" fill="black" stroke="none" xml:space="preserve">H
      </text>
      <text font-size="6" x="112" y="166" clip-path="url(#clipPath1)" fill="black" stroke="none" xml:space="preserve">3
      </text>
      <text x="115" y="163" clip-path="url(#clipPath1)" fill="black" stroke="none" xml:space="preserve">C
      </text>
      <rect x="125" y="168" clip-path="url(#clipPath1)" width="6" rx="2" ry="3" height="11" stroke="none" />
      <rect x="131" y="173" clip-path="url(#clipPath1)" width="3" rx="1" ry="2.5" height="9" stroke="none" />
      <rect x="134" y="168" clip-path="url(#clipPath1)" width="6" rx="2" ry="3" height="11" stroke="none" />
      <text x="125" y="177" clip-path="url(#clipPath1)" fill="black" stroke="none" xml:space="preserve">H
      </text>
      <text font-size="6" x="131" y="180" clip-path="url(#clipPath1)" fill="black" stroke="none" xml:space="preserve">3
      </text>
      <text x="134" y="177" clip-path="url(#clipPath1)" fill="black" stroke="none" xml:space="preserve">C
      </text>
      <text x="182" y="141" clip-path="url(#clipPath1)" fill="rgb(102,51,51)" stroke="none" xml:space="preserve">Br
      </text>
      <text font-size="6" x="190" y="138" clip-path="url(#clipPath1)" fill="rgb(102,51,51)" stroke="none" xml:space="preserve">–
      </text>
    </g>
  </g>
</svg>
