<?xml version="1.0"?>

<!DOCTYPE svg PUBLIC '-//W3C//DTD SVG 1.0//EN' 'http://www.w3.org/TR/2001/REC-SVG-20010904/DTD/svg10.dtd'>
<svg fill-opacity="1" xmlns:xlink="http://www.w3.org/1999/xlink" color-rendering="auto" color-interpolation="auto" stroke="black" text-rendering="auto" stroke-linecap="square" width="200" stroke-miterlimit="10" stroke-opacity="1" shape-rendering="auto" fill="black" stroke-dasharray="none" font-weight="normal" stroke-width="1" height="200" xmlns="http://www.w3.org/2000/svg" font-family="&apos;Dialog&apos;" font-style="normal" stroke-linejoin="miter" font-size="12" stroke-dashoffset="0" image-rendering="auto">
  <!--Generated by Marvin with Batik SVG Generator-->
  <defs id="genericDefs" />
  <g>
    <defs id="defs1">
      <clipPath clipPathUnits="userSpaceOnUse" id="clipPath1">
        <path d="M0 0 L200 0 L200 200 L0 200 L0 0 Z" />
      </clipPath>
      <clipPath clipPathUnits="userSpaceOnUse" id="clipPath2">
        <path d="M36.25 30 Q37 30 38 31 L47 77 Q45.66666793823242 78.33333587646484 44.33333206176758 78.33333587646484 Q43.66666793823242 78.33333587646484 43 78 L35 31 Q35.5 30 36.25 30 ZM0 0 L0 200 L200 200 L200 0 Z" />
      </clipPath>
    </defs>
    <g font-size="6" text-rendering="optimizeLegibility" font-family="sans-serif" stroke-linejoin="bevel" shape-rendering="geometricPrecision" stroke-width="0.9515237212181091">
      <line clip-path="url(#clipPath1)" fill="none" x1="44.84662328748671" x2="24.48428420540668" y1="77.56370030146026" y2="90.16056947016097" />
      <line clip-path="url(#clipPath1)" fill="none" x1="24.48428420540668" x2="30.682655006964783" y1="90.16056947016097" y2="67.02794918916234" />
      <line clip-path="url(#clipPath2)" fill="none" x1="30.682655006964783" x2="50.568496172993235" y1="67.02794918916234" y2="53.70099493787134" />
      <line clip-path="url(#clipPath1)" fill="none" x1="44.84662328748671" x2="41.063046159952414" y1="77.56370030146026" y2="56.74002104276861" />
      <line clip-path="url(#clipPath1)" fill="none" x1="41.063046159952414" x2="37.27946903241812" y1="56.74002104276861" y2="35.91634178407696" stroke="rgb(51,51,153)" />
      <line clip-path="url(#clipPath1)" fill="none" x1="50.568496172993235" x2="44.79421274581267" y1="53.70099493787134" y2="44.47173788105335" />
      <line clip-path="url(#clipPath1)" fill="none" x1="44.79421274581267" x2="39.01992931863211" y1="44.47173788105335" y2="35.24248082423536" stroke="rgb(51,51,153)" />
      <line clip-path="url(#clipPath1)" fill="none" x1="50.568496172993235" x2="73.89789183169299" y1="53.70099493787134" y2="59.08993904711092" />
      <line clip-path="url(#clipPath1)" fill="none" x1="44.84662328748671" x2="68.38418591585176" y1="77.56370030146026" y2="81.96923526934074" />
      <line clip-path="url(#clipPath1)" fill="none" x1="73.89789183169299" x2="93.58874090601643" y1="59.08993904711092" y2="95.31285301272648" />
      <line clip-path="url(#clipPath1)" fill="none" x1="68.38418591585176" x2="93.58874090601643" y1="81.96923526934074" y2="95.31285301272648" />
      <line clip-path="url(#clipPath1)" fill="none" x1="24.48428420540668" x2="15.93278527087336" y1="90.16056947016097" y2="86.02396249263754" />
      <line clip-path="url(#clipPath1)" fill="none" x1="15.93278527087336" x2="7.38128633634004" y1="86.02396249263754" y2="81.88735551511411" stroke="red" />
      <line clip-path="url(#clipPath1)" fill="none" x1="30.682655006964783" x2="19.054440291961757" y1="67.02794918916234" y2="72.34999138555918" />
      <line clip-path="url(#clipPath1)" fill="none" x1="19.054440291961757" x2="7.426225576958732" y1="72.34999138555918" y2="77.67203358195601" stroke="red" />
      <line clip-path="url(#clipPath1)" fill="none" x1="93.58874090601643" x2="93.50405557258003" y1="95.31285301272648" y2="104.51305289334574" />
      <line clip-path="url(#clipPath1)" fill="none" x1="93.50405557258003" x2="93.41937023914363" y1="104.51305289334574" y2="113.71325277396501" stroke="red" />
      <line clip-path="url(#clipPath1)" fill="none" x1="97.66041812577764" x2="105.88718578409242" y1="121.13766432930176" y2="125.8873909235634" stroke="red" />
      <line clip-path="url(#clipPath1)" fill="none" x1="105.88718578409242" x2="114.11395344240721" y1="125.8873909235634" y2="130.63711751782506" />
      <line clip-path="url(#clipPath1)" fill="none" x1="115.55009677389198" x2="115.55009677389198" y1="130.63711751782503" y2="140.13657073455298" />
      <line clip-path="url(#clipPath1)" fill="none" x1="112.67781011092241" x2="112.67781011092241" y1="130.63711751782503" y2="140.13657073455298" />
      <line clip-path="url(#clipPath1)" fill="none" x1="115.55009677389198" x2="115.55009677389198" y1="140.13657073455298" y2="149.63602395128092" stroke="red" />
      <line clip-path="url(#clipPath1)" fill="none" x1="112.67781011092241" x2="112.67781011092241" y1="140.13657073455298" y2="149.63602395128092" stroke="red" />
      <line clip-path="url(#clipPath1)" fill="none" x1="114.1139534424072" x2="134.85409579262333" y1="130.63711751782503" y2="118.66279056694417" />
      <line clip-path="url(#clipPath1)" fill="none" x1="134.85409579262333" x2="134.85409579262333" y1="118.66279056694417" y2="94.71413666518242" />
      <line clip-path="url(#clipPath1)" fill="none" x1="134.85409579262333" x2="155.59423814283946" y1="118.66279056694417" y2="130.63711751782503" />
      <line clip-path="url(#clipPath1)" fill="none" x1="134.85409579262333" x2="143.0808634509381" y1="94.71413666518242" y2="89.96441007092079" />
      <line clip-path="url(#clipPath1)" fill="none" x1="143.0808634509381" x2="151.30763110925287" y1="89.96441007092079" y2="85.21468347665916" stroke="red" />
      <line clip-path="url(#clipPath1)" fill="none" x1="155.59423814283946" x2="155.59423814283946" y1="130.63711751782503" y2="154.58577141958676" />
      <line clip-path="url(#clipPath1)" fill="none" x1="158.46652480580903" x2="158.46652480580903" y1="132.29543298328105" y2="152.92745595413075" />
      <line clip-path="url(#clipPath1)" fill="none" x1="155.59423814283946" x2="176.33438049305562" y1="154.58577141958676" y2="166.56009837046764" />
      <line clip-path="url(#clipPath1)" fill="none" x1="176.33438049305562" x2="197.07452284327175" y1="166.56009837046764" y2="154.58577141958676" />
      <line clip-path="url(#clipPath1)" fill="none" x1="176.33438049305562" x2="194.20223618030218" y1="163.2434674017579" y2="152.92745595413075" />
      <line clip-path="url(#clipPath1)" fill="none" x1="197.07452284327175" x2="197.07452284327175" y1="154.58577141958676" y2="130.63711751782503" />
      <line clip-path="url(#clipPath1)" fill="none" x1="197.07452284327175" x2="176.33438049305562" y1="130.63711751782503" y2="118.66279056694417" />
      <line clip-path="url(#clipPath1)" fill="none" x1="194.20223618030218" x2="176.33438049305562" y1="132.29543298328105" y2="121.9794215356539" />
      <line clip-path="url(#clipPath1)" fill="none" x1="176.33438049305562" x2="155.59423814283946" y1="118.66279056694417" y2="130.63711751782503" />
      <line clip-path="url(#clipPath1)" fill="none" x1="31.4448602867664" x2="24.42028080419136" y1="31.046329410391056" y2="31.046329410391056" stroke="rgb(51,51,153)" />
      <line clip-path="url(#clipPath1)" fill="none" x1="24.42028080419136" x2="17.395701321616322" y1="31.046329410391056" y2="31.046329410391056" />
      <text font-size="5" x="48" y="75" clip-path="url(#clipPath1)" stroke-linejoin="miter" stroke="none" stroke-width="1" xml:space="preserve">
      </text>
      <text font-size="5" x="27" y="87" clip-path="url(#clipPath1)" stroke-linejoin="miter" stroke="none" stroke-width="1" xml:space="preserve">
      </text>
      <text font-size="5" x="33" y="64" clip-path="url(#clipPath1)" stroke-linejoin="miter" stroke="none" stroke-width="1" xml:space="preserve">
      </text>
      <text font-size="5" x="52" y="50" clip-path="url(#clipPath1)" stroke-linejoin="miter" stroke="none" stroke-width="1" xml:space="preserve">
      </text>
    </g>
    <g font-size="6" fill="white" text-rendering="optimizeLegibility" font-family="sans-serif" shape-rendering="geometricPrecision" stroke="white">
      <rect x="34" y="27" clip-path="url(#clipPath1)" width="4" rx="1.5" ry="2.5" height="9" stroke="none" />
      <text x="34" y="34" clip-path="url(#clipPath1)" fill="rgb(51,51,153)" stroke="none" xml:space="preserve">N
      </text>
      <text font-size="5" x="78" y="59" clip-path="url(#clipPath1)" fill="rgb(51,51,153)" stroke="none" xml:space="preserve">
      </text>
      <text font-size="5" x="69" y="78" clip-path="url(#clipPath1)" fill="rgb(51,51,153)" stroke="none" xml:space="preserve">
      </text>
      <text font-size="5" x="96" y="93" clip-path="url(#clipPath1)" fill="rgb(51,51,153)" stroke="none" xml:space="preserve">
      </text>
      <rect x="0" y="75" clip-path="url(#clipPath1)" width="5" rx="1.5" ry="2.5" height="9" stroke="none" />
      <text x="0" y="82" clip-path="url(#clipPath1)" fill="red" stroke="none" xml:space="preserve">O
      </text>
      <rect x="91" y="114" clip-path="url(#clipPath1)" width="5" rx="1.5" ry="2.5" height="9" stroke="none" />
      <text x="91" y="121" clip-path="url(#clipPath1)" fill="red" stroke="none" xml:space="preserve">O
      </text>
      <text font-size="5" x="117" y="128" clip-path="url(#clipPath1)" fill="red" stroke="none" xml:space="preserve">
      </text>
      <rect x="112" y="150" clip-path="url(#clipPath1)" width="5" rx="1.5" ry="2.5" height="9" stroke="none" />
      <text x="112" y="157" clip-path="url(#clipPath1)" fill="red" stroke="none" xml:space="preserve">O
      </text>
      <text font-size="5" x="135" y="115" clip-path="url(#clipPath1)" fill="red" stroke="none" xml:space="preserve">
      </text>
      <text font-size="5" x="138" y="92" clip-path="url(#clipPath1)" fill="red" stroke="none" xml:space="preserve">
      </text>
      <text font-size="5" x="158" y="128" clip-path="url(#clipPath1)" fill="red" stroke="none" xml:space="preserve">
      </text>
      <rect x="153" y="78" clip-path="url(#clipPath1)" width="9" rx="3" ry="2.5" height="9" stroke="none" />
      <text x="153" y="85" clip-path="url(#clipPath1)" fill="red" stroke="none" xml:space="preserve">OH
      </text>
      <text font-size="5" x="156" y="151" clip-path="url(#clipPath1)" fill="red" stroke="none" xml:space="preserve">
      </text>
      <text font-size="5" x="179" y="164" clip-path="url(#clipPath1)" fill="red" stroke="none" xml:space="preserve">
      </text>
      <text font-size="5" x="200" y="152" clip-path="url(#clipPath1)" fill="red" stroke="none" xml:space="preserve">
      </text>
      <text font-size="5" x="200" y="128" clip-path="url(#clipPath1)" fill="red" stroke="none" xml:space="preserve">
      </text>
      <text font-size="5" x="177" y="115" clip-path="url(#clipPath1)" fill="red" stroke="none" xml:space="preserve">
      </text>
      <rect x="3" y="27" clip-path="url(#clipPath1)" width="4" rx="1.5" ry="2.5" height="9" stroke="none" />
      <rect x="7" y="31" clip-path="url(#clipPath1)" width="3" rx="1" ry="1.5" height="6" stroke="none" />
      <rect x="10" y="27" clip-path="url(#clipPath1)" width="4" rx="1.5" ry="2.5" height="9" stroke="none" />
      <text x="3" y="34" clip-path="url(#clipPath1)" fill="black" stroke="none" xml:space="preserve">H
      </text>
      <text font-size="5" x="7" y="36" clip-path="url(#clipPath1)" fill="black" stroke="none" xml:space="preserve">3
      </text>
      <text x="10" y="34" clip-path="url(#clipPath1)" fill="black" stroke="none" xml:space="preserve">C
      </text>
    </g>
  </g>
</svg>
