<?xml version="1.0"?>

<!DOCTYPE svg PUBLIC '-//W3C//DTD SVG 1.0//EN' 'http://www.w3.org/TR/2001/REC-SVG-20010904/DTD/svg10.dtd'>
<svg fill-opacity="1" xmlns:xlink="http://www.w3.org/1999/xlink" color-rendering="auto" color-interpolation="auto" stroke="black" text-rendering="auto" stroke-linecap="square" width="200" stroke-miterlimit="10" stroke-opacity="1" shape-rendering="auto" fill="black" stroke-dasharray="none" font-weight="normal" stroke-width="1" height="200" xmlns="http://www.w3.org/2000/svg" font-family="&apos;Dialog&apos;" font-style="normal" stroke-linejoin="miter" font-size="12" stroke-dashoffset="0" image-rendering="auto">
  <!--Generated by Marvin with Batik SVG Generator-->
  <defs id="genericDefs" />
  <g>
    <defs id="defs1">
      <clipPath clipPathUnits="userSpaceOnUse" id="clipPath1">
        <path d="M0 0 L200 0 L200 200 L0 200 L0 0 Z" />
      </clipPath>
    </defs>
    <g font-size="4" text-rendering="optimizeLegibility" font-family="sans-serif" stroke-linejoin="bevel" shape-rendering="geometricPrecision" stroke-width="0.8585304021835327">
      <line clip-path="url(#clipPath1)" fill="none" x1="29.624933085420068" x2="29.624933085420068" y1="81.22182307761173" y2="94.76551175615836" />
      <line clip-path="url(#clipPath1)" fill="none" x1="31.249298134010115" x2="31.249298134010115" y1="82.15965044823349" y2="93.8276843855366" />
      <line clip-path="url(#clipPath1)" fill="none" x1="29.624933085420068" x2="41.35410585282078" y1="94.76551175615836" y2="101.53735609543168" />
      <line clip-path="url(#clipPath1)" fill="none" x1="41.35410585282078" x2="53.08328413116252" y1="101.53735609543168" y2="94.76551175615836" />
      <line clip-path="url(#clipPath1)" fill="none" x1="41.35410604362237" x2="51.45891908257247" y1="99.66170078201571" y2="93.82768416521792" />
      <line clip-path="url(#clipPath1)" fill="none" x1="53.08328413116252" x2="53.08328413116252" y1="94.76551175615836" y2="81.22182307761173" />
      <line clip-path="url(#clipPath1)" fill="none" x1="53.08328413116252" x2="41.35410585282078" y1="81.22182307761173" y2="74.4499787383384" />
      <line clip-path="url(#clipPath1)" fill="none" x1="51.45891908257247" x2="41.35410604362238" y1="82.15965066855217" y2="76.32563405175438" />
      <line clip-path="url(#clipPath1)" fill="none" x1="41.35410585282078" x2="29.624933085420068" y1="74.4499787383384" y2="81.22182307761173" />
      <line clip-path="url(#clipPath1)" fill="none" x1="64.8124679204453" x2="53.08328413116252" y1="101.53735609543168" y2="94.76551175615836" />
      <line clip-path="url(#clipPath1)" fill="none" x1="76.54164619878703" x2="64.8124679204453" y1="94.76551175615836" y2="101.53735609543168" />
      <line clip-path="url(#clipPath1)" fill="none" x1="88.27082447712878" x2="76.54164619878703" y1="101.53735609543168" y2="94.76551175615836" />
      <line clip-path="url(#clipPath1)" fill="none" x1="100.00000275547052" x2="88.27082447712878" y1="94.76551175615836" y2="101.53735609543168" />
      <line clip-path="url(#clipPath1)" fill="none" x1="109.27969130033422" x2="104.63984702790236" y1="100.12314251694163" y2="97.44432713654999" stroke="rgb(51,51,153)" />
      <line clip-path="url(#clipPath1)" fill="none" x1="104.63984702790236" x2="100.0000027554705" y1="97.44432713654999" y2="94.76551175615835" />
      <line clip-path="url(#clipPath1)" fill="none" x1="123.45835931215402" x2="118.81851503972217" y1="94.76551175615836" y2="97.44432713654999" />
      <line clip-path="url(#clipPath1)" fill="none" x1="118.81851503972217" x2="114.17867076729033" y1="97.44432713654999" y2="100.12314251694161" stroke="rgb(51,51,153)" />
      <line clip-path="url(#clipPath1)" fill="none" x1="135.18753759049577" x2="123.45835931215402" y1="101.53735609543168" y2="94.76551175615836" />
      <line clip-path="url(#clipPath1)" fill="none" x1="146.91671586883749" x2="135.18753759049577" y1="94.76551175615836" y2="101.53735609543168" />
      <line clip-path="url(#clipPath1)" fill="none" x1="146.91671586883749" x2="158.64589414717923" y1="94.76551175615836" y2="101.53735609543168" />
      <line clip-path="url(#clipPath1)" fill="none" x1="148.54108091742754" x2="158.64589414717923" y1="93.82768416521792" y2="99.66170089217506" />
      <line clip-path="url(#clipPath1)" fill="none" x1="158.64589414717923" x2="170.37507242552098" y1="101.53735609543168" y2="94.76551175615836" />
      <line clip-path="url(#clipPath1)" fill="none" x1="170.37507242552098" x2="170.37507242552098" y1="94.76551175615836" y2="81.22182307761173" />
      <line clip-path="url(#clipPath1)" fill="none" x1="168.75070737693093" x2="168.75070737693093" y1="93.82768416521792" y2="82.15965066855217" />
      <line clip-path="url(#clipPath1)" fill="none" x1="170.37507242552098" x2="158.64589414717923" y1="81.22182307761173" y2="74.4499787383384" />
      <line clip-path="url(#clipPath1)" fill="none" x1="158.64589414717923" x2="146.91671586883749" y1="74.4499787383384" y2="81.22182307761173" />
      <line clip-path="url(#clipPath1)" fill="none" x1="158.64589414717923" x2="148.54108091742754" y1="76.32563394159502" y2="82.15965066855217" />
      <line clip-path="url(#clipPath1)" fill="none" x1="146.91671586883749" x2="146.91671586883749" y1="81.22182307761173" y2="94.76551175615836" />
      <line clip-path="url(#clipPath1)" fill="none" x1="29.624933085420068" x2="24.985088812988224" y1="81.22182307761173" y2="78.54300769722009" />
      <line clip-path="url(#clipPath1)" fill="none" x1="24.985088812988224" x2="20.34524454055638" y1="78.54300769722009" y2="75.86419231682845" stroke="red" />
      <line clip-path="url(#clipPath1)" fill="none" x1="170.37507242552098" x2="175.01491669795283" y1="81.22182307761173" y2="78.54300769722009" />
      <line clip-path="url(#clipPath1)" fill="none" x1="175.01491669795283" x2="179.65476097038467" y1="78.54300769722009" y2="75.86419231682845" stroke="red" />
      <line clip-path="url(#clipPath1)" fill="none" x1="170.37507242552098" x2="175.01491669795283" y1="94.76551175615836" y2="97.44432713654999" />
      <line clip-path="url(#clipPath1)" fill="none" x1="175.01491669795283" x2="179.65476097038467" y1="97.44432713654999" y2="100.12314251694161" stroke="red" />
      <line clip-path="url(#clipPath1)" fill="none" x1="29.624933085420068" x2="24.985088812988224" y1="94.76551175615836" y2="97.44432713654999" />
      <line clip-path="url(#clipPath1)" fill="none" x1="24.985088812988224" x2="20.34524454055638" y1="97.44432713654999" y2="100.12314251694161" stroke="red" />
      <line clip-path="url(#clipPath1)" fill="none" x1="15.446264785877935" x2="12.031162912436937" y1="75.86419181847863" y2="77.83590090797506" stroke="red" />
      <line clip-path="url(#clipPath1)" fill="none" x1="12.031162912436937" x2="8.61606103899594" y1="77.83590090797506" y2="79.80760999747149" />
      <line clip-path="url(#clipPath1)" fill="none" x1="15.446264785877933" x2="12.031162912436937" y1="100.12314301529145" y2="98.15143392579502" stroke="red" />
      <line clip-path="url(#clipPath1)" fill="none" x1="12.031162912436937" x2="8.616061038995941" y1="98.15143392579502" y2="96.17972483629859" />
      <line clip-path="url(#clipPath1)" fill="none" x1="184.5537404373408" x2="187.9688398430336" y1="75.86419231682845" y2="77.83590090797506" stroke="red" />
      <line clip-path="url(#clipPath1)" fill="none" x1="187.9688398430336" x2="191.38393924872642" y1="77.83590090797506" y2="79.80760949912167" />
      <line clip-path="url(#clipPath1)" fill="none" x1="184.5537404373408" x2="187.9688398430336" y1="100.12314251694163" y2="98.15143392579502" stroke="red" />
      <line clip-path="url(#clipPath1)" fill="none" x1="187.9688398430336" x2="191.38393924872642" y1="98.15143392579502" y2="96.17972533464841" />
      <line clip-path="url(#clipPath1)" fill="none" x1="64.8124679204453" x2="55.2356317494098" y1="101.53735609543168" y2="111.11418675552615" />
      <line clip-path="url(#clipPath1)" fill="none" x1="64.8124679204453" x2="74.38929306959874" y1="101.53735609543168" y2="111.11418675552615" />
      <line clip-path="url(#clipPath1)" fill="none" x1="74.38929306959874" x2="85.1045546233992" y1="111.11418675552615" y2="111.11418675552615" />
      <line clip-path="url(#clipPath1)" fill="none" x1="74.38929306959874" x2="77.16260814020372" y1="111.11418675552615" y2="121.46433302811595" />
      <line clip-path="url(#clipPath1)" fill="none" x1="55.2356317494098" x2="51.44721584391755" y1="111.11418675552615" y2="114.90260702106974" />
      <line clip-path="url(#clipPath1)" fill="none" x1="56.38423195134573" x2="52.59581604585348" y1="112.26278563555071" y2="116.0512059010943" />
      <line clip-path="url(#clipPath1)" fill="none" x1="54.08703154747386" x2="50.29861564198161" y1="109.96558787550158" y2="113.75400814104518" />
      <line clip-path="url(#clipPath1)" fill="none" x1="51.44721584391755" x2="47.6587999384253" y1="114.90260702106974" y2="118.69102728661333" stroke="rgb(51,51,153)" />
      <line clip-path="url(#clipPath1)" fill="none" x1="52.59581604585348" x2="48.80740014036123" y1="116.0512059010943" y2="119.8396261666379" stroke="rgb(51,51,153)" />
      <line clip-path="url(#clipPath1)" fill="none" x1="50.29861564198161" x2="46.51019973648936" y1="113.75400814104518" y2="117.54242840658877" stroke="rgb(51,51,153)" />
      <line clip-path="url(#clipPath1)" fill="none" x1="111.72918103381227" x2="111.72918103381227" y1="104.36578322017786" y2="108.30920043470499" stroke="rgb(51,51,153)" />
      <line clip-path="url(#clipPath1)" fill="none" x1="111.72918103381227" x2="111.72918103381227" y1="108.30920043470499" y2="112.25261764923212" />
      <text font-size="3" x="31" y="80" clip-path="url(#clipPath1)" stroke-linejoin="miter" stroke="none" stroke-width="1" xml:space="preserve">
      </text>
      <text font-size="3" x="30" y="93" clip-path="url(#clipPath1)" stroke-linejoin="miter" stroke="none" stroke-width="1" xml:space="preserve">
      </text>
      <text font-size="3" x="43" y="100" clip-path="url(#clipPath1)" stroke-linejoin="miter" stroke="none" stroke-width="1" xml:space="preserve">
      </text>
      <text font-size="3" x="53" y="93" clip-path="url(#clipPath1)" stroke-linejoin="miter" stroke="none" stroke-width="1" xml:space="preserve">
      </text>
      <text font-size="3" x="55" y="80" clip-path="url(#clipPath1)" stroke-linejoin="miter" stroke="none" stroke-width="1" xml:space="preserve">
      </text>
      <text font-size="3" x="42" y="72" clip-path="url(#clipPath1)" stroke-linejoin="miter" stroke="none" stroke-width="1" xml:space="preserve">
      </text>
      <text font-size="3" x="67" y="102" clip-path="url(#clipPath1)" stroke-linejoin="miter" stroke="none" stroke-width="1" xml:space="preserve">
      </text>
      <text font-size="3" x="77" y="93" clip-path="url(#clipPath1)" stroke-linejoin="miter" stroke="none" stroke-width="1" xml:space="preserve">
      </text>
      <text font-size="3" x="90" y="100" clip-path="url(#clipPath1)" stroke-linejoin="miter" stroke="none" stroke-width="1" xml:space="preserve">
      </text>
      <text font-size="3" x="100" y="93" clip-path="url(#clipPath1)" stroke-linejoin="miter" stroke="none" stroke-width="1" xml:space="preserve">
      </text>
    </g>
    <g font-size="4" fill="white" text-rendering="optimizeLegibility" font-family="sans-serif" shape-rendering="geometricPrecision" stroke="white">
      <rect x="110" y="99" clip-path="url(#clipPath1)" width="3" rx="1" ry="1.5" height="5" stroke="none" />
      <text x="110" y="103" clip-path="url(#clipPath1)" fill="rgb(51,51,153)" stroke="none" xml:space="preserve">N
      </text>
      <text font-size="3" x="124" y="93" clip-path="url(#clipPath1)" fill="rgb(51,51,153)" stroke="none" xml:space="preserve">
      </text>
      <text font-size="3" x="137" y="100" clip-path="url(#clipPath1)" fill="rgb(51,51,153)" stroke="none" xml:space="preserve">
      </text>
      <text font-size="3" x="147" y="93" clip-path="url(#clipPath1)" fill="rgb(51,51,153)" stroke="none" xml:space="preserve">
      </text>
      <text font-size="3" x="160" y="100" clip-path="url(#clipPath1)" fill="rgb(51,51,153)" stroke="none" xml:space="preserve">
      </text>
      <text font-size="3" x="171" y="93" clip-path="url(#clipPath1)" fill="rgb(51,51,153)" stroke="none" xml:space="preserve">
      </text>
      <text font-size="3" x="172" y="80" clip-path="url(#clipPath1)" fill="rgb(51,51,153)" stroke="none" xml:space="preserve">
      </text>
      <text font-size="3" x="159" y="72" clip-path="url(#clipPath1)" fill="rgb(51,51,153)" stroke="none" xml:space="preserve">
      </text>
      <text font-size="3" x="148" y="80" clip-path="url(#clipPath1)" fill="rgb(51,51,153)" stroke="none" xml:space="preserve">
      </text>
      <rect x="16" y="72" clip-path="url(#clipPath1)" width="3" rx="1" ry="1.5" height="5" stroke="none" />
      <text x="16" y="76" clip-path="url(#clipPath1)" fill="red" stroke="none" xml:space="preserve">O
      </text>
      <rect x="181" y="72" clip-path="url(#clipPath1)" width="3" rx="1" ry="1.5" height="5" stroke="none" />
      <text x="181" y="76" clip-path="url(#clipPath1)" fill="red" stroke="none" xml:space="preserve">O
      </text>
      <rect x="181" y="99" clip-path="url(#clipPath1)" width="3" rx="1" ry="1.5" height="5" stroke="none" />
      <text x="181" y="103" clip-path="url(#clipPath1)" fill="red" stroke="none" xml:space="preserve">O
      </text>
      <rect x="16" y="99" clip-path="url(#clipPath1)" width="3" rx="1" ry="1.5" height="5" stroke="none" />
      <text x="16" y="103" clip-path="url(#clipPath1)" fill="red" stroke="none" xml:space="preserve">O
      </text>
      <rect x="0" y="79" clip-path="url(#clipPath1)" width="3" rx="1" ry="1.5" height="5" stroke="none" />
      <rect x="3" y="81" clip-path="url(#clipPath1)" width="2" rx="0.5" ry="1" height="3" stroke="none" />
      <rect x="5" y="79" clip-path="url(#clipPath1)" width="3" rx="1" ry="1.5" height="5" stroke="none" />
      <text x="0" y="83" clip-path="url(#clipPath1)" fill="black" stroke="none" xml:space="preserve">H
      </text>
      <text font-size="3" x="3" y="84" clip-path="url(#clipPath1)" fill="black" stroke="none" xml:space="preserve">3
      </text>
      <text x="5" y="83" clip-path="url(#clipPath1)" fill="black" stroke="none" xml:space="preserve">C
      </text>
      <rect x="0" y="92" clip-path="url(#clipPath1)" width="3" rx="1" ry="1.5" height="5" stroke="none" />
      <rect x="3" y="94" clip-path="url(#clipPath1)" width="2" rx="0.5" ry="1" height="3" stroke="none" />
      <rect x="5" y="92" clip-path="url(#clipPath1)" width="3" rx="1" ry="1.5" height="5" stroke="none" />
      <text x="0" y="96" clip-path="url(#clipPath1)" fill="black" stroke="none" xml:space="preserve">H
      </text>
      <text font-size="3" x="3" y="97" clip-path="url(#clipPath1)" fill="black" stroke="none" xml:space="preserve">3
      </text>
      <text x="5" y="96" clip-path="url(#clipPath1)" fill="black" stroke="none" xml:space="preserve">C
      </text>
      <rect x="192" y="79" clip-path="url(#clipPath1)" width="6" rx="2" ry="1.5" height="5" stroke="none" />
      <rect x="198" y="81" clip-path="url(#clipPath1)" width="2" rx="0.5" ry="1" height="3" stroke="none" />
      <text x="192" y="83" clip-path="url(#clipPath1)" fill="black" stroke="none" xml:space="preserve">CH
      </text>
      <text font-size="3" x="198" y="84" clip-path="url(#clipPath1)" fill="black" stroke="none" xml:space="preserve">3
      </text>
      <rect font-size="3" x="192" y="92" clip-path="url(#clipPath1)" width="6" rx="2" ry="1.5" height="5" stroke="none" />
      <rect font-size="3" x="198" y="94" clip-path="url(#clipPath1)" width="2" rx="0.5" ry="1" height="3" stroke="none" />
      <text x="192" y="96" clip-path="url(#clipPath1)" fill="black" stroke="none" xml:space="preserve">CH
      </text>
      <text font-size="3" x="198" y="97" clip-path="url(#clipPath1)" fill="black" stroke="none" xml:space="preserve">3
      </text>
      <text font-size="3" x="57" y="110" clip-path="url(#clipPath1)" fill="black" stroke="none" xml:space="preserve">
      </text>
      <text font-size="3" x="76" y="110" clip-path="url(#clipPath1)" fill="black" stroke="none" xml:space="preserve">
      </text>
      <rect font-size="3" x="86" y="109" clip-path="url(#clipPath1)" width="6" rx="2" ry="1.5" height="5" stroke="none" />
      <rect font-size="3" x="92" y="111" clip-path="url(#clipPath1)" width="2" rx="0.5" ry="1" height="3" stroke="none" />
      <text x="86" y="113" clip-path="url(#clipPath1)" fill="black" stroke="none" xml:space="preserve">CH
      </text>
      <text font-size="3" x="92" y="114" clip-path="url(#clipPath1)" fill="black" stroke="none" xml:space="preserve">3
      </text>
      <rect font-size="3" x="76" y="122" clip-path="url(#clipPath1)" width="6" rx="2" ry="1.5" height="5" stroke="none" />
      <rect font-size="3" x="82" y="124" clip-path="url(#clipPath1)" width="2" rx="0.5" ry="1" height="3" stroke="none" />
      <text x="76" y="126" clip-path="url(#clipPath1)" fill="black" stroke="none" xml:space="preserve">CH
      </text>
      <text font-size="3" x="82" y="127" clip-path="url(#clipPath1)" fill="black" stroke="none" xml:space="preserve">3
      </text>
      <rect font-size="3" x="44" y="118" clip-path="url(#clipPath1)" width="3" rx="1" ry="1.5" height="5" stroke="none" />
      <text x="44" y="122" clip-path="url(#clipPath1)" fill="rgb(51,51,153)" stroke="none" xml:space="preserve">N
      </text>
      <rect x="110" y="113" clip-path="url(#clipPath1)" width="6" rx="2" ry="1.5" height="5" stroke="none" />
      <rect x="116" y="115" clip-path="url(#clipPath1)" width="2" rx="0.5" ry="1" height="3" stroke="none" />
      <text x="110" y="117" clip-path="url(#clipPath1)" fill="black" stroke="none" xml:space="preserve">CH
      </text>
      <text font-size="3" x="116" y="118" clip-path="url(#clipPath1)" fill="black" stroke="none" xml:space="preserve">3
      </text>
    </g>
  </g>
</svg>
