<?xml version="1.0" encoding="UTF-8" standalone="no"?>
<svg xmlns="http://www.w3.org/2000/svg" height="724" width="724">
<path d="m361.9 722-359.9-359.9 359.9-359.81 359.81 359.81z" fill="#f00"/>
<path fill="#fff" d="m362.04 664.8-302.84-302.84 302.84-302.76 302.76 302.76z"/>
<g stroke="#000" stroke-width="5">
<path d="m218 361.78h281.2"/>
<path stroke-width="4" d="m255.9 434.78 34.61-20.01 1.623-85.4-42.72-23.25s-6.489-4.326-15.68-1.622c-3.245 1.082-7.57 2.163-7.57 2.163s23.25-19.47 27.58-17.84c4.326 1.622 34.61 16.22 34.61 16.22s-3.245-22.71-11.36-29.2c-8.111-6.489-39.47-31.36-39.47-31.36v-5.948l42.72 25.96s1.622-24.87-7.029-39.47c-8.652-14.6-15.14-27.58-15.14-27.58l2.704-2.163 21.09 32.44 7.03-22.17 4.326-1.082s-5.408 31.36-1.623 41.1 17.84 62.73 17.84 62.73l21.09-30.28s0.541-12.44-0.541-21.09-2.704-48.67-2.704-48.67h3.785l5.948 43.8 34.05-39.47v4.326s-33.51 42.18-31.89 51.37c1.622 9.193 3.244 14.6-2.704 27.58s-9.733 22.17-9.733 22.17 17.84-21.09 25.96-22.71c8.111-0.541 18.91 0.541 26.48-5.948s25.96-27.04 25.96-27.04l-28.66 44.34s-13.51 0.541-18.91 6.489c-5.408 5.948-27.58 31.36-27.58 31.36v58.36l36.76 18.38-44.87 6.489-10.82 15.68-14.6-12.44z"/>
<path stroke-width="4" d="m276.4 476.88c10.82-4.866 89.76-38.39 89.76-36.23s90.84-28.12 90.84-28.12l32.98 23.79-31.36 15.14 42.18 3.785-11.36 15.14h23.25l0.541 16.76-294.2-1.618s49.23-14.59 57.34-8.646z"/>
<path d="m349.4 439.68c10.29-4.288 27.02-11.36 36.76-25.42 10.06-14.54 45.96-75.67 95.17-70.8-2.704 6.489-11.36 20.55-11.36 20.55l35.15-10.82s0.541 46.47-65.97 76.21c-30.82 10.82-37.31 11.36-40.02 15.14-2.704 3.785-15.14 22.71-15.14 22.71l-55-24.4s14.06-0.539 20.55-3.242z" fill="#fff"/>
</g>
<path d="m472.7 380.48c0-2.831 2.663-5.126 5.948-5.126 3.284 0 5.947 2.295 5.947 5.126 0 2.837-2.663 5.138-5.947 5.138-3.285 0-5.948-2.301-5.948-5.138z"/>
</svg>