<?xml version="1.0" encoding="UTF-8" standalone="no"?>
<!-- Created with Inkscape (http://www.inkscape.org/) -->
<svg xmlns:svg="http://www.w3.org/2000/svg" xmlns="http://www.w3.org/2000/svg" version="1.0" width="579pt" height="579pt" viewBox="0 0 579 579">
  <path d="M 25.301165,289.67173 289.32988,553.70045 553.40261,289.62771 C 465.35023,201.67571 377.47182,113.54943 289.3739,25.643028 L 25.301165,289.67173 z" style="fill:#ffffff;stroke:none"/>
  <path d="M 147.65941,148.01233 6,289.67173 147.66886,431.34059 289.32827,573 431.01602,431.31224 572.70378,289.62449 431.06327,147.98398 C 353.16571,70.086424 289.40386,6.34347 289.37551,6.34347 c -0.0284,0 -63.79965,63.752403 -141.7161,141.66886 z M 408.62189,170.42535 527.82103,289.62449 408.57465,408.87087 289.31882,528.1267 170.12913,408.87087 50.948893,289.60559 170.13858,170.41591 C 235.69574,104.85874 289.34716,51.22622 289.37551,51.22622 c 0.0283,0 53.68922,53.64197 119.24638,119.19913 z" style="fill:#ff0000;stroke:none"/>
  <path d="m 384.34375,220.5625 c -0.65534,0.0124 -1.29083,0.0377 -1.9375,0.0937 -4.21661,0.37796 -8.01716,1.70517 -11.3125,3.9375 -1.33468,0.90946 -3.79747,3.33339 -4.71875,4.65625 -4.93711,7.11038 -4.13423,15.65885 2.03125,21.8125 1.97247,1.9843 3.44114,3.0487 5.96875,4.3125 3.00005,1.51184 4.34505,1.84028 13.15625,3.28125 3.96857,0.64963 18.265,3.03711 31.8125,5.28125 13.5475,2.24414 33.43926,5.52901 44.1875,7.3125 13.55931,2.24414 19.80388,3.33045 20.40625,3.53125 1.40554,0.48425 2.7079,1.25515 3.59375,2.09375 0.626,0.60237 0.8125,0.8339 0.8125,1.09375 0,0.20079 -0.28935,0.82603 -0.75,1.59375 -1.55907,2.59848 -2.31372,4.42466 -2.65625,6.5625 -0.25985,1.67719 -0.16684,5.84001 0.1875,7.8125 0.75592,4.22843 2.54179,6.84545 5.1875,7.625 0.27166,0.0827 0.5,0.21801 0.5,0.3125 0,0.3071 -0.60875,2.95517 -1.1875,5.1875 -0.70868,2.76384 -1.39711,5.05305 -3.0625,10.25 -2.16146,6.74423 -2.22022,7.00094 -2.03125,9.375 0.44882,5.37412 2.26324,9.08757 5.0625,10.375 1.86619,0.86222 4.23865,0.79284 6.1875,-0.1875 3.21266,-1.61814 5.29921,-6.23955 5.5,-12.0625 0.0945,-2.64573 -0.138,-3.74791 -1.96875,-9.5 -0.57875,-1.81892 -1.26721,-4.12105 -1.5625,-5.125 -1.11025,-3.79141 -2.2286,-9.01108 -1.96875,-9.09375 0.36615,-0.12992 1.91092,-1.25049 2.3125,-1.6875 1.07483,-1.1575 2.09005,-3.0103 2.5625,-4.6875 0.49607,-1.74806 0.60556,-2.72584 0.59375,-5.3125 0,-4.05126 -0.43944,-5.83951 -2.1875,-8.875 -1.4764,-2.55122 -1.86934,-3.57477 -2.09375,-5.5 -0.17716,-1.42916 -0.1287,-2.61435 0.34375,-5.96875 0.33071,-2.37406 3.03318,-20.82901 4.78125,-32.6875 0.4252,-2.88195 0.78125,-5.31176 0.78125,-5.40625 0,-0.11811 -0.095,-0.11466 -0.4375,0.0625 -0.80316,0.40159 -1.67417,1.21158 -3.375,3.125 -2.5276,2.85831 -4.04474,3.92543 -6.3125,4.46875 -0.87404,0.2126 -1.29377,0.22294 -2.6875,0.1875 -1.47641,-0.0472 -2.39087,-0.19043 -8.34375,-1.3125 -27.78006,-5.22057 -83.47771,-15.30361 -90.8125,-16.4375 -2.5158,-0.38977 -4.59648,-0.53709 -6.5625,-0.5 z m -49.1875,3.3125 c -2.36225,-0.0236 -3.65991,0.0263 -4.6875,0.15625 -4.39378,0.54332 -56.73001,9.744 -85.21875,15 -6.33083,1.1575 -6.8799,1.26181 -8.25,1.25 -1.70082,0 -2.82503,-0.24481 -4.21875,-0.90625 -1.80712,-0.86221 -3.06195,-1.91874 -5.625,-4.8125 -0.88584,-0.99214 -1.88041,-2.02141 -2.1875,-2.28125 -0.77955,-0.66144 -1.56176,-1.157 -1.65625,-1.0625 -0.0472,0.0354 0.61071,4.07889 1.4375,8.96875 2.46855,14.51603 4.99015,29.66581 5.25,31.4375 0.42521,2.90557 0.30242,5.58902 -0.40625,8.1875 -0.43703,1.61814 -0.97635,3.00043 -2.5,6.4375 -2.14965,4.85442 -2.53125,6.31047 -2.53125,9.0625 0,1.86617 0.15944,2.8415 0.75,4.625 0.79135,2.36225 2.13679,4.39811 3.625,5.4375 l 0.28125,0.1875 -0.1875,1.6875 c -0.43703,3.89771 -1.32576,8.00976 -2.625,12.25 -0.22441,0.74411 -1.16485,3.58829 -2.0625,6.28125 -2.07878,6.2009 -2.17644,6.59221 -2.09375,9.78125 0.0354,1.4646 0.13189,2.8622 0.25,3.5 0.90946,4.98435 2.85476,7.82184 5.9375,8.625 0.86223,0.22442 2.9739,0.22442 3.8125,0 1.4646,-0.38976 2.79255,-1.31739 3.84375,-2.6875 1.85436,-2.43311 3.00492,-6.33729 2.875,-9.65625 -0.0472,-1.39372 -0.10776,-1.73661 -1.3125,-6.4375 -2.25595,-8.79938 -3.02189,-12.10917 -3.71875,-16.125 -0.33071,-1.85436 -0.84375,-5.51991 -0.84375,-5.96875 0,-0.14173 0.16781,-0.1875 0.6875,-0.1875 2.95281,0 5.52655,-2.15668 6.625,-5.59375 0.60237,-1.86617 0.78125,-3.15422 0.78125,-5.90625 0.0118,-4.22843 -0.61216,-6.86925 -2.75,-11.59375 -0.82679,-1.85436 -1.032,-2.44414 -0.9375,-3.09375 0.2126,-1.60634 1.5905,-2.86834 4,-3.71875 1.4646,-0.5315 1.51889,-0.52996 17.0625,-3.1875 7.40565,-1.27561 21.47791,-3.68599 31.28125,-5.375 22.24057,-3.82685 33.10883,-5.6951 42.15625,-7.21875 3.8859,-0.64963 7.56151,-1.33465 8.1875,-1.5 5.12609,-1.32286 10.00069,-4.51616 12.90625,-8.4375 3.29534,-4.45284 4.25421,-9.50802 2.71875,-14.46875 -1.72444,-5.59852 -6.8072,-10.02137 -13.46875,-11.78125 -2.49218,-0.66143 -3.70317,-0.82776 -7.1875,-0.875 z m 51.65625,4.25 c 2.25594,0.0472 2.56192,0.0844 6.625,0.78125 9.30726,1.59453 42.81173,7.40563 83.3125,14.46875 8.79939,1.53546 16.05831,2.83956 16.09375,2.875 0.0591,0.0827 -1.76106,12.19858 -1.84375,12.28125 -0.0236,0.0236 -9.83589,-0.80436 -21.8125,-1.84375 -46.09931,-4.01583 -71.6814,-6.2052 -81.4375,-6.9375 -4.24024,-0.3189 -5.85824,-0.49704 -7.5,-0.875 -6.27178,-1.45279 -9.1875,-4.56486 -9.1875,-9.75 0,-4.64182 4.03951,-8.85134 9.96875,-10.375 2.04335,-0.51969 3.20639,-0.66044 5.78125,-0.625 z m -51.875,3.53125 c 1.43285,0.004 3.64442,0.13952 4.40625,0.28125 4.13394,0.7323 7.19658,2.65841 8.53125,5.375 0.66144,1.33466 0.88337,2.42074 0.8125,4.0625 -0.29528,6.38989 -5.32536,10.07676 -14.65625,10.75 -7.5592,0.53151 -56.31968,5.05382 -93.3125,8.65625 -2.59848,0.24804 -4.77706,0.45349 -4.8125,0.40625 -0.0827,-0.0945 -1.90281,-12.21039 -1.84375,-12.28125 0.0591,-0.0472 4.18148,-0.75256 48.34375,-8.40625 34.6542,-6.00011 48.98349,-8.48326 50.09375,-8.625 0.51969,-0.0709 1.11934,-0.13262 1.34375,-0.15625 0.22441,-0.0266 0.61613,-0.0638 1.09375,-0.0625 z M 543.125,275.5625 c -0.0354,0 -0.48031,0.50319 -1,1.09375 -0.5197,0.60237 -1.6961,1.8676 -2.59375,2.8125 -3.55519,3.69693 -4.65796,5.31123 -5.4375,7.96875 -0.61419,2.13784 -0.59893,4.34492 0.0625,7.6875 0.47245,2.39769 0.47319,3.27164 -0.0937,4.5 -0.49608,1.06301 -0.69954,1.28322 -1.65625,1.53125 -3.09455,0.8386 -5.34225,2.88231 -7.03125,6.4375 -0.87404,1.84255 -1.04651,2.62027 -1.09375,5.21875 -0.0354,2.43311 -0.0996,2.79304 -0.84375,4.28125 -1.32286,2.66935 -3.09569,4.56914 -4.84375,5.21875 -0.31891,0.1063 -0.59719,0.234 -0.65625,0.28125 -0.0709,0.0709 1.49507,7.27632 1.625,7.40625 0.0709,0.0709 2.1865,-0.6811 2.8125,-1 3.53156,-1.77169 6.56714,-5.27354 8.46875,-9.75 0.81498,-1.92524 0.97983,-2.65422 1.0625,-5.40625 l 0.0625,-2.4375 0.4375,-0.8125 c 0.22441,-0.44882 0.62279,-1.06791 0.90625,-1.375 0.43703,-0.48426 0.59471,-0.57628 1.46875,-0.8125 2.81107,-0.76774 4.69584,-2.42219 6.125,-5.375 0.68505,-1.41735 0.99852,-2.50685 1.1875,-4.125 0.16536,-1.44096 0.0315,-2.78685 -0.5,-5.5625 -0.74411,-3.81502 -0.41863,-4.56045 3.65625,-8.8125 1.11026,-1.1575 2.41017,-2.58513 2.90625,-3.1875 0.89765,-1.0512 0.9001,-1.06865 0.6875,-1.28125 -0.31891,-0.3189 -5.63608,-4.5 -5.71875,-4.5 z m -26.84375,5.8125 c -0.0354,0.0591 -0.11662,0.64689 -0.1875,1.34375 -0.24804,2.32682 0.13975,4.58214 1.25,7.0625 1.07482,2.40949 1.20645,3.08191 0.78125,4.59375 -0.34252,1.27561 -0.35454,1.27926 -2.46875,2.53125 -2.53943,1.48822 -3.9087,3.53241 -4.59375,6.875 -0.40159,2.00791 -0.45497,3.38282 -0.21875,5.875 0.22441,2.49217 0.18086,3.03785 -0.46875,5.1875 -0.8386,2.75201 -1.11954,3.15301 -3.8125,5.5625 -1.06301,0.9449 -1.92987,1.78469 -1.90625,1.84375 0.0591,0.16535 4.93676,5.53125 5.03125,5.53125 0.14174,0 3.68921,-3.2239 4.46875,-4.0625 1.4646,-1.57089 2.44191,-3.38749 3.375,-6.28125 0.89765,-2.78745 0.99655,-3.27013 0.9375,-6.1875 -0.0827,-4.96073 -0.0716,-5.36909 0.0937,-6.125 0.23622,-1.08664 0.51326,-1.40033 1.8125,-2.15625 2.14965,-1.24019 3.3051,-2.39145 4.25,-4.28125 0.95671,-1.91343 1.32431,-3.6343 1.3125,-5.9375 -0.0236,-2.25594 -0.12349,-2.60574 -1.8125,-6.5625 -0.40159,-0.93309 -0.42569,-1.06469 -0.4375,-2.28125 l 0,-1.28125 -2.40625,-0.4375 c -1.32286,-0.24804 -2.97883,-0.55757 -3.6875,-0.6875 -0.69686,-0.12992 -1.28889,-0.17225 -1.3125,-0.125 z m -74.65625,1.1875 c -0.0709,0 -1.3826,1.03689 -2.90625,2.3125 -1.52365,1.27561 -2.78125,2.38608 -2.78125,2.46875 0,0.0827 0.89393,1.1272 1.96875,2.34375 1.07483,1.20475 2.15821,2.50885 2.40625,2.875 1.01576,1.50002 2.22146,4.55484 2.375,6.03125 0.0473,0.56694 0.006,1.22439 -0.21875,2.5 -0.16535,0.9449 -0.33958,2.10949 -0.375,2.59375 -0.21261,2.32681 0.67223,5.54549 2.125,7.71875 1.27563,1.92524 2.83829,3.08979 5.53125,4.09375 1.21656,0.44882 1.43799,0.6176 1.875,1.5625 0.41339,0.88584 0.5438,1.64689 0.4375,2.34375 -0.49608,3.09455 -0.39225,3.9564 0.8125,6.53125 2.18509,4.63001 5.4714,8.27851 8.625,9.625 1.11026,0.46064 2.27289,0.75149 2.34375,0.5625 0.0354,-0.1063 1.09375,-7.20201 1.09375,-7.34375 0,-0.0236 -0.27066,-0.17839 -0.625,-0.34375 -1.24018,-0.60237 -3.07994,-2.89045 -4.34375,-5.40625 l -0.59375,-1.1875 0.21875,-1.125 c 0.38977,-2.17327 0.0783,-4.29819 -0.9375,-6.625 -0.66142,-1.48822 -1.25367,-2.37868 -2.28125,-3.40625 -0.9449,-0.9449 -1.97561,-1.58094 -3.59375,-2.21875 -1.85436,-0.72048 -2.05118,-0.85579 -2.5,-1.8125 -0.64961,-1.38191 -0.69046,-2.12964 -0.3125,-4.03125 0.34253,-1.75988 0.40429,-4.44165 0.15625,-5.90625 -0.50788,-2.89376 -2.29007,-6.93425 -4.15625,-9.34375 -0.96852,-1.2638 -4.1902,-4.82431 -4.34375,-4.8125 z m 23.21875,4.21875 -0.375,0.0312 c -0.22441,0.0118 -0.9712,0.0618 -1.65625,0.15625 -0.68505,0.0827 -2.22094,0.29576 -3.4375,0.4375 l -2.1875,0.25 0.0625,0.625 c 0.1063,1.02759 -0.19684,2.45789 -1,4.84375 -0.87404,2.63391 -1.09375,3.84569 -1.09375,5.59375 0,3.02367 1.02677,5.44288 3.09375,7.25 0.40157,0.34253 1.52385,1.124 2.46875,1.75 0.9449,0.61417 1.88878,1.32628 2.125,1.5625 0.51969,0.53151 0.7687,1.2987 0.875,2.5625 0.0591,0.76772 0.0182,1.05363 -0.3125,2.1875 -0.69686,2.43313 -0.57826,4.33263 0.4375,7.25 1.08664,3.12997 2.32819,4.96425 5.8125,8.53125 l 1.71875,1.75 2.6875,-2.6875 2.6875,-2.6875 -1.6875,-1.75 c -1.98429,-2.07878 -2.8713,-3.18429 -3.34375,-4.09375 -0.40159,-0.74411 -1.11319,-2.85186 -1.125,-3.3125 0,-0.16536 0.14714,-0.765 0.3125,-1.34375 0.47245,-1.59451 0.58343,-2.99086 0.40625,-4.65625 -0.25985,-2.53943 -0.86957,-4.31099 -2.0625,-6 -0.77955,-1.11025 -1.92959,-2.11465 -3.9375,-3.4375 -1.01576,-0.64963 -1.99089,-1.36171 -2.15625,-1.5625 -0.38976,-0.47245 -0.53272,-1.30929 -0.34375,-2.21875 0.0827,-0.36615 0.39985,-1.42248 0.71875,-2.34375 1.02758,-3.00006 1.19095,-3.81959 1.25,-6.40625 l 0.0625,-2.28125 z M 272.0625,311.375 c -0.0473,0 -0.99111,0.91681 -2.125,2.0625 -1.13387,1.1575 -2.47267,2.63581 -2.96875,3.25 -2.315,2.89375 -3.80043,5.67245 -4.34375,8.09375 -0.24804,1.06301 -0.24041,4.99897 0.0312,7.125 0.11811,0.9449 0.25,2.19069 0.25,2.78125 0.0118,1.878 -0.41481,2.37449 -2.8125,3.4375 -5.58671,2.46855 -6.6518,4.05031 -7.21875,10.59375 -0.25984,2.97644 -0.37622,3.7212 -0.71875,4.40625 -0.31891,0.61419 -1.4722,2.42225 -1.53125,2.375 -0.0118,-0.0236 0.0576,-0.36786 0.1875,-0.78125 0.50789,-1.61814 0.44686,-3.29866 -0.25,-6.0625 -0.50787,-1.9961 -0.54257,-3.41902 -0.0937,-4.28125 0.47245,-0.87402 1.15547,-1.59939 2.75,-2.875 2.38587,-1.91343 3.53296,-3.22143 4.3125,-4.875 0.56694,-1.22838 0.75,-2.13604 0.75,-3.71875 0,-1.62995 -0.17395,-2.67982 -0.90625,-5.65625 -0.67324,-2.74021 -0.93406,-4.34742 -0.875,-5.375 0.0354,-0.67324 0.0285,-0.83956 -0.125,-0.875 -0.55513,-0.16535 -7.23401,-1.27781 -7.28125,-1.21875 -0.0354,0.0354 -0.109,0.58095 -0.15625,1.21875 -0.18897,2.13784 0.10505,4.44726 1.15625,8.6875 0.27166,1.06301 0.52707,2.32824 0.5625,2.8125 0.0591,0.88584 0.062,0.87892 -0.375,1.375 -0.23622,0.27166 -1.11071,1.0455 -1.9375,1.71875 -2.76384,2.26775 -4.04747,3.8191 -4.96875,5.96875 -0.54331,1.2638 -0.67839,1.83191 -0.84375,3.34375 -0.14174,1.41735 -0.0113,2.85603 0.4375,4.78125 0.59056,2.57486 0.59105,2.47956 0.4375,3.09375 -0.2126,0.76774 -1.21013,2.80165 -1.8125,3.6875 -0.80316,1.18112 -1.78492,2.25934 -2.8125,3.0625 -0.60237,0.47245 -0.93405,0.81176 -0.875,0.90625 0.36615,0.61419 4.25344,6.09375 4.3125,6.09375 0.0472,0 0.6122,-0.42961 1.25,-0.9375 1.31105,-1.0512 2.60579,-2.40844 3.5625,-3.625 l 0.65625,-0.8125 0.0312,1.96875 0.0312,1.9375 0.5625,-0.0312 c 1.68901,-0.15355 3.00983,-0.54133 4.25,-1.25 2.46855,-1.39373 4.6978,-3.9276 6.375,-7.1875 0.90946,-1.77169 1.15746,-2.80578 1.5,-6.65625 0.23622,-2.64571 0.37696,-3.50196 0.625,-3.75 0.1063,-0.1063 0.69069,-0.42765 1.28125,-0.6875 4.193,-1.83075 5.99456,-3.26545 7.1875,-5.78125 1.00395,-2.11421 1.21826,-4.38354 0.78125,-8.28125 -0.33071,-3.01188 -0.35015,-4.93846 -0.0312,-5.8125 0.70868,-1.87799 3.4564,-5.40719 6.03125,-7.78125 l 0.84375,-0.78125 -2.5,-2.84375 c -1.3701,-1.5709 -2.5465,-2.84375 -2.59375,-2.84375 z m -85.46875,2.03125 c -0.0472,-0.0118 -1.31248,0.99038 -2.8125,2.21875 -3.21266,2.65753 -3.06741,2.52559 -2.9375,2.75 0.0591,0.0945 0.98767,1.15081 2.0625,2.34375 3.61424,4.00401 4.43502,5.04155 5.25,6.71875 0.46064,0.95671 0.46457,1.04106 0.5,2.28125 0.0354,1.09844 0.006,1.57772 -0.3125,3.125 -0.20079,1.00395 -0.40207,2.33513 -0.4375,2.9375 -0.16536,2.68116 0.82133,5.43377 2.6875,7.40625 1.11025,1.18112 2.09199,1.88556 4.3125,3.03125 2.18509,1.13388 2.70741,1.52041 3.15625,2.40625 l 0.375,0.6875 -0.0312,2.65625 c -0.0354,2.95281 0.0726,3.79304 0.78125,5.28125 0.77955,1.66539 3.05014,4.15177 5.625,6.21875 1.29924,1.03939 3.7613,2.73375 4.8125,3.3125 l 0.5625,0.3125 0.25,-0.53125 0.28125,-0.53125 0.84375,1.15625 c 1.31105,1.79531 3.51796,4.35555 3.71875,4.34375 0.1063,-0.0118 1.40622,-1.14171 2.90625,-2.5 l 2.71875,-2.46875 -0.40625,-0.46875 c -2.46855,-2.90556 -4.38434,-5.54993 -5.1875,-7.15625 -0.50789,-0.99215 -0.5224,-1.39315 -0.15625,-4.0625 0.34253,-2.55123 0.3696,-6.05976 0.0625,-7.40625 -0.57875,-2.45674 -2.0366,-4.21354 -5.34375,-6.375 -1.0394,-0.68505 -2.12278,-1.4589 -2.40625,-1.71875 l -0.5,-0.5 0.0625,-0.90625 c 0.0472,-0.61419 0.27066,-1.49112 0.625,-2.625 C 208.69564,332.09565 209,330.24857 209,327.4375 l 0,-1.8125 -0.84375,0.0625 c -0.47245,0.0354 -1.9237,0.11664 -3.1875,0.1875 -1.2638,0.0709 -2.54429,0.15207 -2.875,0.1875 l -0.625,0.0625 -0.0625,1.625 c -0.0827,1.79531 -0.33439,2.95517 -1.03125,5.1875 -0.86222,2.7284 -0.98819,3.45814 -1,5.3125 l 0,1.6875 -1.25,-0.65625 c -1.52365,-0.77955 -2.02485,-1.1705 -2.34375,-1.84375 -0.33071,-0.67324 -0.32309,-1.39711 0.0312,-3.0625 0.79135,-3.70873 0.69146,-6.63628 -0.3125,-9.1875 -0.92128,-2.36225 -2.5563,-4.77283 -5.34375,-7.84375 -0.63781,-0.72049 -1.70594,-1.88507 -2.34375,-2.59375 -0.6378,-0.72049 -1.18331,-1.33194 -1.21875,-1.34375 z m 278.4375,26.5625 c -0.0236,0 -0.47612,0.2089 -1.03125,0.46875 -3.6733,1.73625 -5.60593,2.10753 -12.03125,2.34375 -5.256,0.18898 -6.75686,0.3809 -8.375,1.125 -1.64176,0.75593 -2.89985,2.35331 -3.21875,4.125 -0.17716,0.92129 -0.0571,2.50711 0.25,3.59375 0.23622,0.85041 0.83169,2.12596 1.375,3 0.15355,0.24804 0.28125,0.43331 0.28125,0.46875 0,0.0236 -3.0954,0.0896 -6.875,0.125 -4.47646,0.0354 -7.27189,0.093 -7.96875,0.1875 -4.96073,0.67324 -8.37079,2.85944 -9.90625,6.34375 -0.36615,0.80316 -0.73745,2.25711 -0.84375,3.34375 -0.0709,0.68505 0.0923,2.42395 0.28125,3.15625 l 0.0625,0.28125 -2.9375,0 c -2.48036,0 -3.07797,0.0374 -4.09375,0.25 -3.74416,0.75591 -6.8388,3.0873 -8.46875,6.40625 -0.7323,1.50004 -0.94858,2.30755 -1.03125,3.9375 -0.21261,4.24025 2.31881,8.30804 6.5,10.375 2.04334,1.00396 3.71599,1.33194 6.5625,1.34375 l 1.71875,0 0,1.8125 c 0.0118,1.71263 0.0401,1.83142 0.40625,2.90625 0.9449,2.74021 2.81391,4.82846 5.625,6.28125 2.22051,1.13388 5.31541,1.875 7.9375,1.875 0.47245,0 0.84375,0.0465 0.84375,0.0937 -0.0118,0.0591 -0.0618,0.42274 -0.15625,0.8125 -0.61419,2.53942 0.40449,5.6038 2.625,7.8125 2.50399,2.50399 6.27254,3.9498 11.375,4.375 3.81504,0.3189 17.62397,0.87549 32.71875,1.3125 5.23239,0.15355 12.24082,0.15355 15.40625,0 10.31121,-0.49607 19.1377,-1.48964 24.5,-2.8125 3.51975,-0.87404 4.89189,-1.41826 10.21875,-3.875 2.52761,-1.15751 4.61241,-1.99974 6.21875,-2.53125 3.83865,-1.25199 8.08947,-1.94439 12.625,-2.0625 1.33468,-0.0354 2.53396,-0.0896 2.6875,-0.125 l 0.25,-0.0312 0,-3.8125 0,-3.78125 -2.4375,0.0625 c -5.4568,0.16535 -9.823,0.8265 -13.96875,2.03125 -2.81107,0.81497 -4.67979,1.53859 -9.15625,3.59375 -4.41741,2.04335 -6.51567,2.76007 -10,3.46875 -5.97649,1.21655 -15.80937,2.17002 -25.1875,2.40625 -5.30326,0.12993 -32.45529,-0.72195 -41.65625,-1.3125 -3.81503,-0.24804 -5.91041,-0.71135 -7.375,-1.65625 -0.68506,-0.43701 -1.34375,-1.16166 -1.34375,-1.46875 0,-0.44882 1.04303,-1.13656 2.53125,-1.65625 2.24414,-0.80316 1.2691,-0.74164 19.28125,-0.8125 l 16.34375,-0.0937 -3.625,-3.75 -3.59375,-3.71875 -20,-0.0625 c -21.87442,-0.0472 -20.38726,0.0136 -22.3125,-0.71875 -1.96066,-0.7441 -3.59326,-2.39196 -3.15625,-3.21875 0.28348,-0.53151 1.66851,-0.99434 3.59375,-1.21875 0.67324,-0.0709 7.37257,-0.125 18.15625,-0.125 l 17.09375,0 0,-3.78125 0,-3.78125 -24.75,0 -24.78125,-0.0625 -0.6875,-0.25 c -1.8898,-0.72049 -3.71334,-2.74949 -3.40625,-3.8125 0.27166,-0.95671 1.16829,-1.97267 2.125,-2.46875 1.21656,-0.61419 0.0566,-0.59375 26.75,-0.59375 l 24.75,0 0,-3.78125 0,-3.78125 -16.3125,0 c -8.98836,0 -16.93576,-0.0659 -17.65625,-0.125 -2.25595,-0.18899 -3.28665,-0.82157 -3.59375,-2.15625 -0.17716,-0.79135 0.0531,-1.40525 0.75,-2.03125 0.56694,-0.50788 1.14859,-0.75885 2.625,-1.125 0.46064,-0.11811 5.65344,-0.16389 24.46875,-0.1875 l 23.875,-0.0625 0.0625,1.8125 c 0.38976,10.15768 7.53247,17.18104 20.84375,20.5 2.23233,0.55512 7.52632,1.53618 7.65625,1.40625 0.0709,-0.0709 0.99655,-7.45276 0.9375,-7.5 -0.0236,-0.0236 -0.85579,-0.19021 -1.8125,-0.34375 -7.51196,-1.16933 -13.19285,-3.4554 -16.5,-6.65625 -1.24019,-1.19294 -2.02681,-2.3452 -2.59375,-3.65625 -0.61419,-1.41735 -0.7847,-2.16581 -0.84375,-3.9375 l -0.0937,-1.625 0.59375,0 c 0.56695,0 23.0625,-5.18257 23.0625,-5.3125 0,-0.0354 -2.82055,-0.55388 -6.28125,-1.15625 -3.44888,-0.61419 -6.36245,-1.12082 -6.46875,-1.15625 -0.16535,-0.0354 -0.21875,-0.18799 -0.21875,-0.625 l 0,-0.5625 0.96875,-0.28125 c 1.12206,-0.30709 3.95716,-1.37892 4.9375,-1.875 0.37796,-0.18898 1.09769,-0.57971 1.59375,-0.875 l 0.90625,-0.53125 1.78125,0.84375 c 2.51579,1.21655 5.39654,2.84419 11.125,6.28125 5.61034,3.36621 6.50146,3.85679 7.8125,4.1875 4.03945,1.02757 16.1812,2.125 23.46875,2.125 l 2.1875,0 0,-3.75 0,-3.75 -4.15625,-0.125 c -7.46471,-0.24804 -15.99158,-1.04133 -19.0625,-1.75 -0.87404,-0.2008 -0.63966,-0.0713 -6.25,-3.4375 -9.15373,-5.49223 -12.64043,-7.32503 -16.65625,-8.71875 l -1.5625,-0.53125 -1.03125,0.8125 c -1.85438,1.50002 -2.99627,2.18501 -4.96875,3 -3.08274,1.2638 -6.07522,1.85483 -9.9375,1.9375 -3.41345,0.0827 -5.59862,-0.15452 -8.46875,-0.875 -4.31111,-1.08664 -7.3304,-2.66875 -10.53125,-5.5625 -0.7323,-0.66144 -1.36319,-1.19931 -1.375,-1.1875 z m -259.1875,7.6875 c 0.0646,-0.0205 0.27878,0.13434 0.90625,0.5625 1.09845,0.7323 1.13681,0.77433 1.125,2.15625 0,1.27561 -0.38951,4.8152 -0.53125,4.96875 -0.0945,0.1063 -0.99016,-0.87892 -1.25,-1.375 -0.14174,-0.28346 -0.13755,-0.58684 -0.0312,-1.96875 0.12992,-1.53546 0.0293,-3.22735 -0.21875,-4.125 -0.031,-0.12402 -0.0388,-0.20643 0,-0.21875 z m 257.71875,1.15625 c 0.0472,0 0.61981,0.36368 1.28125,0.8125 3.92134,2.64573 8.26146,4.31002 13.28125,5.125 0.51969,0.0827 0.9375,0.19095 0.9375,0.25 0,0.0709 -3.92654,0.13262 -10.8125,0.15625 -9.5553,0.0236 -10.92936,0.0209 -11.96875,-0.15625 -2.81109,-0.46065 -5.14711,-1.59224 -6.8125,-3.28125 -1.07483,-1.09845 -1.07828,-1.10481 -0.0625,-1.1875 0.46064,-0.0354 1.7453,-0.0896 2.84375,-0.125 4.16936,-0.14172 7.19878,-0.51425 9.75,-1.1875 0.81498,-0.2126 1.51525,-0.39444 1.5625,-0.40625 z m -333.46875,19.46875 0,18.09375 0,18.0625 98.09375,0 98.09375,0 0,-18.0625 0,-18.09375 -35.65625,0 -35.625,0 -1,1.09375 c -4.39379,4.77174 -10.97573,7.67593 -19.5625,8.65625 -2.1969,0.25985 -6.96084,0.28691 -8.96875,0.0625 -1.97249,-0.2126 -4.6326,-0.74212 -6.15625,-1.25 -1.70083,-0.54332 -4.08758,-1.73498 -5.375,-2.65625 -1.84255,-1.31105 -3.71479,-3.36856 -4.71875,-5.1875 l -0.40625,-0.71875 -39.34375,0 -39.375,0 z" transform="scale(0.8,0.8)" style="fill:#000000;stroke:none"/>
</svg>