<?xml version="1.0" encoding="UTF-8" standalone="no"?>
<!-- Created with Inkscape (http://www.inkscape.org/) -->
<svg xmlns:svg="http://www.w3.org/2000/svg" xmlns="http://www.w3.org/2000/svg" version="1.0" width="579pt" height="579pt" viewBox="0 0 579 579">
  <path d="M 25.301165,289.67172 289.32987,553.70044 553.40261,289.6277 C 465.35022,201.6757 377.47182,113.54942 289.3739,25.643024 L 25.301165,289.67172 z" style="fill:#ffffff;stroke:none"/>
  <path d="M 147.65941,148.01233 6,289.67173 147.66886,431.34059 289.32827,573 431.01602,431.31224 572.70378,289.62449 431.06327,147.98398 C 353.16571,70.086424 289.40386,6.34347 289.37551,6.34347 c -0.0284,0 -63.79965,63.752403 -141.7161,141.66886 z M 408.62189,170.42535 527.82103,289.62449 408.5652,408.88032 289.31882,528.1267 170.12913,408.87087 50.939444,289.61504 170.13858,170.41591 C 235.69574,104.85874 289.34716,51.22622 289.37551,51.22622 c 0.0283,0 53.68922,53.64197 119.24638,119.19913 z" style="fill:#ff0000;stroke:none"/>
  <path d="m 363.0625,134.09375 c -0.8386,0.001 -1.717,0.0541 -3.1875,0.125 -9.67343,0.43701 -19.29781,2.9576 -28.15625,7.375 -9.01199,4.50009 -16.69254,10.43514 -23.53125,18.21875 -6.62611,7.53557 -12.14486,17.0751 -15.59375,26.9375 -4.86623,13.8664 -6.00595,27.84463 -3.75,46.1875 2.03154,16.47669 6.601,33.30385 13.15625,48.375 1.24018,2.87014 4.6257,9.71476 6.03125,12.21875 3.44887,6.14185 7.26765,11.84366 11,16.34375 0.60238,0.7441 0.875,1.13115 0.875,1.34375 -0.0236,1.01578 -2.56176,26.27289 -2.65625,26.34375 -0.0591,0.0591 -12.669,4.64803 -28,10.1875 -15.33101,5.53947 -28.13804,10.15133 -28.46875,10.28125 l -0.625,0.21875 0.1875,0.6875 c 0.86222,3.33077 3.77749,6.0871 7.25,6.9375 0.98034,0.23622 3.20029,0.2751 4.0625,0.0625 l 0.5,-0.0937 0.375,0.96875 c 0.90946,2.38588 2.63013,4.26474 4.96875,5.375 1.47641,0.70867 2.18108,0.85901 4,0.90625 l 1.59375,0.0312 0.1875,0.5625 c 0.90946,2.57486 2.70295,4.51819 5.21875,5.6875 2.27957,1.06301 4.58263,1.16291 7.5,0.3125 0.22442,-0.0709 0.27976,-0.006 0.46875,0.75 0.57875,2.37406 2.76619,4.32972 5.1875,4.625 0.50788,0.0591 0.99163,0.0861 1.0625,0.0625 0.0709,-0.0236 0.44217,-0.0777 0.84375,-0.125 l 0.71875,-0.0625 0.21875,0.8125 c 0.72047,2.69296 2.8314,5.16262 5.40625,6.34375 1.45279,0.67324 2.17687,0.8125 4.03125,0.8125 1.35829,0 1.83783,-0.0256 2.59375,-0.25 1.96066,-0.55514 3.81469,-1.80066 5.03125,-3.3125 0.38977,-0.48426 0.78051,-1.02977 0.875,-1.21875 l 0.1875,-0.3125 0.90625,0.53125 c 2.35044,1.40554 5.35772,1.73721 8.0625,0.875 0.70867,-0.22441 0.99582,-0.25074 1.03125,-0.15625 0.0236,0.0827 0.32554,0.53519 0.65625,1.03125 1.14569,1.77169 3.09914,3.41632 4.90625,4.125 l 0.8125,0.3125 -0.0625,0.875 c -0.0827,1.22838 0.19265,1.93084 1.03125,2.78125 0.77955,0.77954 1.45988,1.0625 2.59375,1.0625 1.84256,0 3.38952,-1.41925 3.53125,-3.25 0.0354,-0.38976 -0.003,-0.90059 -0.0625,-1.125 l -0.0937,-0.4375 1,-0.46875 c 2.88195,-1.38193 4.99334,-3.89364 5.84375,-7 C 352.98204,386.23645 353,385.73821 353,384.25 c 0,-2.16146 -0.17321,-3.09643 -1,-4.75 l -0.53125,-1.0625 0.40625,-0.0937 c 2.0906,-0.57875 3.21434,-3.02751 2.28125,-5 -0.28348,-0.61419 -1.06642,-1.43184 -1.5625,-1.65625 -0.17716,-0.0709 -0.3125,-0.1715 -0.3125,-0.21875 0,-0.0472 0.17003,-0.34916 0.40625,-0.65625 0.54333,-0.70867 1.13804,-1.8981 1.46875,-2.9375 0.20079,-0.6378 0.27707,-1.21257 0.3125,-2.5 l 0.0937,-1.6875 0.625,-0.28125 c 2.69297,-1.24017 4.88655,-4.11731 5.40625,-7.09375 0.49606,-2.85831 -0.10331,-5.41137 -1.875,-7.75 l -0.5,-0.65625 0.90625,0 c 1.0512,-0.0118 1.81494,-0.33784 2.5,-1.09375 0.7323,-0.81497 0.94931,-1.3772 0.9375,-2.59375 0,-0.92128 -0.36982,-1.75662 -1.03125,-2.40625 -0.70867,-0.70867 -1.27656,-0.9722 -2.375,-1.03125 -0.85041,-0.0473 -1.04624,-0.01 -1.625,0.25 l -0.65625,0.3125 -0.40625,-0.5625 c -0.22441,-0.3189 -0.58045,-0.72145 -0.78125,-0.875 C 355.22686,339.55191 354.11885,339 353.90625,339 c -0.46064,-0.0118 -0.48771,-0.21209 -0.0625,-1.0625 0.59056,-1.1575 1.10407,-2.68206 1.28125,-3.875 0.2126,-1.51184 0.0655,-3.95421 -0.3125,-5.3125 -0.16535,-0.60237 -0.3125,-1.12083 -0.3125,-1.15625 0,-0.0236 0.3366,-0.20546 0.75,-0.40625 2.16145,-1.08664 3.93085,-2.9601 4.78125,-5.0625 0.55514,-1.38192 0.6875,-2.09224 0.6875,-3.78125 0,-1.29924 -0.0686,-1.78714 -0.28125,-2.53125 -0.3071,-1.07483 -0.98375,-2.52532 -1.5625,-3.28125 L 358.4375,312 l 0.84375,-0.40625 c 1.59451,-0.76774 3.11366,-2.59986 3.5625,-4.3125 0.22441,-0.89765 0.22441,-2.6454 0,-3.53125 -0.36615,-1.40554 -1.3105,-2.82036 -2.5625,-3.8125 l -0.4375,-0.34375 0.40625,-0.625 c 0.64963,-1.01576 0.9375,-2.09446 0.9375,-3.5 l 0,-1.1875 0.84375,-0.15625 c 0.49607,-0.0827 1.21086,-0.30265 1.71875,-0.5625 0.48426,-0.23623 0.90969,-0.47637 0.96875,-0.5 0.0472,-0.0236 0.0625,0.4525 0.0625,1.03125 0,2.06698 0.5979,3.49654 2.0625,4.9375 l 1,0.96875 -0.25,0.90625 c -0.3189,1.31105 -0.29946,3.44314 0.0312,4.71875 0.66144,2.56305 2.34888,4.78615 4.6875,6.15625 0.80318,0.47245 0.80218,0.499 0.625,1.125 -0.0591,0.22441 -0.17913,0.9712 -0.25,1.65625 -0.37796,3.86228 1.11806,7.82648 4,10.53125 L 377.53125,325.875 377,326.15625 c -1.27561,0.66143 -2.55733,2.05903 -3.21875,3.5 -1.45279,3.1418 -0.49784,6.95246 2.21875,9.03125 0.36615,0.28346 0.83809,0.60064 1.0625,0.71875 0.22441,0.11811 0.44513,0.2382 0.46875,0.25 0.0118,0.0118 -0.1277,0.30191 -0.28125,0.65625 -1.19293,2.68115 -0.1873,6.00686 2.28125,7.625 0.36615,0.24804 0.69513,0.45694 0.71875,0.46875 0.0236,0.0236 -0.0187,0.25959 -0.125,0.53125 -1.03939,2.78745 -0.91587,6.70148 0.3125,9.40625 l 0.28125,0.59375 -0.5625,0.71875 -0.53125,0.6875 -0.5625,-0.375 c -1.7835,-1.22836 -4.26967,-0.5586 -5.25,1.4375 -0.46064,0.95671 -0.46064,2.16829 0,3.125 0.59056,1.21655 1.76745,1.99581 3.03125,2.03125 l 0.65625,0 0.0312,1.28125 c 0.0236,2.00791 0.44191,3.62201 1.375,5.5 l 0.5,1.03125 -0.28125,0.53125 c -0.87404,1.66539 -1.40699,4.33017 -1.3125,6.5625 0.12992,3.04731 1.07206,5.7315 2.84375,8.09375 l 0.75,1 -0.28125,0.5625 c -0.63781,1.25199 -0.80365,3.19585 -0.4375,4.625 0.56694,2.17327 2.42393,4.05731 4.65625,4.71875 0.86223,0.24802 2.79403,0.24802 3.65625,0 2.13784,-0.626 4.1053,-2.60871 4.625,-4.6875 0.14174,-0.5315 0.12475,-0.54231 0.65625,-0.625 0.95671,-0.12991 2.34054,-0.51648 3.25,-0.90625 1.2638,-0.5197 1.18946,-0.5037 1.4375,-0.0312 0.33071,0.61419 1.40034,1.56373 2.15625,1.90625 2.56305,1.16931 5.40426,0.16442 6.65625,-2.375 0.37796,-0.79135 0.40625,-0.873 0.40625,-2.125 0,-1.21655 -0.0207,-1.36908 -0.375,-2.125 -0.42521,-0.89765 -1.36909,-1.92273 -2.125,-2.3125 l -0.46875,-0.21875 0.28125,-0.75 c 0.16536,-0.40159 0.40132,-1.15599 0.53125,-1.6875 l 0.25,-0.96875 0.71875,0.15625 c 0.38976,0.0827 1.23719,0.18332 1.875,0.21875 l 1.15625,0.0937 0.375,0.6875 c 0.69686,1.29924 2.10135,2.42616 3.625,2.875 0.7323,0.2126 2.29059,0.25149 3.09375,0.0625 0.85041,-0.18897 1.93159,-0.7837 2.6875,-1.46875 l 0.6875,-0.65625 0.28125,0.6875 c 0.40159,0.96852 1.47588,2.05044 2.5625,2.59375 0.77955,0.37796 1.00441,0.42151 1.9375,0.46875 1.80712,0.0945 3.31961,-0.498 4.40625,-1.75 l 0.46875,-0.5625 0.5625,0.28125 c 0.86222,0.43703 1.81887,0.65625 3,0.65625 0.59056,0 1.38385,-0.093 1.75,-0.1875 2.315,-0.60236 4.15869,-2.45788 4.84375,-4.84375 0.38976,-1.33466 0.20794,-3.47094 -0.40625,-4.6875 l -0.25,-0.46875 0.4375,0.0625 c 0.22441,0.0472 0.56865,0.0896 0.78125,0.125 0.6378,0.0945 1.82183,-0.13385 2.625,-0.5 1.83074,-0.86223 3.15625,-2.86364 3.15625,-4.8125 l 0,-0.4375 0.4375,0.59375 c 1.06301,1.33468 2.55902,2.32972 4,2.625 0.80316,0.16536 2.19684,0.16536 3,0 2.30319,-0.47245 4.52263,-2.60305 5.125,-4.90625 0.0945,-0.38976 0.1875,-0.88878 0.1875,-1.125 0,-0.37796 0.0497,-0.47267 0.6875,-0.96875 1.19294,-0.9449 2.14221,-2.44165 2.4375,-3.90625 l 0.125,-0.71875 0.84375,0.0312 c 1.07483,0.0591 1.85383,-0.20594 2.5625,-0.84375 0.30709,-0.25985 0.69784,-0.70472 0.875,-1 0.28348,-0.49608 0.3125,-0.64811 0.3125,-1.6875 0,-0.626 -0.0271,-1.19512 -0.0625,-1.21875 -0.0354,-0.0354 -14.14656,-4.58552 -31.34375,-10.125 l -31.25,-10.0625 0,-4.84375 c -0.0118,-2.66934 -0.0465,-8.1328 -0.0937,-12.125 l -0.0937,-7.28125 0.65625,-0.75 c 4.31111,-4.97254 6.96451,-8.59759 10,-13.59375 4.15756,-6.87415 7.57621,-14.20259 10.8125,-23.25 6.6143,-18.46099 11.18255,-37.78438 12.8125,-54.34375 0.24804,-2.55123 0.33341,-9.04056 0.15625,-11.34375 -1.41735,-18.5791 -11.17344,-38.89686 -25.9375,-54.0625 -8.82301,-9.05923 -18.65456,-15.60991 -29.34375,-19.53125 -5.49223,-2.00791 -11.58182,-3.23597 -17.59375,-3.53125 -1.28152,-0.065 -2.06765,-0.0952 -2.90625,-0.0937 z M 246.40625,363.9375 c -0.26575,-0.001 -0.53001,0.0288 -0.9375,0.0937 -0.30709,0.0591 -0.87204,0.22909 -1.25,0.40625 -0.37796,0.16536 -3.04374,1.23349 -5.9375,2.34375 -17.9531,6.87415 -24.03391,9.26696 -25.6875,10.09375 -7.99621,4.02764 -13.8489,12.54019 -14.6875,21.375 -0.0709,0.81498 -0.125,7.42892 -0.125,18 l 0,16.71875 26.46875,26.84375 c 14.55146,14.77587 26.57701,26.9215 26.71875,26.96875 0.49606,0.14174 2.72883,0.0834 3.4375,-0.0937 1.71263,-0.43701 3.49605,-1.62571 4.5,-3.03125 0.24804,-0.33071 0.45694,-0.64444 0.46875,-0.65625 0,-0.0118 0.36366,0.12008 0.8125,0.25 1.25199,0.36615 3.91189,0.37796 5.1875,0 2.70477,-0.77955 4.93969,-2.62939 6.15625,-5.0625 0.69686,-1.38193 1.02706,-2.61316 1.0625,-4.125 l 0,-1.21875 0.65625,0.625 c 0.8386,0.7441 1.7613,1.29773 2.8125,1.6875 0.70867,0.27166 0.95273,0.3125 2.5,0.3125 1.45279,0.0118 1.83437,-0.0256 2.53125,-0.25 2.33862,-0.74411 4.43158,-2.79819 5.1875,-5.125 0.17716,-0.54331 0.24583,-1.18354 0.28125,-2.1875 0.0473,-1.38191 -0.0276,-1.89096 -0.5,-3.34375 -0.0473,-0.14174 0.17051,-0.32554 0.84375,-0.65625 0.67325,-0.34254 1.21701,-0.72883 1.9375,-1.4375 l 0.96875,-1 0.4375,0.375 c 0.24804,0.20079 0.83243,0.53739 1.28125,0.75 0.76774,0.36615 0.86045,0.375 2.21875,0.375 1.39373,0 1.42246,-0.0317 2.34375,-0.46875 3.28352,-1.57089 4.22889,-5.71599 1.9375,-8.5625 -0.2126,-0.25985 -0.33612,-0.50763 -0.3125,-0.53125 0.0236,-0.0118 0.3526,-0.20127 0.71875,-0.4375 1.29924,-0.8386 2.51155,-2.37571 3.03125,-3.78125 L 301.75,448.5 l 0.65625,0.59375 c 0.79136,0.72049 2.48005,1.58046 3.53125,1.78125 0.67325,0.12992 0.71605,0.13534 0.5625,0.3125 -0.0945,0.1063 -0.33046,0.54354 -0.53125,0.96875 -1.48821,3.20085 0.43793,7.09201 3.875,7.8125 3.95677,0.81498 7.45179,-2.69948 6.625,-6.65625 -0.33071,-1.55909 -1.58609,-3.13508 -3.0625,-3.84375 L 312.6875,449.125 313,448.875 c 1.02758,-0.80316 2.04429,-2.66311 2.375,-4.28125 0.18899,-0.95671 0.16954,-2.29748 -0.0312,-3.21875 l -0.0625,-0.28125 1.0625,-0.0937 c 0.88585,-0.0591 1.49604,-0.1811 2.5,-0.5 0.15355,-0.0473 0.22219,0.0477 0.28125,0.4375 0.1063,0.68505 0.73031,1.80118 1.25,2.25 0.22441,0.20079 0.69635,0.52214 1.0625,0.6875 0.54331,0.25985 0.81765,0.3125 1.65625,0.3125 0.85041,0 1.08931,-0.0603 1.65625,-0.34375 0.79135,-0.37796 1.67691,-1.28296 2.03125,-2.0625 0.38976,-0.85041 0.38215,-2.3329 -0.0312,-3.21875 -0.5315,-1.16931 -1.75637,-2.12352 -2.9375,-2.3125 -0.43701,-0.0709 -0.47711,-0.11933 -0.40625,-0.34375 0.46065,-1.52365 0.5758,-2.78615 0.375,-4.15625 -0.0945,-0.60237 -0.096,-0.625 0.1875,-0.625 0.61417,0 1.59694,-0.48375 2.1875,-1.0625 1.3701,-1.38191 1.44786,-3.51178 0.125,-5 -0.50789,-0.59056 -1.66633,-1.15625 -2.375,-1.15625 l -0.5625,0 -0.0625,-0.5625 c -0.31891,-2.29139 -1.40056,-4.34297 -3.125,-5.9375 l -0.8125,-0.75 -0.0625,-1.25 c -0.0945,-1.44098 -0.31988,-2.29525 -0.875,-3.5 -0.87404,-1.91342 -2.4547,-3.58635 -4.25,-4.53125 -1.61815,-0.8386 -2.41508,-1.06595 -4.28125,-1.125 -1.86617,-0.0709 -2.95691,0.13508 -4.46875,0.84375 -0.9449,0.44884 -1.01256,0.45842 -0.90625,0.28125 0.17716,-0.28348 0.26255,-1.55659 0.15625,-2.3125 -0.36615,-2.68116 -3.05359,-4.73351 -5.6875,-4.34375 l -0.75,0.125 0,-1.4375 c -0.0354,-2.75201 -0.97339,-5.00882 -2.875,-6.875 -1.25199,-1.22837 -2.50613,-1.96087 -4.21875,-2.46875 -0.88585,-0.27166 -1.25146,-0.3125 -2.5625,-0.3125 -1.70083,0 -2.64589,0.15181 -3.96875,0.71875 l -0.78125,0.34375 -0.21875,-0.34375 c -0.37796,-0.62599 -1.85309,-2.08169 -2.65625,-2.625 -0.43701,-0.28347 -1.11785,-0.66659 -1.53125,-0.84375 -0.4252,-0.17717 -0.82775,-0.37081 -0.875,-0.40625 -0.0591,-0.0473 -0.0244,-0.4033 0.0937,-0.78125 0.14174,-0.50789 0.2035,-0.93576 0.15625,-1.65625 -0.1063,-1.85438 -1.22905,-3.50934 -2.90625,-4.3125 -0.67324,-0.3189 -0.94954,-0.40207 -1.90625,-0.4375 -0.626,-0.0236 -1.33391,0.0229 -1.59375,0.0937 -0.24804,0.0709 -0.47638,0.11737 -0.5,0.0937 -0.0236,-0.0118 -0.0854,-0.48794 -0.15625,-1.03125 -0.27166,-2.2087 -1.16311,-3.98324 -2.78125,-5.625 -1.73626,-1.75989 -3.50439,-2.60334 -5.9375,-2.875 -1.07482,-0.11811 -2.29329,-0.0487 -3.25,0.1875 -0.2126,0.0591 -0.29502,-0.0317 -0.53125,-0.46875 -0.38977,-0.75591 -1.42248,-1.68797 -2.34375,-2.125 -1.4646,-0.68505 -3.41876,-0.56916 -4.8125,0.28125 -0.38976,0.23622 -0.55832,0.31324 -0.59375,0.21875 -0.0236,-0.0827 -0.12425,-0.43109 -0.21875,-0.75 -0.51969,-1.65358 -2.15401,-3.01304 -3.9375,-3.34375 -0.38387,-0.0709 -0.6405,-0.12352 -0.90625,-0.125 z m 239.375,1.1875 c -0.12993,0 -0.52066,0.0618 -0.875,0.15625 -1.62995,0.43702 -3.04625,1.78393 -3.625,3.4375 l -0.1875,0.59375 -0.59375,-0.21875 c -2.315,-0.80316 -4.91533,0.0546 -6.25,2.0625 -0.59056,0.88584 -0.90625,1.9141 -0.90625,2.90625 l 0,0.8125 -0.90625,-0.5 c -3.72055,-2.12603 -8.4367,-1.57363 -11.53125,1.34375 -1.79531,1.68901 -2.7554,3.59051 -3.0625,6 l -0.15625,1.125 -0.46875,-0.0937 c -3.47251,-0.57875 -6.54793,0.002 -9.40625,1.75 -1.39373,0.85041 -3.39196,2.8757 -4.21875,4.28125 -1.33467,2.26775 -1.84031,4.20566 -1.78125,6.875 0.0354,1.45279 0.0285,1.68405 -0.125,1.625 -0.0945,-0.0354 -0.51649,-0.15551 -0.90625,-0.25 -1.99611,-0.46065 -4.04229,0.11735 -5.625,1.59375 l -0.75,0.71875 L 433.5,399.125 c -2.69296,-0.63781 -5.61757,-0.30269 -8.0625,0.9375 -3.16542,1.61814 -5.44339,4.52061 -6.1875,7.875 -0.12992,0.56694 -0.27707,1.26721 -0.3125,1.5625 l -0.0625,0.53125 -1.21875,0.0312 c -0.93309,0 -1.36638,0.0374 -1.96875,0.25 -1.83074,0.63781 -3.233,2.05608 -3.90625,3.875 -0.37796,1.01578 -0.37796,3.14122 0,4.0625 0.14174,0.35434 0.23056,0.66388 0.21875,0.6875 -0.0236,0.0118 -0.36785,-0.1159 -0.78125,-0.28125 -0.92127,-0.37796 -2.72586,-0.51747 -3.8125,-0.28125 -1.14569,0.23622 -2.53221,0.98916 -3.40625,1.875 -1.44097,1.45279 -2.07505,3.18721 -1.96875,5.21875 0.0945,1.66539 0.62104,2.96406 1.625,4.0625 0.47245,0.50789 0.49951,0.65625 0.0625,0.65625 -0.44884,0 -1.69979,0.69143 -2.125,1.1875 -0.22441,0.25985 -0.56102,0.7901 -0.75,1.15625 -0.28348,0.57875 -0.3007,0.79747 -0.3125,1.71875 0,0.95671 0.0248,1.14 0.34375,1.71875 1.53546,2.77565 5.72709,2.89227 7.15625,0.1875 0.20079,-0.37796 0.33883,-0.51599 0.46875,-0.46875 1.24019,0.5197 1.50071,0.5507 2.90625,0.5625 l 1.40625,0 0.0937,1.59375 c 0.0591,1.4764 0.17961,2.12768 0.6875,3.78125 0.0236,0.0945 -0.16929,0.21383 -0.5,0.34375 -0.7323,0.28348 -1.55461,0.86638 -2.0625,1.46875 -2.1024,2.44493 -1.24169,6.44165 1.6875,7.90625 0.75593,0.37796 0.85356,0.40625 2.09375,0.40625 1.24017,0 1.33783,-0.0401 2.09375,-0.40625 1.01576,-0.50789 1.8553,-1.30436 2.375,-2.34375 l 0.40625,-0.84375 0.625,0.28125 c 1.53546,0.61419 3.71109,0.95423 5.1875,0.8125 l 0.78125,-0.0625 -0.21875,0.84375 c -0.17716,0.68505 -0.22294,1.15991 -0.1875,2.1875 0.0472,1.19293 0.16435,1.72512 0.625,2.90625 0.0591,0.16535 -0.0684,0.19094 -0.8125,0.25 -1.59451,0.11811 -2.95668,1.12152 -3.5,2.5625 -0.20079,0.53151 -0.25419,0.84128 -0.21875,1.65625 0.0591,1.21656 0.41484,1.9899 1.3125,2.78125 0.82679,0.75592 1.69388,1.02781 2.875,0.96875 1.77169,-0.0945 3.03025,-1.0915 3.65625,-2.875 0.0591,-0.18897 0.10409,-0.10925 0.28125,0.375 0.96853,2.75203 3.15841,4.94535 5.875,5.9375 1.31105,0.47245 2.52778,0.64519 3.96875,0.5625 1.48821,-0.0945 2.69732,-0.40106 3.9375,-1.0625 l 0.96875,-0.5 0.1875,0.8125 c 0.3189,1.32285 0.93355,2.46824 1.9375,3.53125 1.01577,1.07483 2.01251,1.71505 3.40625,2.1875 0.81498,0.27166 1.11537,0.3125 2.34375,0.3125 1.14569,0 1.58856,-0.0686 2.25,-0.28125 1.02758,-0.33071 1.76008,-0.67543 2.46875,-1.21875 0.30709,-0.23622 0.57012,-0.4375 0.59375,-0.4375 0.0118,0 0.0312,0.43724 0.0312,0.96875 0.1063,5.1497 4.54886,9.4375 9.78125,9.4375 1.25199,0 2.88211,-0.34767 3.96875,-0.84375 l 0.875,-0.4375 -0.375,0.78125 c -1.96068,3.95677 1.04716,8.75 5.5,8.75 1.98429,0 2.99135,-0.46846 5.09375,-2.5 0.87404,-0.8504 13.13556,-12.20693 27.25,-25.1875 L 535.8125,438.0625 535.78125,418.96875 535.75,399.875 535.5,398.71875 c -0.43701,-1.88979 -1.03074,-3.53785 -2.09375,-5.6875 -1.71264,-3.49613 -3.92489,-6.50683 -7.03125,-9.625 -4.37016,-4.37016 -9.43001,-7.76079 -14.875,-9.875 -1.97247,-0.77955 -25.37623,-8.41806 -25.71875,-8.40625 z m -121.1875,4.75 c -0.27166,0.0222 -0.53149,0.0659 -0.75,0.125 -1.38191,0.38976 -2.52606,1.37227 -3.1875,2.71875 -0.37796,0.77955 -0.40625,0.88482 -0.40625,2.125 0,1.24019 0.0283,1.35726 0.40625,2.125 0.38977,0.79135 1.01425,1.5588 1.6875,2.03125 l 0.34375,0.25 -0.53125,0.28125 c -1.20474,0.59056 -1.90625,1.72709 -1.90625,3.15625 -0.0118,0.7323 0.0408,1.00736 0.3125,1.5625 0.64961,1.31105 1.78123,2.01944 3.28125,2.03125 1.06301,0 1.78714,-0.27532 2.53125,-1.03125 0.75591,-0.7441 1.0625,-1.47586 1.0625,-2.5625 0,-0.7323 -0.0527,-1.01155 -0.3125,-1.53125 -0.16535,-0.35434 -0.46727,-0.79157 -0.65625,-0.96875 l -0.375,-0.34375 0.75,-0.25 c 0.96851,-0.33071 1.91361,-1.07946 2.46875,-1.90625 0.67324,-1.01576 0.83194,-1.50907 0.84375,-2.84375 0.0118,-1.12206 -0.005,-1.2239 -0.40625,-2.0625 -0.55513,-1.13387 -1.32725,-1.906 -2.4375,-2.4375 -0.72049,-0.34252 -1.04059,-0.43333 -1.84375,-0.46875 -0.32481,-0.0177 -0.60334,-0.0222 -0.875,0 z M 357.8125,391.5 c -0.15299,0.0117 -0.28543,0.0315 -0.4375,0.0625 -1.0512,0.22441 -2.0588,1.06199 -2.53125,2.125 -0.37795,0.8386 -0.36271,2.10653 0.0625,2.96875 0.6378,1.31105 1.80485,2.03125 3.28125,2.03125 0.7323,0.0118 1.00738,-0.0408 1.5625,-0.3125 1.32286,-0.64961 2.03125,-1.79304 2.03125,-3.28125 0,-1.06301 -0.3184,-1.78714 -1.0625,-2.53125 -0.75445,-0.76477 -1.8353,-1.14437 -2.90625,-1.0625 z m -33.65625,3.875 c -0.27756,0.034 -0.51894,0.13189 -0.84375,0.25 -1.02758,0.35434 -1.96013,1.05929 -2.5625,1.96875 -0.68505,1.01576 -0.87156,1.76253 -0.8125,3.15625 0.0354,0.96853 0.0755,1.26426 0.40625,1.9375 1.50004,3.10636 5.57376,3.89695 8.125,1.59375 2.75201,-2.48036 2.06551,-6.90548 -1.3125,-8.5 -0.69686,-0.3189 -0.96898,-0.38264 -1.9375,-0.40625 -0.46654,-0.0177 -0.78494,-0.034 -1.0625,0 z m 59.1875,9.09375 c -0.53003,-0.0266 -1.05191,0.0263 -1.40625,0.15625 -1.50002,0.54332 -2.47071,1.67566 -2.71875,3.1875 -0.23623,1.54727 0.36956,3.05584 1.5625,3.90625 0.73229,0.5197 1.44535,0.74581 2.4375,0.78125 l 0.875,0.0312 0.0937,0.5625 c 0.2126,1.53546 1.48397,3.17395 3.03125,3.90625 1.3701,0.6378 3.62915,0.55661 5.09375,-0.1875 0.90946,-0.46064 1.79699,-1.34399 2.28125,-2.3125 0.36615,-0.75593 0.375,-0.85356 0.375,-2.09375 l 0,-1.3125 -0.53125,-1.03125 c -0.95671,-1.91341 -2.32895,-2.99777 -4.21875,-3.28125 -0.92129,-0.14174 -1.91977,-0.006 -2.6875,0.3125 -0.24804,0.1063 -0.45695,0.16806 -0.46875,0.15625 -0.0118,-0.0236 -0.15895,-0.28665 -0.3125,-0.59375 -0.34253,-0.70868 -1.22464,-1.58735 -1.96875,-1.90625 -0.37206,-0.16536 -0.90747,-0.25468 -1.4375,-0.28125 z M 327,413.65625 c -0.43517,0.009 -0.64665,0.0822 -1.125,0.3125 -1.33467,0.63781 -2.0625,1.81666 -2.0625,3.28125 0,1.4646 0.73964,2.624 2.0625,3.25 0.82679,0.40159 1.91557,0.46334 2.71875,0.15625 0.89765,-0.34254 0.85481,-0.35655 0.9375,0.28125 0.1063,0.86222 0.66214,1.92814 1.40625,2.625 2.53941,2.4095 6.5076,1.64598 8.03125,-1.53125 0.34253,-0.72049 0.375,-0.85775 0.375,-2.0625 0,-1.21655 -0.0207,-1.34964 -0.375,-2.09375 -0.5197,-1.09845 -1.30017,-1.906 -2.375,-2.4375 -0.74411,-0.36615 -1.03641,-0.42151 -1.875,-0.46875 -1.21656,-0.0591 -2.35308,0.26083 -3.15625,0.875 -0.30709,0.22443 -0.58958,0.40625 -0.625,0.40625 -0.0354,0 -0.12426,-0.20128 -0.21875,-0.4375 -0.28348,-0.68506 -0.93995,-1.37204 -1.625,-1.75 -0.51969,-0.27165 -0.79478,-0.37082 -1.5625,-0.40625 -0.2126,-0.009 -0.38619,-0.003 -0.53125,0 z m 69.375,25.65625 c -0.28052,0.0325 -0.47244,0.10654 -0.75,0.21875 -1.41735,0.55512 -2.37745,1.4424 -3.0625,2.8125 -0.4134,0.8386 -0.4375,0.92861 -0.4375,2.0625 0,0.66143 0.0347,1.38877 0.0937,1.625 l 0.0937,0.40625 -0.6875,0.28125 c -0.86223,0.3189 -1.7463,1.05584 -2.21875,1.90625 -0.33072,0.57875 -0.34375,0.72586 -0.34375,1.8125 0,1.063 0.0485,1.24556 0.34375,1.8125 0.47245,0.88585 1.02115,1.45398 1.8125,1.84375 0.57875,0.29528 0.82182,0.34375 1.625,0.34375 1.2638,0.0118 2.01696,-0.25589 2.84375,-1 0.79135,-0.7323 1.21801,-1.56617 1.3125,-2.59375 l 0.0625,-0.78125 1,-0.125 c 4.57096,-0.61419 6.39326,-6.06515 3.0625,-9.21875 -0.35434,-0.34253 -1.03174,-0.7874 -1.46875,-1 -0.7323,-0.34252 -0.91262,-0.38264 -2.09375,-0.40625 -0.54922,-0.0177 -0.90698,-0.0325 -1.1875,0 z m -40.71875,6.71875 c -0.93309,-0.0236 -1.32061,0.0222 -1.78125,0.1875 -1.28744,0.48426 -2.44487,1.52581 -3,2.71875 -0.28347,0.60237 -0.3125,0.80287 -0.3125,2.03125 0,1.28742 0.0207,1.40033 0.375,2.15625 1.45279,3.07092 5.37865,3.84207 7.90625,1.5625 2.6221,-2.37406 1.99391,-6.63604 -1.21875,-8.21875 -0.70867,-0.34252 -0.90574,-0.40208 -1.96875,-0.4375 z m -29.9375,0.71875 c -0.22737,0.0118 -0.41732,0.033 -0.5,0.0625 -1.14569,0.36615 -2.09005,1.21061 -2.5625,2.25 -0.25985,0.54333 -0.3125,0.82946 -0.3125,1.65625 0,0.86223 0.029,1.10875 0.3125,1.6875 0.41339,0.85041 1.14196,1.57897 1.96875,1.96875 0.55513,0.25985 0.82109,0.3125 1.71875,0.3125 1.29924,0 1.92247,-0.25441 2.84375,-1.1875 1.86619,-1.90161 1.33518,-5.15844 -1.0625,-6.375 -0.55514,-0.27165 -0.8767,-0.33957 -1.65625,-0.375 -0.25984,-0.006 -0.52263,-0.0118 -0.75,0 z m 6.34375,10.84375 c -0.56694,0.009 -1.1432,0.0888 -1.5625,0.21875 -1.7835,0.56694 -3.11293,1.92344 -3.65625,3.71875 -0.20079,0.66142 -0.23475,1.01204 -0.1875,1.96875 0.0472,1.03939 0.12204,1.26351 0.5,2.03125 0.25985,0.5315 0.66855,1.13729 1.09375,1.5625 0.37796,0.38976 0.57924,0.61393 0.4375,0.53125 -0.64963,-0.33071 -2.34101,-0.60556 -3.6875,-0.59375 -3.12999,0.0118 -5.89219,1.37175 -7.6875,3.78125 l -0.625,0.8125 -0.59375,-0.5 c -0.81498,-0.69686 -1.88286,-1.28248 -2.875,-1.625 -0.70868,-0.23623 -1.0396,-0.28125 -2.46875,-0.28125 -1.41735,0 -1.74482,0.0568 -2.40625,0.28125 -2.30319,0.81497 -4.27534,2.74061 -5.03125,4.9375 l -0.21875,0.59375 -0.90625,-0.46875 c -1.20475,-0.60237 -2.05904,-0.8125 -3.5,-0.8125 -3.21266,0 -5.79377,1.61043 -7.1875,4.46875 -0.59056,1.21656 -0.80906,2.28466 -0.75,3.84375 l 0.0625,1.28125 -0.3125,-0.28125 c -0.93309,-0.8504 -2.64713,-1.77337 -4.3125,-2.28125 -0.99215,-0.3071 -1.21502,-0.34375 -3.1875,-0.34375 -1.83075,0 -2.24752,0.0568 -3.0625,0.28125 -1.08664,0.29529 -2.61341,0.97539 -3.59375,1.625 -1.48822,0.99215 -3.14196,2.87005 -3.96875,4.5 l -0.3125,0.625 -0.75,-0.40625 c -2.66934,-1.4646 -6.34051,-1.10929 -8.75,0.875 -1.32286,1.08664 -2.37623,2.84643 -2.71875,4.5 -0.2008,0.9449 -0.2126,3.07135 0,3.4375 0.0591,0.1063 20.94119,21.35211 46.40625,47.21875 25.46505,25.86664 47.07454,47.83216 48.03125,48.8125 L 356,593.6875 l 0.375,-0.15625 c 0.5197,-0.2126 1.26721,-1.0337 1.5625,-1.71875 0.18897,-0.42521 0.28125,-0.81567 0.28125,-1.40625 0,-0.73229 -0.0519,-0.93232 -0.40625,-1.59375 -0.25985,-0.49608 -0.57554,-0.86934 -0.90625,-1.09375 l -0.5,-0.375 0.5,-0.3125 c 1.5827,-1.00396 2.16635,-2.95618 1.375,-4.5625 -0.27166,-0.53151 -1.30265,-1.5625 -1.5625,-1.5625 -0.0591,0 0.16929,-0.28247 0.5,-0.625 0.90948,-0.96851 1.2222,-1.72094 1.28125,-2.9375 0.0591,-1.2638 -0.14344,-2.0711 -0.78125,-2.96875 -0.48426,-0.68505 -1.42395,-1.3964 -2.15625,-1.65625 l -0.4375,-0.125 0.84375,-0.6875 c 5.61034,-4.47646 7.36546,-12.44968 4.09375,-18.875 -0.30709,-0.61419 -0.68257,-1.27976 -0.8125,-1.46875 l -0.25,-0.34375 0.5,-0.375 c 3.86228,-2.74021 5.21978,-8.06045 3.09375,-12.3125 -0.87404,-1.73626 -2.37841,-3.32946 -3.9375,-4.15625 l -0.71875,-0.40625 0.40625,-0.40625 c 1.02758,-1.02759 1.5812,-2.16877 1.6875,-3.5625 0.12993,-1.68901 -0.42444,-3.20569 -1.59375,-4.375 l -0.6875,-0.65625 0.375,-0.5625 c 1.29924,-1.92522 1.05564,-4.80606 -0.5625,-6.625 -1.14569,-1.29924 -2.56788,-1.88338 -4.375,-1.8125 -0.88584,0.0354 -1.0278,-0.003 -0.96875,-0.15625 0.96852,-2.25595 1.07605,-4.71625 0.34375,-7.03125 -0.30709,-0.96852 -0.32261,-0.93259 0.46875,-1.0625 1.27561,-0.21261 2.95176,-1.45495 3.625,-2.71875 1.48821,-2.75203 0.45896,-6.18403 -2.28125,-7.625 L 353.84375,497.09375 354.5,496.375 c 1.84256,-2.03154 2.71605,-4.54104 2.5625,-7.28125 -0.1063,-1.93704 -0.64738,-3.53048 -1.78125,-5.125 -0.50789,-0.70868 -1.79354,-2.01378 -2.21875,-2.25 -0.2126,-0.11811 -0.21482,-0.17814 0.28125,-0.875 0.72049,-1.01576 1.2436,-2.046 1.5625,-3.15625 0.22441,-0.75593 0.25,-1.19239 0.25,-2.5625 0,-2.00791 -0.16903,-2.70125 -1.03125,-4.4375 -0.34253,-0.68505 -0.61319,-1.24581 -0.625,-1.28125 -0.0236,-0.0354 0.21998,-0.24851 0.5625,-0.4375 0.67324,-0.40157 1.41584,-1.27534 1.6875,-2.03125 0.0945,-0.29529 0.1875,-0.92961 0.1875,-1.4375 0,-0.74411 -0.0603,-1.0032 -0.34375,-1.59375 -0.43701,-0.90947 -1.06691,-1.53174 -2,-1.96875 -0.67324,-0.33071 -0.82454,-0.35975 -1.78125,-0.3125 -1.19294,0.0591 -1.82184,0.31839 -2.625,1.0625 l -0.5,0.46875 -0.65625,-0.65625 c -0.95671,-0.90946 -1.53074,-1.31224 -2.59375,-1.84375 -2.27957,-1.14569 -5.03564,-1.34623 -7.46875,-0.53125 l -0.875,0.3125 -0.1875,-0.28125 c -0.69686,-1.07482 -2.06888,-2.08734 -3.25,-2.40625 -0.46655,-0.11811 -1.02681,-0.16511 -1.59375,-0.15625 z m 54.65625,1.5625 c -0.39014,-0.0113 -0.7842,0.0347 -1.15625,0.0937 -3.24809,0.50789 -5.65625,3.3373 -5.65625,6.65625 0,0.77955 0.25959,2.01155 0.53125,2.53125 l 0.15625,0.34375 -0.90625,-0.46875 c -3.09455,-1.5709 -6.80854,0.013 -7.8125,3.34375 -0.2126,0.68505 -0.266,1.04748 -0.21875,1.96875 0.0591,1.00396 0.11368,1.1961 0.5625,2.09375 0.69686,1.41735 1.87423,2.40599 3.46875,2.9375 0.18897,0.0709 0.16609,0.12056 -0.0937,0.6875 -0.47245,1.0512 -0.6597,1.96872 -0.71875,3.46875 -0.12992,3.01188 0.76841,5.31147 2.90625,7.4375 l 0.84375,0.84375 -0.25,0.53125 c -0.86222,1.6772 -1.25148,3.87324 -1.0625,6.09375 0.18898,2.1969 1.03196,4.33731 2.4375,6.15625 l 0.65625,0.875 -0.25,0.71875 c -0.5197,1.45278 -0.64444,2.31025 -0.65625,4.09375 l 0,1.71875 -0.71875,-0.34375 c -0.38976,-0.17716 -0.9429,-0.37083 -1.25,-0.40625 -0.3189,-0.0473 -0.5625,-0.10138 -0.5625,-0.125 0,-0.0354 0.0694,-0.1784 0.1875,-0.34375 0.59056,-0.85041 0.92717,-2.47094 0.75,-3.6875 -0.11811,-0.87404 -0.68306,-2.11564 -1.25,-2.8125 -0.22443,-0.27166 -0.72341,-0.7089 -1.125,-0.96875 -2.25595,-1.50003 -5.19214,-1.21411 -7.09375,0.6875 -1.8898,1.8898 -2.14866,4.88505 -0.625,7.09375 l 0.40625,0.5625 -0.8125,0.40625 c -1.09845,0.5315 -2.05044,1.4793 -2.59375,2.625 -0.36615,0.77954 -0.42151,1.07455 -0.46875,2.03125 -0.0473,0.89766 -0.0133,1.24482 0.1875,1.90625 0.69686,2.26776 2.68155,3.87426 4.9375,3.96875 0.41339,0.0236 0.75,0.0778 0.75,0.125 0,0.0472 -0.14296,0.39148 -0.34375,0.78125 -1.25199,2.46855 -1.45671,6.07991 -0.5,8.84375 0.28347,0.81497 0.9963,2.2837 1.46875,2.96875 0.48426,0.70867 1.76007,2.01919 2.46875,2.5625 0.3189,0.23622 0.5625,0.484 0.5625,0.53125 0,0.0472 -0.1624,0.12426 -0.375,0.21875 -0.20079,0.0827 -0.75392,0.43109 -1.25,0.75 -6.15366,4.01582 -7.20728,12.69256 -2.1875,18.03125 l 0.75,0.78125 -0.875,0.78125 c -1.02759,0.92127 -1.80805,1.92787 -2.375,3.15625 -0.70868,1.4764 -0.8243,2.18302 -0.8125,4.25 0,1.66539 0.029,1.91904 0.3125,2.78125 l 0.3125,0.96875 -0.34375,0.75 c -1.06301,2.25595 -0.91243,5.15866 0.375,7.34375 l 0.34375,0.59375 -0.46875,0.53125 c -1.14569,1.31105 -1.0763,3.33339 0.1875,4.65625 l 0.4375,0.4375 -0.4375,0.375 c -0.64961,0.56694 -1.03125,1.40304 -1.03125,2.3125 0,0.67324 -0.0249,0.83316 -0.34375,1.1875 -0.69686,0.79136 -0.875,1.3078 -0.875,2.40625 0,0.89765 0.0248,1.05806 0.34375,1.625 0.36614,0.66143 1.10605,1.3937 1.53125,1.5 0.21261,0.0591 9.06463,-8.00932 52.1875,-47.71875 l 51.90625,-47.78125 0.15625,-0.6875 c 0.17716,-0.89766 0.0689,-2.27459 -0.25,-3.125 -0.56694,-1.48821 -1.97635,-2.84769 -3.5,-3.34375 -0.98034,-0.31891 -2.7079,-0.31128 -3.59375,0.0312 -0.76772,0.3071 -0.8125,0.30636 -0.8125,0.0937 0,-0.0945 -0.22834,-0.61293 -0.5,-1.15625 -0.72049,-1.40554 -2.03615,-2.70176 -3.40625,-3.375 -1.3701,-0.67324 -2.16804,-0.84375 -3.65625,-0.84375 -1.3701,0 -2.24112,0.156 -3.375,0.6875 l -0.75,0.34375 -0.0625,-1.03125 c -0.38978,-4.7245 -3.7381,-8.38508 -8.25,-9.09375 -1.0512,-0.16536 -3.11415,-0.0918 -4,0.15625 -0.35434,0.1063 -0.73327,0.23401 -0.875,0.28125 -0.22441,0.0591 -0.25344,0.004 -0.3125,-0.5625 -0.16535,-1.39373 -1.44659,-3.18576 -2.78125,-3.90625 -1.18113,-0.64961 -2.84176,-0.87379 -4.09375,-0.53125 -2.43313,0.64961 -4.21875,2.93351 -4.21875,5.4375 l 0,0.46875 L 426.59375,477 c -0.54333,-0.74411 -1.75096,-1.75811 -2.625,-2.21875 -1.19294,-0.6378 -2.4146,-0.89863 -3.84375,-0.875 l -1.1875,0 L 418.875,473 c -0.28346,-3.09454 -2.34099,-6.0979 -5.1875,-7.5625 -1.66539,-0.86221 -2.48865,-1.05069 -4.4375,-1.0625 l -1.6875,0 -0.125,-0.625 c -0.30709,-1.51184 -1.49996,-2.98645 -3,-3.71875 -2.66934,-1.32285 -5.98546,-0.25473 -7.34375,2.34375 l -0.34375,0.65625 -0.90625,0 c -0.48426,0.0118 -1.2928,0.0618 -1.8125,0.15625 -0.51969,0.0945 -0.99164,0.1875 -1.0625,0.1875 -0.0591,0 -0.26796,-0.32135 -0.46875,-0.6875 -0.44884,-0.87404 -1.55584,-2.05461 -2.40625,-2.5625 -0.97443,-0.59351 -2.20458,-0.93498 -3.375,-0.96875 z m -56.4375,9.28125 c -0.006,-0.0266 0.13164,0.014 0.40625,0.0937 0.3189,0.0945 0.63264,0.16387 0.65625,0.1875 0.0236,0.0236 -0.0153,0.14369 -0.0625,0.25 -0.0591,0.16535 -0.0797,0.14247 -0.375,-0.0937 -0.17716,-0.14174 -0.44439,-0.29232 -0.5625,-0.375 -0.0354,-0.0207 -0.0605,-0.0536 -0.0625,-0.0625 z m 33.6875,12.59375 c -0.22515,0.0144 -0.40772,0.0406 -0.59375,0.0937 -0.74411,0.2126 -1.53936,0.68725 -2,1.21875 -1.02758,1.15751 -1.29406,2.84446 -0.65625,4.25 0.17716,0.40159 0.46727,0.87353 0.65625,1.0625 l 0.34375,0.3125 -0.4375,0.46875 c -0.56695,0.62599 -1.09645,1.78149 -1.25,2.75 -0.54331,3.28354 2.16504,6.4375 5.53125,6.4375 2.64571,0 5.03936,-2.02997 5.5,-4.6875 0.36615,-2.06698 -0.69288,-4.43625 -2.5,-5.59375 -0.3189,-0.2126 -0.59375,-0.4215 -0.59375,-0.46875 0,-0.0473 0.0812,-0.28323 0.1875,-0.53125 0.12993,-0.29529 0.21875,-0.8275 0.21875,-1.40625 0,-0.77954 -0.0561,-1.00662 -0.375,-1.65625 -0.4252,-0.87403 -1.09473,-1.50467 -1.96875,-1.90625 -0.5758,-0.26575 -1.38704,-0.38693 -2.0625,-0.34375 z" transform="scale(0.8,0.8)" style="fill:#000000;stroke:none"/>
</svg>