<svg xmlns="http://www.w3.org/2000/svg" height="724" width="724">
<path fill="#f00" d="m362.05 2.14 359.8 359.82-359.8 359.9-359.9-359.9z"/>
<path d="m362.04 636.71-274.75-274.74 274.75-274.68 274.67 274.68z"/>
<path d="m362 59.156c-24.93 24.94-277.9 277.91-302.84 302.84 24.929 24.94 277.9 277.91 302.84 302.84 24.94-24.93 277.9-277.9 302.84-302.84-24.94-24.93-277.9-277.9-302.84-302.84zm3.94 99.844c33.45 0 50.61 15.64 68.78 32.19l9.37 8.4 3.57 3.1c15.08 13.06 25.96 22.51 25.96 32.9 0 16.89-10.42 31.92-18.03 42.91l-1.9 2.81c1.16 5.44 2.69 14.24 2.69 23.07 0 14.11-6.83 21.89-14.79 27.68 12.24-5.64 26.6-12.3 31.47-14.81 6.77-3.48 13-12.53 16.35-17.37l1.71-2.47c4.42-6.07 13.08-12.57 24.13-12.57 4.7 0 8.54 1.55 11.47 4.57 4.05 4.18 5.45 10.34 5.84 16.9 7.1 4.3 10.91 11.98 10.91 17.5v10.16c0 9.94-6.35 16.87-15.41 16.87-5.71 0-11.24-2.68-16.12-5.06-3.38-1.65-6.88-3.37-8.94-3.37l-1.25-0.03c-2.19-0.11-5.51-0.25-10.84 2.24-0.21 0.11-50.6 25.63-63 31.91-0.18 0.74-0.38 1.49-0.63 2.25 18.12 8.67 48.94 23.38 52.66 24.94l3.53 1.69c1.53 0.82 1.97 1.09 6.69 1.09 2.75 0 5.68-1.1 9.09-2.38 4.8-1.79 10.81-4.03 18.69-4.03 10.86 0 26.62 7.58 26.62 19.44 0 10.56-6.76 13.73-17.97 19l-4.84 2.28c-1.13 5.55-2.2 10.94-2.63 13.47-1.57 9.45-11.06 15.1-19.34 15.1-11.8 0-22.12-11.55-23.06-19.04-1.19-9.47-5.76-16-13.94-19.93l-54.78-26.35c-3.65 2.85-7.71 5.5-12.19 7.75l-0.56 0.28c-10.82 5.45-21.05 10.57-27.87 10.57-7.7 0-24.16-6.47-32.88-10.85-3.57-1.79-6.89-3.84-9.94-6.03l-44.47 20.94-7.78 3.69c-8.18 3.93-12.75 10.46-13.93 19.93-0.94 7.49-11.27 19.04-23.07 19.04-8.28 0-17.77-5.65-19.34-15.1-0.42-2.53-1.5-7.93-2.63-13.47l-4.84-2.28c-11.21-5.27-17.97-8.44-17.97-19 0-11.86 15.77-19.44 26.63-19.44 7.88 0 13.88 2.24 18.68 4.03 3.41 1.28 6.35 2.38 9.1 2.38 4.71 0 5.16-0.27 6.68-1.09l3.54-1.69c3.44-1.45 30.24-14.24 48.56-23-0.96-2.42-1.57-4.73-1.81-6.88-17.49-8.86-57.54-29.12-57.72-29.22-5.34-2.49-8.66-2.35-10.85-2.24l-1.25 0.03c-2.06 0-5.55 1.72-8.93 3.37-4.88 2.38-10.42 5.06-16.13 5.06-9.06 0-15.41-6.93-15.41-16.87v-10.16c0-5.52 3.82-13.2 10.91-17.5 0.39-6.56 1.79-12.72 5.85-16.9 2.92-3.02 6.77-4.57 11.46-4.57 11.05 0 19.69 6.5 24.1 12.57l1.75 2.47c3.34 4.84 9.57 13.89 16.34 17.37 3.7 1.9 12.79 6.15 22.28 10.56-5.93-5.4-10.47-12.33-10.47-22.19 0-7.18 1.11-17.4 2.19-25.12l-1.34-2c-7.61-10.99-18.03-26.02-18.03-42.91 0-10.07 10.38-19.49 24.75-32.5l4.75-4.31c3.63-3.32 6.82-6.48 9.93-9.53 7.58-7.44 14.14-13.86 22.25-17.97 16.31-8.26 31.87-12.28 47.6-12.28zm-0.03 11.31c-14.22 0-27.82 2.81-42.82 10.41-6.65 3.37-12.35 8.95-19.59 16.06-3.18 3.12-6.47 6.36-10.25 9.81l-4.78 4.35c-10.94 9.9-21.25 19.26-21.25 24.65 0 8.67 3.79 17.28 8.31 24.94-1.45-5.94-1.31-4.49-1.31-7.31 0-0.46 0.03-3.56 0.03-3.56 0-10.39 2.57-18.81 15.09-29.94 0.95-0.84 4.13-1.13 5.35 0.31s1.64 1.96 2.69 3.25c1.04 1.29-0.27 3.64-1.13 4.41-10.59 9.41-11.44 15.11-11.44 21.97 0 0-0.03 3.1-0.03 3.46 0 2.86 5.06 21.18 5.06 25.88s-3.62 10.15-3.62 25.38c0 14.46 7.23 17.98 17.37 24.18l3.19 1.94c4.55 2.85 8.42 5.1 11.53 6.91 11.16 6.48 16.75 9.72 16.75 21.28 0 0-0.21 2.11-0.22 6.93 0.58 3.62 16.51 13.63 30.97 13.63 15.75 0 30.53-10 30.53-13.91v-6.75c0-11.79 5.76-14.78 17.25-21.53l10.88-6.56 3.19-1.94c10.14-6.2 18.15-11.1 18.15-24.18 0-12.53-3.56-25.59-3.59-25.72l-0.38-1.25 3.1-13.75c2.31-10.26 2.28-10.27 2.28-14.82 0-7.31-0.94-9.72-11.81-21.09l7.62-7.31c11.61 12.13 14.75 17.03 14.75 28.4 0 2.99 0 4.56-0.37 6.91 3.26-6.38 5.65-13.25 5.65-20.16 0-5.56-10.83-14.99-22.31-24.93l-3.59-3.1-9.57-8.56c-18.05-16.44-32.32-28.69-61.68-28.69zm-62.38 109.13h33.5c3.58 0 12.16 2.91 12.16 8.47 0 2.08-1.55 6.64-4.91 11.09-5.8 7.68-10.83 16.28-22.87 16.28-17.6 0-25-22.09-25-27.78s4.47-8.06 7.12-8.06zm89.72 0h33.47c2.65 0 7.16 2.37 7.16 8.06s-7.41 27.78-25 27.78c-12.05 0-17.08-8.6-22.88-16.28-3.36-4.45-4.91-9.01-4.91-11.09 0-5.56 8.59-8.47 12.16-8.47zm-173.41 15.97c-2.33 0-3.34 0.77-3.9 1.34-3.4 3.51-3.08 13.78-2.85 21.28l0.16 5.94c0.06 2.91-2.27 5.22-5.19 5.28-2.91 0.06-5.31-2.37-5.37-5.28l-0.07-2.13c-0.29 0.81-0.43 1.52-0.43 1.97v10.16c0 2.88 0.82 6.31 4.81 6.31 3.27 0 7.46-2.03 11.5-4 4.66-2.27 9.06-4.44 13.56-4.44l0.78-0.03c2.64-0.12 8.1-0.36 15.82 3.25l0.09 0.03 53 26.85v-14.44c-12.32-5.64-37.48-17.23-44.56-20.88-9.13-4.69-16.05-14.74-20.19-20.74l-1.59-2.29c-2.75-3.78-8.47-8.18-15.57-8.18zm295.38 0c-7.09 0-12.82 4.43-15.56 8.21l-1.57 2.26c-4.14 6-11.09 16.05-20.21 20.74-8.06 4.15-40.84 19.2-49.38 23.1v14.66l57.75-29.26 0.16-0.06c7.72-3.61 13.21-3.34 15.84-3.22l0.75 0.04c4.5 0 8.9 2.13 13.56 4.4 4.04 1.97 8.23 4.03 11.5 4.03 3.99 0 4.85-3.46 4.85-6.34v-10.16c0-0.45-0.18-1.13-0.47-1.93l-0.03 2.12c-0.06 2.92-2.49 5.32-5.41 5.25-2.91-0.06-5.22-2.33-5.16-5.25l0.13-5.97c0.23-7.5 0.55-17.77-2.85-21.28-0.55-0.57-1.57-1.34-3.9-1.34zm-147.34 23.53c10.44 0 13.86 17.09 15.62 21.72 1.76 4.64 5.62 6.83 5.62 10.25 0 2.22-1.75 7.68-8.96 7.68-7.77 0-5.8-3.25-11.54-3.25-7.02 0-4.27 3.35-12.5 3.35-8.22 0-9.24-4.91-9.24-7.03 0-1.97 1.13-5.74 4-9.25 2.95-3.62 3.31-12.93 8.03-18.47 2.91-3.43 5.13-5 8.97-5zm-55.54 27.22v25.59c0 6.99 9.56 21.92 26.88 30.63 10.73 5.39 24.18 9.31 28.16 9.31 4.31 0 14.74-4.82 23.12-9.03l0.56-0.28c17.32-8.71 26.88-23.64 26.88-30.63v-25c-10.26 6.03-10.82 6.52-10.82 11.84v6.75c0 12.48-23.54 24.47-41.31 24.47-16.01 0-41.53-11.03-41.53-24.12 0-3.98 0.07-6.11 0.22-7.41-0.04-4.83-0.84-5.56-11.5-11.75-0.22-0.12-0.44-0.24-0.66-0.37zm110.32 42.12c-1.74 2.71-3.84 5.43-6.28 8.1l51 24.53c7.91 3.8 17.76 11.77 19.81 28.12 0.33 2.68 6.39 9.78 12.59 9.78 3.81 0 8.31-2.5 8.94-6.25 1.07-6.44 5.95-29.55 6.16-30.53 0.6-2.85 3.39-4.7 6.24-4.09 2.86 0.6 4.7 3.39 4.1 6.25-0.01 0.06-0.33 1.47-0.78 3.65 9.18-4.38 9.56-5.15 9.56-8.31 0-3.89-9-8.87-16.06-8.87-5.97 0-10.55 1.69-14.97 3.34-4 1.5-8.15 3.06-12.81 3.06-6.72 0-8.64-0.67-11.72-2.34l-2.6-1.28c-4.39-1.85-42.41-20.01-53.18-25.16zm-113.88 1.72c-13.9 6.65-45.46 21.72-49.53 23.44l-2.59 1.28c-3.09 1.67-5.04 2.34-11.75 2.34-4.67 0-8.79-1.53-12.79-3.03-4.42-1.65-8.99-3.37-14.96-3.37-7.07 0-16.07 4.98-16.07 8.87 0 3.16 0.39 3.93 9.57 8.31-0.46-2.18-0.77-3.57-0.78-3.62-0.61-2.86 1.2-5.68 4.06-6.28 2.85-0.61 5.67 1.24 6.28 4.09 0.21 0.98 5.08 24.09 6.16 30.53 0.62 3.75 5.12 6.25 8.93 6.25 6.2 0 12.26-7.1 12.6-9.78 2.05-16.35 11.89-24.32 19.81-28.12l7.9-3.75 40.1-18.88c-2.68-2.69-5-5.5-6.94-8.28z" fill="#fff"/>
</svg>